<ttFont>
<head>
    <!-- Most of this table will be recalculated by the compiler -->
    <tableVersion value="1.0"/>
    <fontRevision value="1.0"/>
    <checkSumAdjustment value="0xf3a72531"/>
    <magicNumber value="0x5f0f3cf5"/>
    <flags value="00000000 00011011"/>
    <unitsPerEm value="1000"/>
    <created value="Sat Dec  6 13:43:38 2025"/>
    <modified value="Sat Dec  6 13:47:35 2025"/>
    <xMin value="-15"/>
    <yMin value="-951"/>
    <xMax value="1251"/>
    <yMax value="782"/>
    <macStyle value="00000000 00000010"/>
    <lowestRecPPEM value="6"/>
    <fontDirectionHint value="2"/>
    <indexToLocFormat value="0"/>
    <glyphDataFormat value="0"/>
  </head>
    <TTGlyph name="A" xMin="47" yMin="-51" xMax="900" yMax="725">
      <contour>
        <pt x="392" y="164" on="1"/>
        <pt x="379" y="164" on="0"/>
        <pt x="373" y="164" on="0"/>
        <pt x="372" y="163" on="1"/>
        <pt x="370" y="162" on="0"/>
        <pt x="367" y="156" on="0"/>
        <pt x="358" y="145" on="1"/>
        <pt x="329" y="105" on="0"/>
        <pt x="273" y="34" on="0"/>
        <pt x="221" y="-20" on="0"/>
        <pt x="172" y="-51" on="0"/>
        <pt x="150" y="-51" on="1"/>
        <pt x="130" y="-51" on="0"/>
        <pt x="93" y="-35" on="0"/>
        <pt x="64" y="-10" on="0"/>
        <pt x="47" y="21" on="0"/>
        <pt x="47" y="37" on="1"/>
        <pt x="47" y="48" on="0"/>
        <pt x="55" y="75" on="0"/>
        <pt x="67" y="99" on="0"/>
        <pt x="81" y="116" on="0"/>
        <pt x="87" y="116" on="1"/>
        <pt x="92" y="116" on="0"/>
        <pt x="96" y="105" on="1"/>
        <pt x="102" y="89" on="0"/>
        <pt x="125" y="67" on="0"/>
        <pt x="150" y="54" on="0"/>
        <pt x="175" y="48" on="0"/>
        <pt x="182" y="48" on="1"/>
        <pt x="195" y="48" on="0"/>
        <pt x="222" y="64" on="0"/>
        <pt x="248" y="85" on="0"/>
        <pt x="268" y="106" on="0"/>
        <pt x="273" y="112" on="1"/>
        <pt x="288" y="129" on="0"/>
        <pt x="362" y="224" on="0"/>
        <pt x="461" y="369" on="0"/>
        <pt x="575" y="556" on="0"/>
        <pt x="628" y="664" on="1"/>
        <pt x="640" y="679" on="1"/>
        <pt x="648" y="691" on="0"/>
        <pt x="671" y="709" on="0"/>
        <pt x="694" y="720" on="0"/>
        <pt x="713" y="725" on="0"/>
        <pt x="717" y="725" on="1"/>
        <pt x="729" y="725" on="0"/>
        <pt x="729" y="717" on="1"/>
        <pt x="731" y="712" on="0"/>
        <pt x="731" y="683" on="0"/>
        <pt x="731" y="672" on="1"/>
        <pt x="731" y="654" on="0"/>
        <pt x="734" y="564" on="0"/>
        <pt x="741" y="447" on="0"/>
        <pt x="752" y="313" on="0"/>
        <pt x="768" y="187" on="0"/>
        <pt x="790" y="82" on="0"/>
        <pt x="804" y="51" on="1"/>
        <pt x="807" y="45" on="0"/>
        <pt x="824" y="32" on="0"/>
        <pt x="837" y="32" on="1"/>
        <pt x="839" y="32" on="0"/>
        <pt x="844" y="34" on="0"/>
        <pt x="854" y="39" on="1"/>
        <pt x="862" y="44" on="0"/>
        <pt x="880" y="50" on="0"/>
        <pt x="889" y="50" on="1"/>
        <pt x="900" y="50" on="0"/>
        <pt x="900" y="41" on="1"/>
        <pt x="900" y="32" on="0"/>
        <pt x="873" y="8" on="0"/>
        <pt x="832" y="-14" on="0"/>
        <pt x="786" y="-29" on="0"/>
        <pt x="767" y="-29" on="1"/>
        <pt x="749" y="-29" on="0"/>
        <pt x="727" y="-19" on="0"/>
        <pt x="713" y="0" on="0"/>
        <pt x="704" y="26" on="0"/>
        <pt x="699" y="42" on="1"/>
        <pt x="689" y="74" on="0"/>
        <pt x="678" y="126" on="0"/>
        <pt x="672" y="164" on="1"/>
      </contour>
      <contour>
        <pt x="637" y="597" on="1"/>
        <pt x="581" y="490" on="0"/>
        <pt x="469" y="303" on="0"/>
        <pt x="406" y="212" on="1"/>
        <pt x="423" y="222" on="0"/>
        <pt x="450" y="225" on="0"/>
        <pt x="461" y="225" on="1"/>
        <pt x="665" y="225" on="1"/>
        <pt x="651" y="348" on="0"/>
        <pt x="640" y="529" on="0"/>
        <pt x="638" y="597" on="1"/>
      </contour>
    </TTGlyph>
    <TTGlyph name="B" xMin="51" yMin="-20" xMax="736" yMax="705">
      <contour>
        <pt x="284" y="525" on="1"/>
        <pt x="321" y="572" on="0"/>
        <pt x="405" y="639" on="0"/>
        <pt x="491" y="684" on="0"/>
        <pt x="573" y="705" on="0"/>
        <pt x="607" y="705" on="1"/>
        <pt x="669" y="705" on="0"/>
        <pt x="736" y="645" on="0"/>
        <pt x="736" y="603" on="1"/>
        <pt x="736" y="567" on="0"/>
        <pt x="693" y="507" on="0"/>
        <pt x="630" y="458" on="0"/>
        <pt x="560" y="421" on="0"/>
        <pt x="533" y="409" on="1"/>
        <pt x="565" y="404" on="0"/>
        <pt x="627" y="378" on="0"/>
        <pt x="675" y="337" on="0"/>
        <pt x="704" y="280" on="0"/>
        <pt x="704" y="242" on="1"/>
        <pt x="704" y="183" on="0"/>
        <pt x="635" y="86" on="0"/>
        <pt x="525" y="17" on="0"/>
        <pt x="390" y="-20" on="0"/>
        <pt x="325" y="-20" on="1"/>
        <pt x="309" y="-20" on="0"/>
        <pt x="256" y="-15" on="0"/>
        <pt x="222" y="-1" on="1"/>
        <pt x="199" y="10" on="0"/>
        <pt x="158" y="39" on="0"/>
        <pt x="158" y="46" on="1"/>
        <pt x="158" y="53" on="0"/>
        <pt x="175" y="71" on="0"/>
        <pt x="200" y="88" on="0"/>
        <pt x="227" y="99" on="0"/>
        <pt x="237" y="99" on="1"/>
        <pt x="242" y="99" on="0"/>
        <pt x="247" y="96" on="0"/>
        <pt x="255" y="89" on="1"/>
        <pt x="290" y="59" on="0"/>
        <pt x="367" y="41" on="0"/>
        <pt x="396" y="41" on="1"/>
        <pt x="435" y="41" on="0"/>
        <pt x="512" y="55" on="0"/>
        <pt x="573" y="90" on="0"/>
        <pt x="611" y="151" on="0"/>
        <pt x="611" y="197" on="1"/>
        <pt x="611" y="235" on="0"/>
        <pt x="577" y="293" on="0"/>
        <pt x="522" y="332" on="0"/>
        <pt x="450" y="351" on="0"/>
        <pt x="411" y="351" on="1"/>
        <pt x="392" y="351" on="0"/>
        <pt x="362" y="346" on="0"/>
        <pt x="361" y="346" on="1"/>
        <pt x="358" y="346" on="0"/>
        <pt x="353" y="345" on="0"/>
        <pt x="350" y="345" on="1"/>
        <pt x="339" y="345" on="0"/>
        <pt x="339" y="354" on="1"/>
        <pt x="339" y="356" on="0"/>
        <pt x="345" y="369" on="0"/>
        <pt x="362" y="383" on="1"/>
        <pt x="369" y="388" on="0"/>
        <pt x="380" y="394" on="0"/>
        <pt x="393" y="400" on="0"/>
        <pt x="410" y="406" on="0"/>
        <pt x="422" y="410" on="1"/>
        <pt x="433" y="414" on="0"/>
        <pt x="472" y="427" on="0"/>
        <pt x="516" y="444" on="0"/>
        <pt x="561" y="462" on="0"/>
        <pt x="577" y="471" on="1"/>
        <pt x="605" y="485" on="0"/>
        <pt x="643" y="522" on="0"/>
        <pt x="643" y="558" on="1"/>
        <pt x="643" y="579" on="0"/>
        <pt x="625" y="611" on="0"/>
        <pt x="595" y="633" on="0"/>
        <pt x="557" y="644" on="0"/>
        <pt x="536" y="644" on="1"/>
        <pt x="473" y="644" on="0"/>
        <pt x="372" y="561" on="0"/>
        <pt x="294" y="437" on="0"/>
        <pt x="240" y="295" on="0"/>
        <pt x="224" y="235" on="1"/>
        <pt x="210" y="181" on="0"/>
        <pt x="167" y="65" on="0"/>
        <pt x="135" y="18" on="1"/>
        <pt x="113" y="-5" on="0"/>
        <pt x="71" y="-20" on="0"/>
        <pt x="63" y="-20" on="1"/>
        <pt x="61" y="-20" on="0"/>
        <pt x="51" y="-18" on="0"/>
        <pt x="51" y="-12" on="1"/>
        <pt x="51" y="-10" on="0"/>
        <pt x="54" y="-2" on="0"/>
        <pt x="63" y="15" on="1"/>
        <pt x="101" y="84" on="0"/>
        <pt x="135" y="207" on="0"/>
        <pt x="149" y="265" on="1"/>
        <pt x="152" y="281" on="0"/>
        <pt x="167" y="349" on="0"/>
        <pt x="185" y="444" on="0"/>
        <pt x="204" y="562" on="0"/>
        <pt x="212" y="627" on="1"/>
        <pt x="185" y="613" on="0"/>
        <pt x="161" y="603" on="0"/>
        <pt x="151" y="603" on="1"/>
        <pt x="148" y="603" on="0"/>
        <pt x="138" y="605" on="0"/>
        <pt x="138" y="611" on="1"/>
        <pt x="138" y="626" on="0"/>
        <pt x="189" y="656" on="0"/>
        <pt x="234" y="679" on="1"/>
        <pt x="260" y="693" on="0"/>
        <pt x="285" y="703" on="0"/>
        <pt x="295" y="703" on="1"/>
        <pt x="298" y="703" on="0"/>
        <pt x="308" y="701" on="0"/>
        <pt x="308" y="693" on="1"/>
        <pt x="308" y="692" on="0"/>
        <pt x="306" y="682" on="0"/>
        <pt x="306" y="680" on="1"/>
      </contour>
    </TTGlyph>
    <TTGlyph name="C" xMin="34" yMin="-23" xMax="598" yMax="703">
      <contour>
        <pt x="571" y="159" on="1"/>
        <pt x="571" y="153" on="0"/>
        <pt x="548" y="122" on="0"/>
        <pt x="506" y="81" on="0"/>
        <pt x="447" y="37" on="0"/>
        <pt x="376" y="1" on="0"/>
        <pt x="295" y="-23" on="0"/>
        <pt x="251" y="-23" on="1"/>
        <pt x="202" y="-23" on="0"/>
        <pt x="122" y="12" on="0"/>
        <pt x="65" y="76" on="0"/>
        <pt x="34" y="165" on="0"/>
        <pt x="34" y="220" on="1"/>
        <pt x="34" y="266" on="0"/>
        <pt x="56" y="360" on="0"/>
        <pt x="94" y="449" on="0"/>
        <pt x="143" y="525" on="0"/>
        <pt x="171" y="553" on="1"/>
        <pt x="239" y="621" on="0"/>
        <pt x="411" y="703" on="0"/>
        <pt x="507" y="703" on="1"/>
        <pt x="516" y="703" on="0"/>
        <pt x="547" y="701" on="0"/>
        <pt x="576" y="688" on="0"/>
        <pt x="598" y="660" on="0"/>
        <pt x="598" y="634" on="1"/>
        <pt x="598" y="616" on="0"/>
        <pt x="579" y="567" on="0"/>
        <pt x="557" y="522" on="0"/>
        <pt x="537" y="490" on="0"/>
        <pt x="535" y="488" on="1"/>
        <pt x="529" y="480" on="0"/>
        <pt x="510" y="466" on="0"/>
        <pt x="489" y="455" on="0"/>
        <pt x="469" y="448" on="0"/>
        <pt x="462" y="448" on="1"/>
        <pt x="459" y="448" on="0"/>
        <pt x="450" y="450" on="0"/>
        <pt x="450" y="456" on="1"/>
        <pt x="450" y="461" on="0"/>
        <pt x="456" y="470" on="1"/>
        <pt x="459" y="475" on="0"/>
        <pt x="475" y="502" on="0"/>
        <pt x="492" y="537" on="0"/>
        <pt x="505" y="575" on="0"/>
        <pt x="505" y="589" on="1"/>
        <pt x="505" y="615" on="0"/>
        <pt x="474" y="642" on="0"/>
        <pt x="436" y="642" on="1"/>
        <pt x="360" y="642" on="0"/>
        <pt x="262" y="586" on="0"/>
        <pt x="230" y="548" on="1"/>
        <pt x="201" y="513" on="0"/>
        <pt x="162" y="436" on="0"/>
        <pt x="138" y="362" on="0"/>
        <pt x="127" y="293" on="0"/>
        <pt x="127" y="265" on="1"/>
        <pt x="127" y="210" on="0"/>
        <pt x="158" y="125" on="0"/>
        <pt x="211" y="67" on="0"/>
        <pt x="282" y="38" on="0"/>
        <pt x="322" y="38" on="1"/>
        <pt x="363" y="38" on="0"/>
        <pt x="444" y="73" on="0"/>
        <pt x="478" y="118" on="1"/>
        <pt x="492" y="135" on="0"/>
        <pt x="519" y="154" on="0"/>
        <pt x="541" y="164" on="0"/>
        <pt x="557" y="167" on="0"/>
        <pt x="559" y="167" on="1"/>
        <pt x="561" y="167" on="0"/>
        <pt x="571" y="165" on="0"/>
      </contour>
    </TTGlyph>
    <TTGlyph name="D" xMin="39" yMin="0" xMax="867" yMax="683">
      <contour>
        <pt x="144" y="0" on="1"/>
        <pt x="131" y="0" on="0"/>
        <pt x="118" y="2" on="0"/>
        <pt x="118" y="8" on="1"/>
        <pt x="118" y="13" on="0"/>
        <pt x="140" y="41" on="0"/>
        <pt x="180" y="58" on="1"/>
        <pt x="184" y="60" on="0"/>
        <pt x="188" y="65" on="1"/>
        <pt x="192" y="74" on="0"/>
        <pt x="228" y="166" on="0"/>
        <pt x="272" y="313" on="0"/>
        <pt x="312" y="509" on="0"/>
        <pt x="319" y="622" on="1"/>
        <pt x="259" y="619" on="0"/>
        <pt x="189" y="603" on="0"/>
        <pt x="151" y="581" on="0"/>
        <pt x="137" y="553" on="0"/>
        <pt x="132" y="538" on="1"/>
        <pt x="128" y="525" on="0"/>
        <pt x="105" y="504" on="0"/>
        <pt x="80" y="490" on="0"/>
        <pt x="57" y="483" on="0"/>
        <pt x="51" y="483" on="1"/>
        <pt x="47" y="483" on="0"/>
        <pt x="39" y="486" on="0"/>
        <pt x="39" y="492" on="1"/>
        <pt x="39" y="498" on="0"/>
        <pt x="53" y="533" on="0"/>
        <pt x="89" y="579" on="0"/>
        <pt x="152" y="628" on="0"/>
        <pt x="202" y="648" on="1"/>
        <pt x="235" y="661" on="0"/>
        <pt x="296" y="675" on="0"/>
        <pt x="356" y="682" on="0"/>
        <pt x="419" y="683" on="0"/>
        <pt x="456" y="683" on="1"/>
        <pt x="492" y="683" on="0"/>
        <pt x="566" y="682" on="0"/>
        <pt x="638" y="673" on="0"/>
        <pt x="708" y="656" on="0"/>
        <pt x="741" y="639" on="1"/>
        <pt x="753" y="633" on="0"/>
        <pt x="796" y="608" on="0"/>
        <pt x="837" y="564" on="0"/>
        <pt x="867" y="496" on="0"/>
        <pt x="867" y="448" on="1"/>
        <pt x="867" y="380" on="0"/>
        <pt x="814" y="261" on="0"/>
        <pt x="723" y="161" on="0"/>
        <pt x="603" y="83" on="0"/>
        <pt x="468" y="29" on="0"/>
        <pt x="326" y="0" on="0"/>
        <pt x="260" y="0" on="1"/>
      </contour>
      <contour>
        <pt x="324" y="61" on="1"/>
        <pt x="410" y="61" on="0"/>
        <pt x="572" y="105" on="0"/>
        <pt x="698" y="191" on="0"/>
        <pt x="774" y="319" on="0"/>
        <pt x="774" y="403" on="1"/>
        <pt x="774" y="458" on="0"/>
        <pt x="732" y="533" on="0"/>
        <pt x="665" y="581" on="0"/>
        <pt x="582" y="608" on="0"/>
        <pt x="501" y="620" on="0"/>
        <pt x="430" y="622" on="0"/>
        <pt x="408" y="622" on="1"/>
        <pt x="401" y="524" on="0"/>
        <pt x="363" y="346" on="0"/>
        <pt x="318" y="200" on="0"/>
        <pt x="274" y="91" on="0"/>
        <pt x="261" y="61" on="1"/>
      </contour>
    </TTGlyph>
    <TTGlyph name="E" xMin="48" yMin="-20" xMax="626" yMax="703">
      <contour>
        <pt x="265" y="362" on="1"/>
        <pt x="247" y="368" on="0"/>
        <pt x="212" y="386" on="0"/>
        <pt x="184" y="413" on="0"/>
        <pt x="166" y="449" on="0"/>
        <pt x="166" y="473" on="1"/>
        <pt x="166" y="517" on="0"/>
        <pt x="224" y="600" on="0"/>
        <pt x="318" y="664" on="0"/>
        <pt x="438" y="703" on="0"/>
        <pt x="499" y="703" on="1"/>
        <pt x="524" y="703" on="0"/>
        <pt x="570" y="697" on="0"/>
        <pt x="605" y="681" on="0"/>
        <pt x="626" y="654" on="0"/>
        <pt x="626" y="633" on="1"/>
        <pt x="626" y="611" on="0"/>
        <pt x="604" y="575" on="0"/>
        <pt x="574" y="549" on="0"/>
        <pt x="542" y="536" on="0"/>
        <pt x="531" y="536" on="1"/>
        <pt x="527" y="536" on="0"/>
        <pt x="518" y="539" on="0"/>
        <pt x="518" y="544" on="1"/>
        <pt x="518" y="549" on="0"/>
        <pt x="524" y="557" on="1"/>
        <pt x="533" y="571" on="0"/>
        <pt x="533" y="588" on="1"/>
        <pt x="533" y="600" on="0"/>
        <pt x="525" y="616" on="0"/>
        <pt x="513" y="626" on="0"/>
        <pt x="501" y="631" on="0"/>
        <pt x="496" y="632" on="1"/>
        <pt x="476" y="638" on="0"/>
        <pt x="439" y="642" on="0"/>
        <pt x="428" y="642" on="1"/>
        <pt x="416" y="642" on="0"/>
        <pt x="385" y="639" on="0"/>
        <pt x="351" y="632" on="0"/>
        <pt x="318" y="620" on="0"/>
        <pt x="305" y="611" on="1"/>
        <pt x="288" y="599" on="0"/>
        <pt x="259" y="549" on="0"/>
        <pt x="259" y="518" on="1"/>
        <pt x="259" y="497" on="0"/>
        <pt x="279" y="458" on="0"/>
        <pt x="324" y="428" on="0"/>
        <pt x="398" y="408" on="0"/>
        <pt x="452" y="406" on="1"/>
        <pt x="453" y="406" on="0"/>
        <pt x="463" y="403" on="0"/>
        <pt x="463" y="398" on="1"/>
        <pt x="463" y="388" on="0"/>
        <pt x="438" y="367" on="0"/>
        <pt x="430" y="362" on="1"/>
        <pt x="410" y="350" on="0"/>
        <pt x="386" y="345" on="0"/>
        <pt x="372" y="345" on="1"/>
        <pt x="309" y="343" on="0"/>
        <pt x="221" y="299" on="0"/>
        <pt x="166" y="238" on="0"/>
        <pt x="141" y="173" on="0"/>
        <pt x="141" y="150" on="1"/>
        <pt x="141" y="118" on="0"/>
        <pt x="177" y="76" on="0"/>
        <pt x="229" y="51" on="0"/>
        <pt x="287" y="41" on="0"/>
        <pt x="310" y="41" on="1"/>
        <pt x="345" y="41" on="0"/>
        <pt x="399" y="58" on="0"/>
        <pt x="439" y="83" on="0"/>
        <pt x="468" y="110" on="0"/>
        <pt x="477" y="120" on="1"/>
        <pt x="492" y="138" on="0"/>
        <pt x="520" y="157" on="0"/>
        <pt x="542" y="166" on="0"/>
        <pt x="555" y="167" on="0"/>
        <pt x="556" y="167" on="1"/>
        <pt x="558" y="167" on="0"/>
        <pt x="568" y="165" on="0"/>
        <pt x="568" y="159" on="1"/>
        <pt x="568" y="154" on="0"/>
        <pt x="545" y="124" on="0"/>
        <pt x="502" y="84" on="0"/>
        <pt x="442" y="40" on="0"/>
        <pt x="369" y="4" on="0"/>
        <pt x="284" y="-20" on="0"/>
        <pt x="239" y="-20" on="1"/>
        <pt x="201" y="-20" on="0"/>
        <pt x="132" y="-4" on="0"/>
        <pt x="79" y="27" on="0"/>
        <pt x="48" y="74" on="0"/>
        <pt x="48" y="105" on="1"/>
        <pt x="48" y="124" on="0"/>
        <pt x="67" y="185" on="0"/>
        <pt x="116" y="256" on="0"/>
        <pt x="200" y="330" on="0"/>
      </contour>
    </TTGlyph>
    <TTGlyph name="F" xMin="33" yMin="-33" xMax="918" yMax="684">
      <contour>
        <pt x="918" y="645" on="1"/>
        <pt x="918" y="632" on="0"/>
        <pt x="896" y="610" on="0"/>
        <pt x="868" y="594" on="0"/>
        <pt x="842" y="585" on="0"/>
        <pt x="837" y="585" on="1"/>
        <pt x="824" y="585" on="0"/>
        <pt x="824" y="593" on="1"/>
        <pt x="824" y="595" on="0"/>
        <pt x="825" y="598" on="0"/>
        <pt x="825" y="600" on="1"/>
        <pt x="825" y="614" on="0"/>
        <pt x="781" y="623" on="0"/>
        <pt x="752" y="623" on="1"/>
        <pt x="547" y="623" on="1"/>
        <pt x="533" y="556" on="0"/>
        <pt x="497" y="426" on="0"/>
        <pt x="471" y="363" on="1"/>
        <pt x="750" y="363" on="1"/>
        <pt x="757" y="363" on="0"/>
        <pt x="757" y="355" on="1"/>
        <pt x="757" y="343" on="0"/>
        <pt x="739" y="320" on="0"/>
        <pt x="712" y="302" on="0"/>
        <pt x="683" y="291" on="0"/>
        <pt x="672" y="291" on="1"/>
        <pt x="665" y="291" on="0"/>
        <pt x="662" y="299" on="1"/>
        <pt x="662" y="302" on="1"/>
        <pt x="447" y="302" on="1"/>
        <pt x="437" y="278" on="0"/>
        <pt x="409" y="213" on="0"/>
        <pt x="377" y="146" on="0"/>
        <pt x="344" y="83" on="0"/>
        <pt x="330" y="62" on="1"/>
        <pt x="318" y="44" on="0"/>
        <pt x="280" y="10" on="0"/>
        <pt x="235" y="-17" on="0"/>
        <pt x="185" y="-33" on="0"/>
        <pt x="161" y="-33" on="1"/>
        <pt x="126" y="-33" on="0"/>
        <pt x="77" y="-10" on="0"/>
        <pt x="47" y="19" on="0"/>
        <pt x="33" y="44" on="0"/>
        <pt x="33" y="46" on="1"/>
        <pt x="33" y="53" on="0"/>
        <pt x="50" y="72" on="0"/>
        <pt x="76" y="89" on="0"/>
        <pt x="104" y="100" on="0"/>
        <pt x="115" y="100" on="1"/>
        <pt x="121" y="100" on="0"/>
        <pt x="125" y="97" on="1"/>
        <pt x="131" y="87" on="0"/>
        <pt x="145" y="63" on="0"/>
        <pt x="170" y="42" on="0"/>
        <pt x="208" y="29" on="0"/>
        <pt x="238" y="29" on="1"/>
        <pt x="245" y="36" on="0"/>
        <pt x="269" y="77" on="0"/>
        <pt x="298" y="133" on="0"/>
        <pt x="328" y="199" on="0"/>
        <pt x="356" y="264" on="0"/>
        <pt x="378" y="320" on="0"/>
        <pt x="384" y="338" on="1"/>
        <pt x="395" y="370" on="0"/>
        <pt x="414" y="428" on="0"/>
        <pt x="433" y="493" on="0"/>
        <pt x="452" y="571" on="0"/>
        <pt x="463" y="623" on="1"/>
        <pt x="367" y="623" on="1"/>
        <pt x="349" y="623" on="0"/>
        <pt x="303" y="622" on="0"/>
        <pt x="290" y="620" on="1"/>
        <pt x="277" y="609" on="0"/>
        <pt x="239" y="588" on="0"/>
        <pt x="222" y="588" on="1"/>
        <pt x="217" y="588" on="0"/>
        <pt x="210" y="591" on="0"/>
        <pt x="210" y="596" on="1"/>
        <pt x="210" y="600" on="0"/>
        <pt x="213" y="607" on="0"/>
        <pt x="215" y="610" on="1"/>
        <pt x="220" y="620" on="0"/>
        <pt x="247" y="646" on="0"/>
        <pt x="289" y="668" on="0"/>
        <pt x="346" y="684" on="0"/>
        <pt x="382" y="684" on="1"/>
        <pt x="845" y="684" on="1"/>
        <pt x="854" y="684" on="0"/>
        <pt x="879" y="681" on="0"/>
        <pt x="902" y="672" on="0"/>
        <pt x="918" y="657" on="0"/>
      </contour>
    </TTGlyph>
    <TTGlyph name="G" xMin="64" yMin="-117" xMax="669" yMax="703">
      <contour>
        <pt x="502" y="160" on="1"/>
        <pt x="452" y="121" on="0"/>
        <pt x="329" y="68" on="0"/>
        <pt x="266" y="68" on="1"/>
        <pt x="215" y="68" on="0"/>
        <pt x="139" y="103" on="0"/>
        <pt x="89" y="163" on="0"/>
        <pt x="64" y="241" on="0"/>
        <pt x="64" y="284" on="1"/>
        <pt x="64" y="317" on="0"/>
        <pt x="80" y="393" on="0"/>
        <pt x="113" y="470" on="0"/>
        <pt x="164" y="544" on="0"/>
        <pt x="199" y="575" on="1"/>
        <pt x="278" y="645" on="0"/>
        <pt x="448" y="703" on="0"/>
        <pt x="526" y="703" on="1"/>
        <pt x="597" y="703" on="0"/>
        <pt x="669" y="670" on="0"/>
        <pt x="669" y="632" on="1"/>
        <pt x="669" y="617" on="0"/>
        <pt x="642" y="562" on="0"/>
        <pt x="600" y="508" on="0"/>
        <pt x="549" y="468" on="0"/>
        <pt x="525" y="468" on="1"/>
        <pt x="522" y="468" on="0"/>
        <pt x="512" y="470" on="0"/>
        <pt x="512" y="476" on="1"/>
        <pt x="512" y="483" on="0"/>
        <pt x="523" y="494" on="1"/>
        <pt x="524" y="496" on="0"/>
        <pt x="541" y="516" on="0"/>
        <pt x="560" y="544" on="0"/>
        <pt x="576" y="575" on="0"/>
        <pt x="576" y="587" on="1"/>
        <pt x="576" y="600" on="0"/>
        <pt x="567" y="616" on="0"/>
        <pt x="555" y="626" on="0"/>
        <pt x="541" y="631" on="0"/>
        <pt x="536" y="632" on="1"/>
        <pt x="513" y="638" on="0"/>
        <pt x="472" y="642" on="0"/>
        <pt x="455" y="642" on="1"/>
        <pt x="408" y="642" on="0"/>
        <pt x="339" y="625" on="0"/>
        <pt x="290" y="601" on="0"/>
        <pt x="259" y="574" on="0"/>
        <pt x="249" y="564" on="1"/>
        <pt x="234" y="548" on="0"/>
        <pt x="201" y="499" on="0"/>
        <pt x="174" y="438" on="0"/>
        <pt x="157" y="367" on="0"/>
        <pt x="157" y="329" on="1"/>
        <pt x="157" y="284" on="0"/>
        <pt x="183" y="211" on="0"/>
        <pt x="230" y="158" on="0"/>
        <pt x="296" y="129" on="0"/>
        <pt x="336" y="129" on="1"/>
        <pt x="406" y="129" on="0"/>
        <pt x="519" y="226" on="0"/>
        <pt x="547" y="319" on="1"/>
        <pt x="550" y="330" on="0"/>
        <pt x="571" y="349" on="0"/>
        <pt x="596" y="364" on="0"/>
        <pt x="620" y="372" on="0"/>
        <pt x="627" y="372" on="1"/>
        <pt x="632" y="372" on="0"/>
        <pt x="640" y="369" on="0"/>
        <pt x="640" y="363" on="1"/>
        <pt x="640" y="361" on="0"/>
        <pt x="632" y="327" on="0"/>
        <pt x="619" y="281" on="0"/>
        <pt x="604" y="230" on="0"/>
        <pt x="598" y="210" on="1"/>
        <pt x="587" y="177" on="0"/>
        <pt x="560" y="106" on="0"/>
        <pt x="538" y="67" on="1"/>
        <pt x="512" y="19" on="0"/>
        <pt x="446" y="-51" on="0"/>
        <pt x="374" y="-96" on="0"/>
        <pt x="299" y="-117" on="0"/>
        <pt x="263" y="-117" on="1"/>
        <pt x="226" y="-117" on="0"/>
        <pt x="161" y="-105" on="0"/>
        <pt x="111" y="-90" on="0"/>
        <pt x="82" y="-75" on="0"/>
        <pt x="82" y="-71" on="1"/>
        <pt x="82" y="-64" on="0"/>
        <pt x="99" y="-46" on="0"/>
        <pt x="124" y="-30" on="0"/>
        <pt x="152" y="-18" on="0"/>
        <pt x="162" y="-18" on="1"/>
        <pt x="164" y="-18" on="0"/>
        <pt x="169" y="-19" on="0"/>
        <pt x="175" y="-22" on="1"/>
        <pt x="204" y="-35" on="0"/>
        <pt x="258" y="-49" on="0"/>
        <pt x="301" y="-55" on="0"/>
        <pt x="330" y="-56" on="0"/>
        <pt x="334" y="-56" on="1"/>
        <pt x="348" y="-56" on="0"/>
        <pt x="372" y="-53" on="0"/>
        <pt x="396" y="-39" on="0"/>
        <pt x="423" y="-10" on="0"/>
        <pt x="439" y="16" on="1"/>
        <pt x="450" y="34" on="0"/>
        <pt x="469" y="73" on="0"/>
        <pt x="485" y="112" on="0"/>
        <pt x="498" y="147" on="0"/>
      </contour>
    </TTGlyph>
    <TTGlyph name="H" xMin="39" yMin="-50" xMax="916" yMax="683">
      <contour>
        <pt x="687" y="338" on="1"/>
        <pt x="706" y="404" on="0"/>
        <pt x="743" y="513" on="0"/>
        <pt x="773" y="593" on="0"/>
        <pt x="791" y="638" on="0"/>
        <pt x="792" y="639" on="1"/>
        <pt x="796" y="646" on="0"/>
        <pt x="815" y="662" on="0"/>
        <pt x="838" y="675" on="0"/>
        <pt x="861" y="683" on="0"/>
        <pt x="868" y="683" on="1"/>
        <pt x="873" y="683" on="0"/>
        <pt x="881" y="680" on="0"/>
        <pt x="881" y="674" on="1"/>
        <pt x="881" y="672" on="0"/>
        <pt x="880" y="667" on="0"/>
        <pt x="875" y="657" on="1"/>
        <pt x="817" y="509" on="0"/>
        <pt x="753" y="290" on="0"/>
        <pt x="722" y="143" on="0"/>
        <pt x="716" y="65" on="0"/>
        <pt x="716" y="58" on="1"/>
        <pt x="716" y="38" on="0"/>
        <pt x="740" y="11" on="0"/>
        <pt x="763" y="11" on="1"/>
        <pt x="772" y="11" on="0"/>
        <pt x="782" y="12" on="0"/>
        <pt x="798" y="14" on="1"/>
        <pt x="815" y="16" on="0"/>
        <pt x="822" y="20" on="0"/>
        <pt x="824" y="27" on="1"/>
        <pt x="828" y="38" on="0"/>
        <pt x="849" y="57" on="0"/>
        <pt x="874" y="71" on="0"/>
        <pt x="898" y="79" on="0"/>
        <pt x="905" y="79" on="1"/>
        <pt x="916" y="79" on="0"/>
        <pt x="916" y="70" on="1"/>
        <pt x="916" y="58" on="0"/>
        <pt x="888" y="17" on="0"/>
        <pt x="832" y="-22" on="0"/>
        <pt x="748" y="-50" on="0"/>
        <pt x="692" y="-50" on="1"/>
        <pt x="671" y="-50" on="0"/>
        <pt x="645" y="-37" on="0"/>
        <pt x="629" y="-18" on="0"/>
        <pt x="623" y="4" on="0"/>
        <pt x="623" y="13" on="1"/>
        <pt x="623" y="17" on="0"/>
        <pt x="630" y="93" on="0"/>
        <pt x="639" y="144" on="1"/>
        <pt x="641" y="154" on="0"/>
        <pt x="656" y="228" on="0"/>
        <pt x="673" y="287" on="1"/>
        <pt x="660" y="279" on="0"/>
        <pt x="631" y="277" on="0"/>
        <pt x="624" y="277" on="1"/>
        <pt x="370" y="277" on="1"/>
        <pt x="356" y="228" on="0"/>
        <pt x="325" y="137" on="0"/>
        <pt x="299" y="65" on="0"/>
        <pt x="280" y="18" on="0"/>
        <pt x="278" y="13" on="1"/>
        <pt x="272" y="-1" on="0"/>
        <pt x="250" y="-21" on="0"/>
        <pt x="225" y="-34" on="0"/>
        <pt x="203" y="-41" on="0"/>
        <pt x="197" y="-41" on="1"/>
        <pt x="189" y="-41" on="0"/>
        <pt x="185" y="-35" on="0"/>
        <pt x="185" y="-33" on="1"/>
        <pt x="185" y="-31" on="0"/>
        <pt x="186" y="-25" on="0"/>
        <pt x="191" y="-14" on="1"/>
        <pt x="223" y="67" on="0"/>
        <pt x="275" y="222" on="0"/>
        <pt x="290" y="277" on="1"/>
        <pt x="212" y="277" on="1"/>
        <pt x="199" y="277" on="0"/>
        <pt x="186" y="279" on="0"/>
        <pt x="186" y="285" on="1"/>
        <pt x="186" y="292" on="0"/>
        <pt x="202" y="310" on="0"/>
        <pt x="226" y="326" on="0"/>
        <pt x="254" y="338" on="0"/>
        <pt x="265" y="338" on="1"/>
        <pt x="307" y="338" on="1"/>
        <pt x="313" y="361" on="0"/>
        <pt x="326" y="418" on="0"/>
        <pt x="334" y="462" on="1"/>
        <pt x="337" y="480" on="0"/>
        <pt x="342" y="518" on="0"/>
        <pt x="345" y="549" on="0"/>
        <pt x="347" y="571" on="0"/>
        <pt x="347" y="573" on="1"/>
        <pt x="347" y="589" on="0"/>
        <pt x="325" y="622" on="0"/>
        <pt x="293" y="622" on="1"/>
        <pt x="255" y="622" on="0"/>
        <pt x="203" y="607" on="0"/>
        <pt x="167" y="582" on="0"/>
        <pt x="143" y="551" on="0"/>
        <pt x="133" y="535" on="1"/>
        <pt x="122" y="518" on="0"/>
        <pt x="94" y="497" on="0"/>
        <pt x="70" y="486" on="0"/>
        <pt x="53" y="483" on="0"/>
        <pt x="51" y="483" on="1"/>
        <pt x="42" y="483" on="0"/>
        <pt x="39" y="490" on="0"/>
        <pt x="39" y="491" on="1"/>
        <pt x="39" y="498" on="0"/>
        <pt x="81" y="559" on="0"/>
        <pt x="163" y="628" on="0"/>
        <pt x="285" y="683" on="0"/>
        <pt x="364" y="683" on="1"/>
        <pt x="389" y="683" on="0"/>
        <pt x="419" y="669" on="0"/>
        <pt x="435" y="648" on="0"/>
        <pt x="440" y="626" on="0"/>
        <pt x="440" y="618" on="1"/>
        <pt x="440" y="617" on="0"/>
        <pt x="434" y="548" on="0"/>
        <pt x="425" y="496" on="1"/>
        <pt x="420" y="466" on="0"/>
        <pt x="402" y="389" on="0"/>
        <pt x="388" y="338" on="1"/>
      </contour>
    </TTGlyph>
    <TTGlyph name="I" xMin="5" yMin="0" xMax="715" yMax="683">
      <contour>
        <pt x="500" y="622" on="1"/>
        <pt x="483" y="601" on="0"/>
        <pt x="454" y="538" on="0"/>
        <pt x="430" y="467" on="0"/>
        <pt x="411" y="393" on="0"/>
        <pt x="403" y="361" on="1"/>
        <pt x="390" y="308" on="0"/>
        <pt x="364" y="220" on="0"/>
        <pt x="332" y="146" on="0"/>
        <pt x="292" y="86" on="0"/>
        <pt x="264" y="61" on="1"/>
        <pt x="476" y="61" on="1"/>
        <pt x="482" y="61" on="0"/>
        <pt x="506" y="62" on="0"/>
        <pt x="520" y="64" on="1"/>
        <pt x="530" y="66" on="0"/>
        <pt x="535" y="71" on="0"/>
        <pt x="539" y="82" on="1"/>
        <pt x="543" y="93" on="0"/>
        <pt x="564" y="111" on="0"/>
        <pt x="588" y="125" on="0"/>
        <pt x="612" y="133" on="0"/>
        <pt x="619" y="133" on="1"/>
        <pt x="628" y="133" on="0"/>
        <pt x="631" y="126" on="0"/>
        <pt x="631" y="125" on="1"/>
        <pt x="631" y="111" on="0"/>
        <pt x="600" y="69" on="0"/>
        <pt x="543" y="29" on="0"/>
        <pt x="462" y="0" on="0"/>
        <pt x="412" y="0" on="1"/>
        <pt x="30" y="0" on="1"/>
        <pt x="16" y="0" on="0"/>
        <pt x="5" y="2" on="0"/>
        <pt x="5" y="8" on="1"/>
        <pt x="5" y="19" on="0"/>
        <pt x="32" y="40" on="0"/>
        <pt x="40" y="45" on="1"/>
        <pt x="60" y="57" on="0"/>
        <pt x="85" y="61" on="0"/>
        <pt x="99" y="61" on="1"/>
        <pt x="173" y="61" on="1"/>
        <pt x="193" y="61" on="0"/>
        <pt x="206" y="63" on="0"/>
        <pt x="213" y="71" on="1"/>
        <pt x="232" y="93" on="0"/>
        <pt x="261" y="153" on="0"/>
        <pt x="285" y="222" on="0"/>
        <pt x="305" y="295" on="0"/>
        <pt x="314" y="331" on="1"/>
        <pt x="325" y="375" on="0"/>
        <pt x="348" y="459" on="0"/>
        <pt x="377" y="535" on="0"/>
        <pt x="414" y="599" on="0"/>
        <pt x="438" y="622" on="1"/>
        <pt x="325" y="622" on="1"/>
        <pt x="283" y="622" on="0"/>
        <pt x="220" y="616" on="0"/>
        <pt x="217" y="616" on="1"/>
        <pt x="193" y="613" on="0"/>
        <pt x="166" y="606" on="0"/>
        <pt x="151" y="596" on="0"/>
        <pt x="143" y="579" on="0"/>
        <pt x="139" y="567" on="1"/>
        <pt x="136" y="558" on="0"/>
        <pt x="116" y="539" on="0"/>
        <pt x="92" y="525" on="0"/>
        <pt x="68" y="516" on="0"/>
        <pt x="60" y="516" on="1"/>
        <pt x="55" y="516" on="0"/>
        <pt x="47" y="519" on="0"/>
        <pt x="47" y="525" on="1"/>
        <pt x="47" y="532" on="0"/>
        <pt x="60" y="562" on="0"/>
        <pt x="90" y="599" on="0"/>
        <pt x="141" y="637" on="0"/>
        <pt x="179" y="652" on="1"/>
        <pt x="188" y="655" on="0"/>
        <pt x="219" y="666" on="0"/>
        <pt x="269" y="676" on="0"/>
        <pt x="341" y="683" on="0"/>
        <pt x="389" y="683" on="1"/>
        <pt x="690" y="683" on="1"/>
        <pt x="704" y="683" on="0"/>
        <pt x="715" y="681" on="0"/>
        <pt x="715" y="675" on="1"/>
        <pt x="715" y="669" on="0"/>
        <pt x="706" y="657" on="0"/>
        <pt x="694" y="647" on="0"/>
        <pt x="682" y="639" on="0"/>
        <pt x="680" y="638" on="1"/>
        <pt x="660" y="626" on="0"/>
        <pt x="635" y="622" on="0"/>
        <pt x="621" y="622" on="1"/>
      </contour>
    </TTGlyph>
    <TTGlyph name="Ifractur" xMin="77" yMin="-10" xMax="783" yMax="704">
      <contour>
        <pt x="335" y="333" on="1"/>
        <pt x="335" y="322" on="0"/>
        <pt x="321" y="319" on="0"/>
        <pt x="314" y="319" on="1"/>
        <pt x="279" y="319" on="0"/>
        <pt x="196" y="342" on="0"/>
        <pt x="125" y="389" on="0"/>
        <pt x="77" y="462" on="0"/>
        <pt x="77" y="512" on="1"/>
        <pt x="77" y="554" on="0"/>
        <pt x="116" y="625" on="0"/>
        <pt x="182" y="676" on="0"/>
        <pt x="270" y="704" on="0"/>
        <pt x="319" y="704" on="1"/>
        <pt x="345" y="704" on="0"/>
        <pt x="418" y="692" on="0"/>
        <pt x="500" y="656" on="0"/>
        <pt x="585" y="588" on="0"/>
        <pt x="623" y="531" on="1"/>
        <pt x="636" y="511" on="0"/>
        <pt x="650" y="503" on="0"/>
        <pt x="661" y="503" on="1"/>
        <pt x="663" y="503" on="0"/>
        <pt x="689" y="504" on="0"/>
        <pt x="719" y="512" on="0"/>
        <pt x="744" y="529" on="0"/>
        <pt x="747" y="545" on="1"/>
        <pt x="749" y="554" on="0"/>
        <pt x="753" y="561" on="0"/>
        <pt x="765" y="561" on="1"/>
        <pt x="771" y="561" on="0"/>
        <pt x="783" y="557" on="0"/>
        <pt x="783" y="546" on="1"/>
        <pt x="783" y="518" on="0"/>
        <pt x="723" y="475" on="0"/>
        <pt x="659" y="475" on="1"/>
        <pt x="616" y="475" on="0"/>
        <pt x="530" y="516" on="0"/>
        <pt x="483" y="567" on="1"/>
        <pt x="453" y="599" on="0"/>
        <pt x="409" y="641" on="0"/>
        <pt x="371" y="666" on="0"/>
        <pt x="336" y="676" on="0"/>
        <pt x="315" y="676" on="1"/>
        <pt x="278" y="676" on="0"/>
        <pt x="205" y="653" on="0"/>
        <pt x="148" y="611" on="0"/>
        <pt x="113" y="550" on="0"/>
        <pt x="113" y="512" on="1"/>
        <pt x="113" y="486" on="0"/>
        <pt x="135" y="430" on="0"/>
        <pt x="184" y="383" on="0"/>
        <pt x="263" y="350" on="0"/>
        <pt x="321" y="347" on="1"/>
        <pt x="326" y="347" on="0"/>
        <pt x="335" y="341" on="0"/>
      </contour>
      <contour>
        <pt x="152" y="186" on="1"/>
        <pt x="181" y="186" on="0"/>
        <pt x="228" y="173" on="0"/>
        <pt x="274" y="149" on="0"/>
        <pt x="320" y="115" on="0"/>
        <pt x="347" y="94" on="1"/>
        <pt x="355" y="88" on="0"/>
        <pt x="388" y="62" on="0"/>
        <pt x="427" y="37" on="0"/>
        <pt x="466" y="18" on="0"/>
        <pt x="481" y="18" on="1"/>
        <pt x="489" y="18" on="0"/>
        <pt x="532" y="30" on="0"/>
        <pt x="578" y="58" on="0"/>
        <pt x="614" y="104" on="0"/>
        <pt x="614" y="138" on="1"/>
        <pt x="614" y="156" on="0"/>
        <pt x="596" y="188" on="0"/>
        <pt x="570" y="214" on="1"/>
        <pt x="543" y="241" on="0"/>
        <pt x="514" y="284" on="0"/>
        <pt x="514" y="313" on="1"/>
        <pt x="514" y="341" on="0"/>
        <pt x="539" y="385" on="0"/>
        <pt x="579" y="415" on="0"/>
        <pt x="630" y="431" on="0"/>
        <pt x="656" y="431" on="1"/>
        <pt x="685" y="431" on="0"/>
        <pt x="731" y="415" on="0"/>
        <pt x="765" y="389" on="0"/>
        <pt x="783" y="355" on="0"/>
        <pt x="783" y="338" on="1"/>
        <pt x="783" y="326" on="0"/>
        <pt x="773" y="322" on="0"/>
        <pt x="765" y="322" on="1"/>
        <pt x="753" y="322" on="0"/>
        <pt x="748" y="329" on="0"/>
        <pt x="747" y="338" on="1"/>
        <pt x="744" y="359" on="0"/>
        <pt x="722" y="384" on="0"/>
        <pt x="694" y="398" on="0"/>
        <pt x="666" y="403" on="0"/>
        <pt x="658" y="403" on="1"/>
        <pt x="640" y="403" on="0"/>
        <pt x="620" y="381" on="0"/>
        <pt x="610" y="352" on="0"/>
        <pt x="607" y="323" on="0"/>
        <pt x="607" y="317" on="1"/>
        <pt x="607" y="308" on="0"/>
        <pt x="609" y="293" on="0"/>
        <pt x="618" y="274" on="0"/>
        <pt x="638" y="250" on="0"/>
        <pt x="656" y="232" on="1"/>
        <pt x="674" y="213" on="0"/>
        <pt x="707" y="169" on="0"/>
        <pt x="707" y="138" on="1"/>
        <pt x="707" y="103" on="0"/>
        <pt x="670" y="44" on="0"/>
        <pt x="638" y="24" on="1"/>
        <pt x="617" y="11" on="0"/>
        <pt x="578" y="-3" on="0"/>
        <pt x="539" y="-9" on="0"/>
        <pt x="499" y="-10" on="0"/>
        <pt x="478" y="-10" on="1"/>
        <pt x="446" y="-10" on="0"/>
        <pt x="401" y="-7" on="0"/>
        <pt x="354" y="10" on="0"/>
        <pt x="296" y="47" on="0"/>
        <pt x="252" y="81" on="1"/>
        <pt x="225" y="102" on="0"/>
        <pt x="184" y="130" on="0"/>
        <pt x="148" y="148" on="0"/>
        <pt x="114" y="157" on="0"/>
        <pt x="94" y="158" on="1"/>
        <pt x="88" y="159" on="0"/>
        <pt x="77" y="162" on="0"/>
        <pt x="77" y="172" on="1"/>
        <pt x="77" y="183" on="0"/>
        <pt x="92" y="186" on="0"/>
        <pt x="106" y="186" on="1"/>
      </contour>
    </TTGlyph>
    <TTGlyph name="J" xMin="66" yMin="-117" xMax="927" yMax="683">
      <contour>
        <pt x="902" y="683" on="1"/>
        <pt x="916" y="683" on="0"/>
        <pt x="927" y="681" on="0"/>
        <pt x="927" y="675" on="1"/>
        <pt x="927" y="670" on="0"/>
        <pt x="914" y="653" on="0"/>
        <pt x="891" y="636" on="0"/>
        <pt x="860" y="623" on="0"/>
        <pt x="842" y="622" on="1"/>
        <pt x="820" y="621" on="0"/>
        <pt x="802" y="611" on="0"/>
        <pt x="790" y="599" on="1"/>
        <pt x="760" y="569" on="0"/>
        <pt x="711" y="467" on="0"/>
        <pt x="671" y="353" on="0"/>
        <pt x="641" y="243" on="0"/>
        <pt x="631" y="204" on="1"/>
        <pt x="624" y="176" on="0"/>
        <pt x="613" y="136" on="0"/>
        <pt x="601" y="103" on="0"/>
        <pt x="584" y="74" on="0"/>
        <pt x="572" y="56" on="1"/>
        <pt x="545" y="19" on="0"/>
        <pt x="472" y="-45" on="0"/>
        <pt x="389" y="-91" on="0"/>
        <pt x="300" y="-117" on="0"/>
        <pt x="258" y="-117" on="1"/>
        <pt x="217" y="-117" on="0"/>
        <pt x="147" y="-95" on="0"/>
        <pt x="95" y="-54" on="0"/>
        <pt x="66" y="2" on="0"/>
        <pt x="66" y="36" on="1"/>
        <pt x="66" y="69" on="0"/>
        <pt x="83" y="93" on="0"/>
        <pt x="91" y="100" on="1"/>
        <pt x="108" y="114" on="0"/>
        <pt x="144" y="128" on="0"/>
        <pt x="153" y="128" on="1"/>
        <pt x="156" y="128" on="0"/>
        <pt x="164" y="124" on="0"/>
        <pt x="164" y="119" on="1"/>
        <pt x="164" y="115" on="0"/>
        <pt x="159" y="96" on="0"/>
        <pt x="159" y="81" on="1"/>
        <pt x="159" y="47" on="0"/>
        <pt x="189" y="-4" on="0"/>
        <pt x="237" y="-39" on="0"/>
        <pt x="298" y="-56" on="0"/>
        <pt x="329" y="-56" on="1"/>
        <pt x="374" y="-56" on="0"/>
        <pt x="430" y="-28" on="0"/>
        <pt x="448" y="-12" on="1"/>
        <pt x="471" y="7" on="0"/>
        <pt x="500" y="47" on="0"/>
        <pt x="519" y="88" on="0"/>
        <pt x="531" y="130" on="0"/>
        <pt x="536" y="151" on="1"/>
        <pt x="561" y="252" on="0"/>
        <pt x="607" y="400" on="0"/>
        <pt x="657" y="510" on="0"/>
        <pt x="716" y="590" on="0"/>
        <pt x="755" y="622" on="1"/>
        <pt x="611" y="622" on="1"/>
        <pt x="582" y="622" on="0"/>
        <pt x="517" y="611" on="0"/>
        <pt x="457" y="580" on="0"/>
        <pt x="408" y="526" on="0"/>
        <pt x="394" y="483" on="1"/>
        <pt x="390" y="469" on="0"/>
        <pt x="367" y="448" on="0"/>
        <pt x="342" y="434" on="0"/>
        <pt x="318" y="427" on="0"/>
        <pt x="313" y="427" on="1"/>
        <pt x="310" y="427" on="0"/>
        <pt x="301" y="430" on="0"/>
        <pt x="301" y="435" on="1"/>
        <pt x="301" y="438" on="0"/>
        <pt x="321" y="497" on="0"/>
        <pt x="353" y="535" on="1"/>
        <pt x="379" y="566" on="0"/>
        <pt x="452" y="620" on="0"/>
        <pt x="537" y="660" on="0"/>
        <pt x="629" y="683" on="0"/>
        <pt x="675" y="683" on="1"/>
      </contour>
    </TTGlyph>
    <TTGlyph name="K" xMin="51" yMin="-20" xMax="818" yMax="703">
      <contour>
        <pt x="215" y="628" on="1"/>
        <pt x="199" y="620" on="0"/>
        <pt x="160" y="603" on="0"/>
        <pt x="151" y="603" on="1"/>
        <pt x="148" y="603" on="0"/>
        <pt x="138" y="605" on="0"/>
        <pt x="138" y="611" on="1"/>
        <pt x="138" y="626" on="0"/>
        <pt x="189" y="656" on="0"/>
        <pt x="234" y="679" on="1"/>
        <pt x="260" y="693" on="0"/>
        <pt x="285" y="703" on="0"/>
        <pt x="295" y="703" on="1"/>
        <pt x="305" y="703" on="0"/>
        <pt x="308" y="694" on="0"/>
        <pt x="308" y="683" on="1"/>
        <pt x="308" y="629" on="0"/>
        <pt x="291" y="508" on="0"/>
        <pt x="262" y="385" on="0"/>
        <pt x="227" y="264" on="0"/>
        <pt x="190" y="156" on="0"/>
        <pt x="157" y="66" on="0"/>
        <pt x="145" y="36" on="1"/>
        <pt x="138" y="20" on="0"/>
        <pt x="113" y="-1" on="0"/>
        <pt x="88" y="-14" on="0"/>
        <pt x="66" y="-20" on="0"/>
        <pt x="63" y="-20" on="1"/>
        <pt x="58" y="-20" on="0"/>
        <pt x="51" y="-17" on="0"/>
        <pt x="51" y="-11" on="1"/>
        <pt x="51" y="-9" on="0"/>
        <pt x="53" y="-1" on="0"/>
        <pt x="61" y="17" on="1"/>
        <pt x="77" y="58" on="0"/>
        <pt x="128" y="200" on="0"/>
        <pt x="177" y="368" on="0"/>
        <pt x="214" y="548" on="0"/>
      </contour>
      <contour>
        <pt x="818" y="131" on="1"/>
        <pt x="818" y="131" on="0"/>
        <pt x="814" y="110" on="0"/>
        <pt x="796" y="79" on="0"/>
        <pt x="760" y="40" on="0"/>
        <pt x="729" y="22" on="1"/>
        <pt x="687" y="-2" on="0"/>
        <pt x="600" y="-20" on="0"/>
        <pt x="570" y="-20" on="1"/>
        <pt x="550" y="-20" on="0"/>
        <pt x="509" y="-4" on="0"/>
        <pt x="478" y="24" on="1"/>
        <pt x="440" y="60" on="0"/>
        <pt x="366" y="166" on="0"/>
        <pt x="307" y="276" on="0"/>
        <pt x="271" y="374" on="0"/>
        <pt x="271" y="402" on="1"/>
        <pt x="271" y="428" on="0"/>
        <pt x="315" y="483" on="0"/>
        <pt x="373" y="532" on="0"/>
        <pt x="433" y="571" on="0"/>
        <pt x="448" y="581" on="1"/>
        <pt x="478" y="600" on="0"/>
        <pt x="557" y="643" on="0"/>
        <pt x="640" y="679" on="0"/>
        <pt x="717" y="703" on="0"/>
        <pt x="744" y="703" on="1"/>
        <pt x="776" y="703" on="0"/>
        <pt x="810" y="667" on="0"/>
        <pt x="810" y="644" on="1"/>
        <pt x="810" y="628" on="0"/>
        <pt x="795" y="607" on="0"/>
        <pt x="775" y="595" on="0"/>
        <pt x="756" y="590" on="0"/>
        <pt x="753" y="590" on="1"/>
        <pt x="751" y="590" on="0"/>
        <pt x="739" y="593" on="0"/>
        <pt x="739" y="601" on="1"/>
        <pt x="739" y="603" on="0"/>
        <pt x="740" y="609" on="0"/>
        <pt x="740" y="614" on="1"/>
        <pt x="740" y="634" on="0"/>
        <pt x="714" y="653" on="0"/>
        <pt x="698" y="653" on="1"/>
        <pt x="683" y="653" on="0"/>
        <pt x="619" y="630" on="0"/>
        <pt x="540" y="592" on="0"/>
        <pt x="455" y="545" on="0"/>
        <pt x="386" y="495" on="0"/>
        <pt x="341" y="449" on="0"/>
        <pt x="341" y="432" on="1"/>
        <pt x="341" y="410" on="0"/>
        <pt x="367" y="333" on="0"/>
        <pt x="411" y="244" on="0"/>
        <pt x="468" y="152" on="0"/>
        <pt x="529" y="77" on="0"/>
        <pt x="590" y="30" on="0"/>
        <pt x="616" y="30" on="1"/>
        <pt x="618" y="30" on="0"/>
        <pt x="635" y="31" on="0"/>
        <pt x="660" y="35" on="0"/>
        <pt x="689" y="42" on="0"/>
        <pt x="703" y="49" on="1"/>
        <pt x="724" y="60" on="0"/>
        <pt x="742" y="85" on="0"/>
        <pt x="749" y="103" on="1"/>
        <pt x="755" y="121" on="0"/>
        <pt x="792" y="142" on="0"/>
        <pt x="805" y="142" on="1"/>
        <pt x="812" y="142" on="0"/>
        <pt x="818" y="135" on="0"/>
      </contour>
    </TTGlyph>
    <TTGlyph name="L" xMin="51" yMin="-20" xMax="738" yMax="703">
      <contour>
        <pt x="213" y="98" on="1"/>
        <pt x="223" y="100" on="0"/>
        <pt x="242" y="101" on="0"/>
        <pt x="251" y="101" on="1"/>
        <pt x="296" y="101" on="0"/>
        <pt x="382" y="83" on="0"/>
        <pt x="427" y="72" on="1"/>
        <pt x="439" y="69" on="0"/>
        <pt x="476" y="60" on="0"/>
        <pt x="520" y="52" on="0"/>
        <pt x="566" y="46" on="0"/>
        <pt x="586" y="46" on="1"/>
        <pt x="595" y="46" on="0"/>
        <pt x="608" y="47" on="0"/>
        <pt x="620" y="55" on="0"/>
        <pt x="630" y="72" on="0"/>
        <pt x="635" y="88" on="1"/>
        <pt x="640" y="102" on="0"/>
        <pt x="666" y="125" on="0"/>
        <pt x="695" y="141" on="0"/>
        <pt x="721" y="150" on="0"/>
        <pt x="727" y="150" on="1"/>
        <pt x="738" y="150" on="0"/>
        <pt x="738" y="141" on="1"/>
        <pt x="738" y="141" on="0"/>
        <pt x="734" y="123" on="0"/>
        <pt x="719" y="95" on="0"/>
        <pt x="688" y="58" on="0"/>
        <pt x="661" y="38" on="1"/>
        <pt x="649" y="29" on="0"/>
        <pt x="616" y="9" on="0"/>
        <pt x="575" y="-9" on="0"/>
        <pt x="529" y="-20" on="0"/>
        <pt x="504" y="-20" on="1"/>
        <pt x="460" y="-20" on="0"/>
        <pt x="376" y="-4" on="0"/>
        <pt x="334" y="7" on="1"/>
        <pt x="303" y="15" on="0"/>
        <pt x="254" y="26" on="0"/>
        <pt x="213" y="32" on="0"/>
        <pt x="177" y="35" on="0"/>
        <pt x="158" y="35" on="1"/>
        <pt x="139" y="16" on="0"/>
        <pt x="107" y="-6" on="0"/>
        <pt x="82" y="-17" on="0"/>
        <pt x="66" y="-20" on="0"/>
        <pt x="63" y="-20" on="1"/>
        <pt x="61" y="-20" on="0"/>
        <pt x="51" y="-18" on="0"/>
        <pt x="51" y="-13" on="1"/>
        <pt x="51" y="-8" on="0"/>
        <pt x="63" y="8" on="0"/>
        <pt x="80" y="25" on="0"/>
        <pt x="95" y="38" on="0"/>
        <pt x="98" y="40" on="1"/>
        <pt x="100" y="42" on="0"/>
        <pt x="121" y="68" on="0"/>
        <pt x="149" y="114" on="0"/>
        <pt x="179" y="179" on="0"/>
        <pt x="190" y="221" on="1"/>
        <pt x="201" y="262" on="0"/>
        <pt x="227" y="356" on="0"/>
        <pt x="264" y="452" on="0"/>
        <pt x="315" y="545" on="0"/>
        <pt x="350" y="584" on="1"/>
        <pt x="371" y="608" on="0"/>
        <pt x="426" y="651" on="0"/>
        <pt x="487" y="684" on="0"/>
        <pt x="553" y="703" on="0"/>
        <pt x="585" y="703" on="1"/>
        <pt x="613" y="703" on="0"/>
        <pt x="651" y="684" on="0"/>
        <pt x="675" y="656" on="0"/>
        <pt x="685" y="621" on="0"/>
        <pt x="685" y="605" on="1"/>
        <pt x="685" y="576" on="0"/>
        <pt x="669" y="552" on="0"/>
        <pt x="653" y="541" on="1"/>
        <pt x="632" y="525" on="0"/>
        <pt x="597" y="513" on="0"/>
        <pt x="590" y="513" on="1"/>
        <pt x="579" y="513" on="0"/>
        <pt x="579" y="522" on="1"/>
        <pt x="579" y="524" on="0"/>
        <pt x="582" y="540" on="0"/>
        <pt x="582" y="552" on="1"/>
        <pt x="582" y="589" on="0"/>
        <pt x="539" y="637" on="0"/>
        <pt x="503" y="637" on="1"/>
        <pt x="489" y="637" on="0"/>
        <pt x="461" y="631" on="0"/>
        <pt x="450" y="621" on="1"/>
        <pt x="420" y="592" on="0"/>
        <pt x="371" y="508" on="0"/>
        <pt x="334" y="415" on="0"/>
        <pt x="306" y="322" on="0"/>
        <pt x="297" y="286" on="1"/>
        <pt x="293" y="271" on="0"/>
        <pt x="281" y="229" on="0"/>
        <pt x="261" y="179" on="0"/>
        <pt x="233" y="125" on="0"/>
      </contour>
    </TTGlyph>
    <TTGlyph name="M" xMin="46" yMin="-51" xMax="1251" yMax="703">
      <contour>
        <pt x="892" y="280" on="1"/>
        <pt x="878" y="266" on="0"/>
        <pt x="831" y="218" on="0"/>
        <pt x="777" y="163" on="0"/>
        <pt x="721" y="107" on="0"/>
        <pt x="672" y="62" on="0"/>
        <pt x="637" y="34" on="0"/>
        <pt x="632" y="34" on="1"/>
        <pt x="627" y="34" on="0"/>
        <pt x="613" y="49" on="0"/>
        <pt x="597" y="73" on="0"/>
        <pt x="581" y="101" on="0"/>
        <pt x="574" y="113" on="1"/>
        <pt x="552" y="152" on="0"/>
        <pt x="510" y="261" on="0"/>
        <pt x="472" y="381" on="0"/>
        <pt x="439" y="501" on="0"/>
        <pt x="427" y="549" on="1"/>
        <pt x="414" y="482" on="0"/>
        <pt x="377" y="355" on="0"/>
        <pt x="339" y="249" on="0"/>
        <pt x="306" y="169" on="0"/>
        <pt x="297" y="147" on="1"/>
        <pt x="290" y="130" on="0"/>
        <pt x="260" y="64" on="0"/>
        <pt x="220" y="-2" on="0"/>
        <pt x="171" y="-51" on="0"/>
        <pt x="145" y="-51" on="1"/>
        <pt x="134" y="-51" on="0"/>
        <pt x="100" y="-45" on="0"/>
        <pt x="69" y="-31" on="0"/>
        <pt x="46" y="-11" on="0"/>
        <pt x="46" y="3" on="1"/>
        <pt x="46" y="14" on="0"/>
        <pt x="54" y="42" on="0"/>
        <pt x="66" y="66" on="0"/>
        <pt x="80" y="82" on="0"/>
        <pt x="86" y="82" on="1"/>
        <pt x="88" y="82" on="0"/>
        <pt x="95" y="76" on="1"/>
        <pt x="115" y="61" on="0"/>
        <pt x="166" y="48" on="0"/>
        <pt x="177" y="48" on="1"/>
        <pt x="191" y="48" on="0"/>
        <pt x="215" y="71" on="0"/>
        <pt x="236" y="103" on="0"/>
        <pt x="252" y="135" on="0"/>
        <pt x="256" y="145" on="1"/>
        <pt x="299" y="240" on="0"/>
        <pt x="352" y="396" on="0"/>
        <pt x="383" y="521" on="0"/>
        <pt x="398" y="617" on="0"/>
        <pt x="402" y="652" on="1"/>
        <pt x="404" y="664" on="0"/>
        <pt x="421" y="682" on="0"/>
        <pt x="443" y="696" on="0"/>
        <pt x="465" y="703" on="0"/>
        <pt x="471" y="703" on="1"/>
        <pt x="474" y="703" on="0"/>
        <pt x="481" y="702" on="0"/>
        <pt x="484" y="698" on="1"/>
        <pt x="485" y="697" on="0"/>
        <pt x="487" y="688" on="0"/>
        <pt x="492" y="667" on="1"/>
        <pt x="504" y="613" on="0"/>
        <pt x="541" y="469" on="0"/>
        <pt x="586" y="322" on="0"/>
        <pt x="639" y="186" on="0"/>
        <pt x="667" y="139" on="1"/>
        <pt x="694" y="162" on="0"/>
        <pt x="734" y="199" on="0"/>
        <pt x="775" y="238" on="0"/>
        <pt x="821" y="286" on="0"/>
        <pt x="854" y="319" on="1"/>
        <pt x="941" y="407" on="0"/>
        <pt x="1108" y="588" on="0"/>
        <pt x="1190" y="681" on="1"/>
        <pt x="1204" y="696" on="0"/>
        <pt x="1210" y="702" on="0"/>
        <pt x="1215" y="702" on="1"/>
        <pt x="1221" y="702" on="0"/>
        <pt x="1224" y="687" on="0"/>
        <pt x="1224" y="685" on="1"/>
        <pt x="1224" y="679" on="0"/>
        <pt x="1221" y="667" on="0"/>
        <pt x="1221" y="665" on="1"/>
        <pt x="1213" y="631" on="0"/>
        <pt x="1198" y="542" on="0"/>
        <pt x="1184" y="445" on="0"/>
        <pt x="1171" y="346" on="0"/>
        <pt x="1162" y="255" on="0"/>
        <pt x="1157" y="179" on="0"/>
        <pt x="1157" y="155" on="1"/>
        <pt x="1157" y="147" on="0"/>
        <pt x="1158" y="108" on="0"/>
        <pt x="1161" y="79" on="1"/>
        <pt x="1163" y="61" on="0"/>
        <pt x="1173" y="35" on="0"/>
        <pt x="1193" y="33" on="1"/>
        <pt x="1194" y="34" on="0"/>
        <pt x="1205" y="39" on="0"/>
        <pt x="1219" y="45" on="0"/>
        <pt x="1234" y="50" on="0"/>
        <pt x="1240" y="50" on="1"/>
        <pt x="1251" y="50" on="0"/>
        <pt x="1251" y="41" on="1"/>
        <pt x="1251" y="32" on="0"/>
        <pt x="1225" y="9" on="0"/>
        <pt x="1186" y="-13" on="0"/>
        <pt x="1142" y="-28" on="0"/>
        <pt x="1124" y="-28" on="1"/>
        <pt x="1106" y="-28" on="0"/>
        <pt x="1086" y="-17" on="0"/>
        <pt x="1075" y="-1" on="0"/>
        <pt x="1071" y="16" on="0"/>
        <pt x="1070" y="21" on="1"/>
        <pt x="1066" y="48" on="0"/>
        <pt x="1064" y="97" on="0"/>
        <pt x="1064" y="110" on="1"/>
        <pt x="1064" y="152" on="0"/>
        <pt x="1075" y="268" on="0"/>
        <pt x="1089" y="384" on="0"/>
        <pt x="1104" y="485" on="0"/>
        <pt x="1108" y="513" on="1"/>
        <pt x="1101" y="505" on="0"/>
        <pt x="1076" y="478" on="0"/>
        <pt x="1050" y="449" on="0"/>
        <pt x="1025" y="423" on="0"/>
        <pt x="1017" y="415" on="1"/>
      </contour>
    </TTGlyph>
    <TTGlyph name="N" xMin="-15" yMin="-51" xMax="1080" yMax="782">
      <contour>
        <pt x="339" y="563" on="1"/>
        <pt x="332" y="523" on="0"/>
        <pt x="316" y="439" on="0"/>
        <pt x="292" y="342" on="0"/>
        <pt x="259" y="228" on="0"/>
        <pt x="234" y="159" on="1"/>
        <pt x="226" y="137" on="0"/>
        <pt x="199" y="65" on="0"/>
        <pt x="161" y="-2" on="0"/>
        <pt x="113" y="-51" on="0"/>
        <pt x="85" y="-51" on="1"/>
        <pt x="77" y="-51" on="0"/>
        <pt x="43" y="-46" on="0"/>
        <pt x="23" y="-37" on="1"/>
        <pt x="-4" y="-25" on="0"/>
        <pt x="-15" y="-6" on="0"/>
        <pt x="-15" y="2" on="1"/>
        <pt x="-15" y="13" on="0"/>
        <pt x="-7" y="41" on="0"/>
        <pt x="5" y="65" on="0"/>
        <pt x="19" y="82" on="0"/>
        <pt x="25" y="82" on="1"/>
        <pt x="27" y="82" on="0"/>
        <pt x="32" y="78" on="1"/>
        <pt x="47" y="67" on="0"/>
        <pt x="78" y="55" on="0"/>
        <pt x="102" y="49" on="0"/>
        <pt x="117" y="48" on="0"/>
        <pt x="117" y="48" on="1"/>
        <pt x="137" y="48" on="0"/>
        <pt x="160" y="78" on="0"/>
        <pt x="167" y="90" on="1"/>
        <pt x="173" y="101" on="0"/>
        <pt x="195" y="155" on="0"/>
        <pt x="222" y="234" on="0"/>
        <pt x="252" y="336" on="0"/>
        <pt x="279" y="451" on="0"/>
        <pt x="301" y="576" on="0"/>
        <pt x="306" y="640" on="1"/>
        <pt x="307" y="656" on="0"/>
        <pt x="313" y="672" on="0"/>
        <pt x="327" y="683" on="1"/>
        <pt x="337" y="690" on="0"/>
        <pt x="365" y="703" on="0"/>
        <pt x="376" y="703" on="1"/>
        <pt x="383" y="703" on="0"/>
        <pt x="387" y="700" on="1"/>
        <pt x="389" y="698" on="0"/>
        <pt x="392" y="689" on="0"/>
        <pt x="400" y="668" on="1"/>
        <pt x="442" y="553" on="0"/>
        <pt x="522" y="359" on="0"/>
        <pt x="560" y="277" on="1"/>
        <pt x="580" y="235" on="0"/>
        <pt x="640" y="118" on="0"/>
        <pt x="683" y="60" on="1"/>
        <pt x="694" y="106" on="0"/>
        <pt x="724" y="226" on="0"/>
        <pt x="757" y="356" on="0"/>
        <pt x="793" y="486" on="0"/>
        <pt x="828" y="599" on="0"/>
        <pt x="860" y="686" on="0"/>
        <pt x="874" y="708" on="1"/>
        <pt x="882" y="720" on="0"/>
        <pt x="910" y="747" on="0"/>
        <pt x="954" y="768" on="0"/>
        <pt x="1016" y="782" on="0"/>
        <pt x="1056" y="782" on="1"/>
        <pt x="1071" y="782" on="0"/>
        <pt x="1080" y="777" on="0"/>
        <pt x="1080" y="763" on="1"/>
        <pt x="1080" y="752" on="0"/>
        <pt x="1073" y="724" on="0"/>
        <pt x="1061" y="700" on="0"/>
        <pt x="1046" y="683" on="0"/>
        <pt x="1038" y="683" on="1"/>
        <pt x="966" y="682" on="0"/>
        <pt x="893" y="656" on="0"/>
        <pt x="882" y="640" on="1"/>
        <pt x="877" y="633" on="0"/>
        <pt x="844" y="531" on="0"/>
        <pt x="799" y="371" on="0"/>
        <pt x="747" y="165" on="0"/>
        <pt x="721" y="53" on="1"/>
        <pt x="717" y="37" on="0"/>
        <pt x="712" y="17" on="0"/>
        <pt x="707" y="5" on="0"/>
        <pt x="699" y="-3" on="0"/>
        <pt x="693" y="-8" on="1"/>
        <pt x="692" y="-8" on="0"/>
        <pt x="683" y="-15" on="0"/>
        <pt x="669" y="-22" on="0"/>
        <pt x="652" y="-28" on="0"/>
        <pt x="644" y="-28" on="1"/>
        <pt x="641" y="-28" on="0"/>
        <pt x="634" y="-26" on="0"/>
        <pt x="629" y="-21" on="1"/>
        <pt x="601" y="14" on="0"/>
        <pt x="552" y="88" on="0"/>
        <pt x="504" y="175" on="0"/>
        <pt x="455" y="280" on="0"/>
        <pt x="426" y="347" on="1"/>
        <pt x="391" y="428" on="0"/>
        <pt x="349" y="538" on="0"/>
      </contour>
    </TTGlyph>
    <TTGlyph name="O" xMin="78" yMin="-20" xMax="868" yMax="703">
      <contour>
        <pt x="868" y="465" on="1"/>
        <pt x="868" y="393" on="0"/>
        <pt x="822" y="265" on="0"/>
        <pt x="743" y="157" on="0"/>
        <pt x="639" y="72" on="0"/>
        <pt x="524" y="12" on="0"/>
        <pt x="405" y="-20" on="0"/>
        <pt x="351" y="-20" on="1"/>
        <pt x="285" y="-20" on="0"/>
        <pt x="184" y="24" on="0"/>
        <pt x="114" y="100" on="0"/>
        <pt x="78" y="202" on="0"/>
        <pt x="78" y="259" on="1"/>
        <pt x="78" y="331" on="0"/>
        <pt x="124" y="452" on="0"/>
        <pt x="195" y="551" on="0"/>
        <pt x="280" y="626" on="0"/>
        <pt x="358" y="677" on="0"/>
        <pt x="419" y="703" on="0"/>
        <pt x="430" y="703" on="1"/>
        <pt x="438" y="703" on="0"/>
        <pt x="442" y="697" on="0"/>
        <pt x="442" y="695" on="1"/>
        <pt x="442" y="688" on="0"/>
        <pt x="419" y="663" on="0"/>
        <pt x="391" y="650" on="1"/>
        <pt x="335" y="623" on="0"/>
        <pt x="252" y="545" on="0"/>
        <pt x="198" y="452" on="0"/>
        <pt x="171" y="352" on="0"/>
        <pt x="171" y="304" on="1"/>
        <pt x="171" y="247" on="0"/>
        <pt x="207" y="150" on="0"/>
        <pt x="272" y="80" on="0"/>
        <pt x="365" y="41" on="0"/>
        <pt x="422" y="41" on="1"/>
        <pt x="495" y="41" on="0"/>
        <pt x="623" y="102" on="0"/>
        <pt x="719" y="205" on="0"/>
        <pt x="775" y="343" on="0"/>
        <pt x="775" y="420" on="1"/>
        <pt x="775" y="472" on="0"/>
        <pt x="749" y="554" on="0"/>
        <pt x="701" y="611" on="0"/>
        <pt x="634" y="642" on="0"/>
        <pt x="594" y="642" on="1"/>
        <pt x="558" y="642" on="0"/>
        <pt x="515" y="615" on="0"/>
        <pt x="495" y="595" on="1"/>
        <pt x="493" y="593" on="0"/>
        <pt x="448" y="538" on="0"/>
        <pt x="425" y="489" on="1"/>
        <pt x="417" y="473" on="0"/>
        <pt x="392" y="452" on="0"/>
        <pt x="367" y="439" on="0"/>
        <pt x="347" y="434" on="0"/>
        <pt x="344" y="434" on="1"/>
        <pt x="341" y="434" on="0"/>
        <pt x="331" y="436" on="0"/>
        <pt x="331" y="442" on="1"/>
        <pt x="331" y="445" on="0"/>
        <pt x="346" y="478" on="0"/>
        <pt x="376" y="527" on="0"/>
        <pt x="420" y="584" on="0"/>
        <pt x="448" y="609" on="1"/>
        <pt x="466" y="624" on="0"/>
        <pt x="513" y="658" on="0"/>
        <pt x="568" y="685" on="0"/>
        <pt x="631" y="703" on="0"/>
        <pt x="665" y="703" on="1"/>
        <pt x="715" y="703" on="0"/>
        <pt x="790" y="667" on="0"/>
        <pt x="842" y="603" on="0"/>
        <pt x="868" y="516" on="0"/>
      </contour>
    </TTGlyph>
    <TTGlyph name="P" xMin="39" yMin="-51" xMax="829" yMax="683">
      <contour>
        <pt x="549" y="683" on="1"/>
        <pt x="589" y="683" on="0"/>
        <pt x="686" y="669" on="0"/>
        <pt x="771" y="634" on="0"/>
        <pt x="829" y="572" on="0"/>
        <pt x="829" y="524" on="1"/>
        <pt x="829" y="507" on="0"/>
        <pt x="818" y="459" on="0"/>
        <pt x="788" y="402" on="0"/>
        <pt x="732" y="338" on="0"/>
        <pt x="687" y="306" on="1"/>
        <pt x="653" y="282" on="0"/>
        <pt x="574" y="244" on="0"/>
        <pt x="492" y="219" on="0"/>
        <pt x="411" y="205" on="0"/>
        <pt x="375" y="205" on="1"/>
        <pt x="364" y="205" on="0"/>
        <pt x="354" y="207" on="0"/>
        <pt x="354" y="214" on="1"/>
        <pt x="354" y="219" on="0"/>
        <pt x="365" y="234" on="0"/>
        <pt x="380" y="245" on="1"/>
        <pt x="403" y="260" on="0"/>
        <pt x="432" y="266" on="0"/>
        <pt x="448" y="266" on="1"/>
        <pt x="524" y="268" on="0"/>
        <pt x="633" y="310" on="0"/>
        <pt x="703" y="371" on="0"/>
        <pt x="736" y="445" on="0"/>
        <pt x="736" y="479" on="1"/>
        <pt x="736" y="511" on="0"/>
        <pt x="706" y="558" on="0"/>
        <pt x="659" y="589" on="0"/>
        <pt x="599" y="608" on="0"/>
        <pt x="540" y="619" on="0"/>
        <pt x="488" y="622" on="0"/>
        <pt x="471" y="622" on="1"/>
        <pt x="408" y="622" on="1"/>
        <pt x="405" y="595" on="0"/>
        <pt x="393" y="503" on="0"/>
        <pt x="369" y="378" on="0"/>
        <pt x="330" y="227" on="0"/>
        <pt x="299" y="141" on="1"/>
        <pt x="276" y="76" on="0"/>
        <pt x="243" y="-4" on="0"/>
        <pt x="241" y="-6" on="1"/>
        <pt x="235" y="-15" on="0"/>
        <pt x="214" y="-32" on="0"/>
        <pt x="192" y="-44" on="0"/>
        <pt x="170" y="-51" on="0"/>
        <pt x="163" y="-51" on="1"/>
        <pt x="152" y="-51" on="0"/>
        <pt x="152" y="-42" on="1"/>
        <pt x="152" y="-40" on="0"/>
        <pt x="153" y="-35" on="0"/>
        <pt x="158" y="-25" on="1"/>
        <pt x="224" y="130" on="0"/>
        <pt x="308" y="454" on="0"/>
        <pt x="319" y="622" on="1"/>
        <pt x="259" y="619" on="0"/>
        <pt x="189" y="603" on="0"/>
        <pt x="151" y="581" on="0"/>
        <pt x="137" y="553" on="0"/>
        <pt x="132" y="538" on="1"/>
        <pt x="128" y="525" on="0"/>
        <pt x="105" y="504" on="0"/>
        <pt x="80" y="490" on="0"/>
        <pt x="57" y="483" on="0"/>
        <pt x="51" y="483" on="1"/>
        <pt x="47" y="483" on="0"/>
        <pt x="39" y="486" on="0"/>
        <pt x="39" y="492" on="1"/>
        <pt x="39" y="496" on="0"/>
        <pt x="49" y="525" on="0"/>
        <pt x="76" y="565" on="0"/>
        <pt x="125" y="611" on="0"/>
        <pt x="165" y="631" on="1"/>
        <pt x="198" y="648" on="0"/>
        <pt x="263" y="668" on="0"/>
        <pt x="322" y="679" on="0"/>
        <pt x="374" y="683" on="0"/>
        <pt x="393" y="683" on="1"/>
      </contour>
    </TTGlyph>
    <TTGlyph name="Q" xMin="133" yMin="-127" xMax="887" yMax="703">
      <contour>
        <pt x="288" y="31" on="1"/>
        <pt x="358" y="31" on="0"/>
        <pt x="464" y="46" on="0"/>
        <pt x="547" y="73" on="0"/>
        <pt x="612" y="111" on="0"/>
        <pt x="640" y="135" on="1"/>
        <pt x="652" y="146" on="0"/>
        <pt x="695" y="190" on="0"/>
        <pt x="737" y="258" on="0"/>
        <pt x="768" y="348" on="0"/>
        <pt x="768" y="404" on="1"/>
        <pt x="768" y="456" on="0"/>
        <pt x="735" y="544" on="0"/>
        <pt x="674" y="607" on="0"/>
        <pt x="589" y="642" on="0"/>
        <pt x="538" y="642" on="1"/>
        <pt x="466" y="642" on="0"/>
        <pt x="351" y="583" on="0"/>
        <pt x="270" y="493" on="0"/>
        <pt x="226" y="386" on="0"/>
        <pt x="226" y="339" on="1"/>
        <pt x="226" y="300" on="0"/>
        <pt x="252" y="235" on="0"/>
        <pt x="299" y="188" on="0"/>
        <pt x="365" y="163" on="0"/>
        <pt x="404" y="163" on="1"/>
        <pt x="419" y="163" on="0"/>
        <pt x="480" y="172" on="0"/>
        <pt x="517" y="189" on="1"/>
        <pt x="543" y="201" on="0"/>
        <pt x="553" y="201" on="1"/>
        <pt x="556" y="201" on="0"/>
        <pt x="566" y="199" on="0"/>
        <pt x="566" y="193" on="1"/>
        <pt x="566" y="182" on="0"/>
        <pt x="523" y="151" on="0"/>
        <pt x="456" y="122" on="0"/>
        <pt x="373" y="102" on="0"/>
        <pt x="333" y="102" on="1"/>
        <pt x="284" y="102" on="0"/>
        <pt x="210" y="133" on="0"/>
        <pt x="159" y="186" on="0"/>
        <pt x="133" y="255" on="0"/>
        <pt x="133" y="294" on="1"/>
        <pt x="133" y="344" on="0"/>
        <pt x="172" y="443" on="0"/>
        <pt x="240" y="534" on="0"/>
        <pt x="332" y="613" on="0"/>
        <pt x="438" y="670" on="0"/>
        <pt x="552" y="703" on="0"/>
        <pt x="609" y="703" on="1"/>
        <pt x="669" y="703" on="0"/>
        <pt x="763" y="663" on="0"/>
        <pt x="827" y="594" on="0"/>
        <pt x="861" y="501" on="0"/>
        <pt x="861" y="449" on="1"/>
        <pt x="861" y="371" on="0"/>
        <pt x="797" y="233" on="0"/>
        <pt x="744" y="176" on="1"/>
        <pt x="703" y="132" on="0"/>
        <pt x="616" y="71" on="0"/>
        <pt x="536" y="29" on="0"/>
        <pt x="469" y="4" on="0"/>
        <pt x="447" y="-4" on="1"/>
        <pt x="468" y="-10" on="0"/>
        <pt x="501" y="-20" on="0"/>
        <pt x="534" y="-30" on="0"/>
        <pt x="569" y="-40" on="0"/>
        <pt x="591" y="-46" on="1"/>
        <pt x="624" y="-55" on="0"/>
        <pt x="696" y="-66" on="0"/>
        <pt x="725" y="-66" on="1"/>
        <pt x="761" y="-66" on="0"/>
        <pt x="787" y="-46" on="0"/>
        <pt x="794" y="-23" on="1"/>
        <pt x="799" y="-11" on="0"/>
        <pt x="821" y="9" on="0"/>
        <pt x="846" y="23" on="0"/>
        <pt x="870" y="31" on="0"/>
        <pt x="876" y="31" on="1"/>
        <pt x="880" y="31" on="0"/>
        <pt x="887" y="27" on="0"/>
        <pt x="887" y="22" on="1"/>
        <pt x="887" y="6" on="0"/>
        <pt x="852" y="-44" on="0"/>
        <pt x="789" y="-92" on="0"/>
        <pt x="704" y="-127" on="0"/>
        <pt x="654" y="-127" on="1"/>
        <pt x="622" y="-127" on="0"/>
        <pt x="562" y="-119" on="0"/>
        <pt x="501" y="-105" on="0"/>
        <pt x="437" y="-86" on="0"/>
        <pt x="401" y="-75" on="1"/>
        <pt x="361" y="-62" on="0"/>
        <pt x="302" y="-46" on="0"/>
        <pt x="251" y="-35" on="0"/>
        <pt x="204" y="-31" on="0"/>
        <pt x="177" y="-30" on="1"/>
        <pt x="167" y="-30" on="0"/>
        <pt x="167" y="-22" on="1"/>
        <pt x="167" y="-11" on="0"/>
        <pt x="194" y="10" on="0"/>
        <pt x="202" y="15" on="1"/>
        <pt x="222" y="27" on="0"/>
        <pt x="247" y="31" on="0"/>
        <pt x="261" y="31" on="1"/>
      </contour>
    </TTGlyph>
    <TTGlyph name="R" xMin="39" yMin="-20" xMax="955" yMax="683">
      <contour>
        <pt x="408" y="622" on="1"/>
        <pt x="401" y="541" on="0"/>
        <pt x="372" y="389" on="0"/>
        <pt x="337" y="256" on="0"/>
        <pt x="299" y="146" on="0"/>
        <pt x="268" y="67" on="0"/>
        <pt x="248" y="23" on="0"/>
        <pt x="247" y="22" on="1"/>
        <pt x="243" y="16" on="0"/>
        <pt x="225" y="1" on="0"/>
        <pt x="203" y="-12" on="0"/>
        <pt x="180" y="-20" on="0"/>
        <pt x="172" y="-20" on="1"/>
        <pt x="160" y="-20" on="0"/>
        <pt x="160" y="-11" on="1"/>
        <pt x="160" y="-10" on="0"/>
        <pt x="162" y="-4" on="0"/>
        <pt x="168" y="10" on="1"/>
        <pt x="189" y="61" on="0"/>
        <pt x="237" y="189" on="0"/>
        <pt x="279" y="342" on="0"/>
        <pt x="312" y="520" on="0"/>
        <pt x="319" y="622" on="1"/>
        <pt x="259" y="619" on="0"/>
        <pt x="189" y="603" on="0"/>
        <pt x="151" y="581" on="0"/>
        <pt x="137" y="553" on="0"/>
        <pt x="132" y="538" on="1"/>
        <pt x="128" y="525" on="0"/>
        <pt x="105" y="504" on="0"/>
        <pt x="80" y="490" on="0"/>
        <pt x="57" y="483" on="0"/>
        <pt x="51" y="483" on="1"/>
        <pt x="47" y="483" on="0"/>
        <pt x="39" y="486" on="0"/>
        <pt x="39" y="492" on="1"/>
        <pt x="39" y="498" on="0"/>
        <pt x="53" y="533" on="0"/>
        <pt x="89" y="579" on="0"/>
        <pt x="152" y="628" on="0"/>
        <pt x="202" y="648" on="1"/>
        <pt x="235" y="661" on="0"/>
        <pt x="295" y="675" on="0"/>
        <pt x="358" y="682" on="0"/>
        <pt x="431" y="683" on="0"/>
        <pt x="478" y="683" on="1"/>
        <pt x="550" y="683" on="0"/>
        <pt x="678" y="679" on="0"/>
        <pt x="772" y="656" on="0"/>
        <pt x="827" y="606" on="0"/>
        <pt x="827" y="559" on="1"/>
        <pt x="827" y="525" on="0"/>
        <pt x="796" y="451" on="0"/>
        <pt x="733" y="381" on="0"/>
        <pt x="636" y="318" on="0"/>
        <pt x="569" y="295" on="1"/>
        <pt x="574" y="290" on="0"/>
        <pt x="586" y="275" on="0"/>
        <pt x="602" y="251" on="0"/>
        <pt x="623" y="216" on="0"/>
        <pt x="637" y="190" on="1"/>
        <pt x="653" y="160" on="0"/>
        <pt x="684" y="105" on="0"/>
        <pt x="715" y="65" on="0"/>
        <pt x="750" y="41" on="0"/>
        <pt x="770" y="41" on="1"/>
        <pt x="790" y="41" on="0"/>
        <pt x="822" y="52" on="0"/>
        <pt x="846" y="68" on="0"/>
        <pt x="862" y="84" on="0"/>
        <pt x="867" y="90" on="1"/>
        <pt x="889" y="116" on="0"/>
        <pt x="936" y="133" on="0"/>
        <pt x="943" y="133" on="1"/>
        <pt x="951" y="133" on="0"/>
        <pt x="955" y="126" on="0"/>
        <pt x="955" y="125" on="1"/>
        <pt x="955" y="117" on="0"/>
        <pt x="912" y="70" on="0"/>
        <pt x="840" y="19" on="0"/>
        <pt x="748" y="-20" on="0"/>
        <pt x="699" y="-20" on="1"/>
        <pt x="675" y="-20" on="0"/>
        <pt x="638" y="-1" on="0"/>
        <pt x="603" y="37" on="0"/>
        <pt x="569" y="94" on="0"/>
        <pt x="549" y="131" on="1"/>
        <pt x="527" y="172" on="0"/>
        <pt x="494" y="224" on="0"/>
        <pt x="466" y="256" on="0"/>
        <pt x="440" y="270" on="0"/>
        <pt x="423" y="273" on="1"/>
        <pt x="412" y="274" on="0"/>
        <pt x="412" y="282" on="1"/>
        <pt x="412" y="290" on="0"/>
        <pt x="433" y="309" on="0"/>
        <pt x="445" y="317" on="1"/>
        <pt x="465" y="329" on="0"/>
        <pt x="489" y="333" on="0"/>
        <pt x="505" y="334" on="1"/>
        <pt x="568" y="336" on="0"/>
        <pt x="656" y="370" on="0"/>
        <pt x="710" y="422" on="0"/>
        <pt x="734" y="484" on="0"/>
        <pt x="734" y="514" on="1"/>
        <pt x="734" y="539" on="0"/>
        <pt x="713" y="579" on="0"/>
        <pt x="657" y="607" on="0"/>
        <pt x="560" y="622" on="0"/>
        <pt x="484" y="622" on="1"/>
      </contour>
    </TTGlyph>
    <TTGlyph name="Rfraktur" xMin="65" yMin="-20" xMax="807" yMax="714">
      <contour>
        <pt x="801" y="459" on="1"/>
        <pt x="806" y="452" on="0"/>
        <pt x="807" y="446" on="0"/>
        <pt x="807" y="444" on="1"/>
        <pt x="807" y="438" on="0"/>
        <pt x="802" y="433" on="1"/>
        <pt x="801" y="433" on="0"/>
        <pt x="794" y="429" on="0"/>
        <pt x="775" y="416" on="1"/>
        <pt x="739" y="393" on="0"/>
        <pt x="666" y="355" on="0"/>
        <pt x="616" y="347" on="1"/>
        <pt x="630" y="126" on="1"/>
        <pt x="630" y="120" on="0"/>
        <pt x="630" y="116" on="0"/>
        <pt x="629" y="114" on="0"/>
        <pt x="629" y="111" on="0"/>
        <pt x="629" y="105" on="1"/>
        <pt x="629" y="85" on="0"/>
        <pt x="641" y="55" on="0"/>
        <pt x="657" y="33" on="0"/>
        <pt x="674" y="20" on="0"/>
        <pt x="678" y="18" on="1"/>
        <pt x="727" y="51" on="1"/>
        <pt x="741" y="61" on="0"/>
        <pt x="758" y="72" on="0"/>
        <pt x="767" y="78" on="0"/>
        <pt x="771" y="79" on="0"/>
        <pt x="773" y="79" on="1"/>
        <pt x="775" y="79" on="0"/>
        <pt x="794" y="71" on="0"/>
        <pt x="794" y="62" on="1"/>
        <pt x="794" y="57" on="0"/>
        <pt x="789" y="52" on="0"/>
        <pt x="781" y="47" on="1"/>
        <pt x="698" y="-6" on="1"/>
        <pt x="682" y="-17" on="0"/>
        <pt x="672" y="-20" on="0"/>
        <pt x="661" y="-20" on="1"/>
        <pt x="635" y="-20" on="0"/>
        <pt x="590" y="-1" on="0"/>
        <pt x="556" y="33" on="0"/>
        <pt x="536" y="79" on="0"/>
        <pt x="536" y="105" on="1"/>
        <pt x="536" y="110" on="0"/>
        <pt x="537" y="121" on="0"/>
        <pt x="537" y="126" on="1"/>
        <pt x="523" y="343" on="1"/>
        <pt x="397" y="343" on="1"/>
        <pt x="397" y="271" on="1"/>
        <pt x="397" y="194" on="0"/>
        <pt x="366" y="84" on="0"/>
        <pt x="317" y="13" on="0"/>
        <pt x="258" y="-20" on="0"/>
        <pt x="230" y="-20" on="1"/>
        <pt x="222" y="-20" on="0"/>
        <pt x="187" y="-15" on="0"/>
        <pt x="147" y="6" on="0"/>
        <pt x="109" y="46" on="0"/>
        <pt x="98" y="82" on="1"/>
        <pt x="97" y="82" on="0"/>
        <pt x="82" y="76" on="0"/>
        <pt x="79" y="76" on="1"/>
        <pt x="74" y="76" on="0"/>
        <pt x="65" y="85" on="0"/>
        <pt x="65" y="90" on="1"/>
        <pt x="65" y="98" on="0"/>
        <pt x="83" y="107" on="0"/>
        <pt x="89" y="107" on="1"/>
        <pt x="87" y="110" on="0"/>
        <pt x="83" y="124" on="0"/>
        <pt x="83" y="127" on="1"/>
        <pt x="83" y="132" on="0"/>
        <pt x="96" y="146" on="0"/>
        <pt x="101" y="146" on="1"/>
        <pt x="109" y="146" on="0"/>
        <pt x="119" y="125" on="0"/>
        <pt x="119" y="119" on="1"/>
        <pt x="121" y="120" on="0"/>
        <pt x="132" y="124" on="0"/>
        <pt x="137" y="124" on="1"/>
        <pt x="145" y="124" on="0"/>
        <pt x="152" y="113" on="0"/>
        <pt x="152" y="110" on="1"/>
        <pt x="152" y="105" on="0"/>
        <pt x="147" y="100" on="0"/>
        <pt x="143" y="98" on="1"/>
        <pt x="142" y="98" on="0"/>
        <pt x="130" y="92" on="0"/>
        <pt x="129" y="92" on="1"/>
        <pt x="140" y="56" on="0"/>
        <pt x="194" y="8" on="0"/>
        <pt x="229" y="8" on="1"/>
        <pt x="250" y="8" on="0"/>
        <pt x="278" y="45" on="0"/>
        <pt x="296" y="102" on="0"/>
        <pt x="303" y="169" on="0"/>
        <pt x="303" y="200" on="1"/>
        <pt x="303" y="481" on="1"/>
        <pt x="303" y="531" on="0"/>
        <pt x="285" y="604" on="0"/>
        <pt x="256" y="652" on="0"/>
        <pt x="219" y="676" on="0"/>
        <pt x="199" y="676" on="1"/>
        <pt x="181" y="676" on="0"/>
        <pt x="150" y="660" on="0"/>
        <pt x="128" y="635" on="0"/>
        <pt x="116" y="602" on="0"/>
        <pt x="116" y="585" on="1"/>
        <pt x="116" y="569" on="0"/>
        <pt x="136" y="543" on="0"/>
        <pt x="156" y="527" on="1"/>
        <pt x="200" y="489" on="0"/>
        <pt x="231" y="430" on="0"/>
        <pt x="231" y="397" on="1"/>
        <pt x="231" y="384" on="0"/>
        <pt x="226" y="332" on="0"/>
        <pt x="208" y="281" on="0"/>
        <pt x="172" y="243" on="0"/>
        <pt x="141" y="243" on="1"/>
        <pt x="123" y="243" on="0"/>
        <pt x="99" y="261" on="0"/>
        <pt x="84" y="285" on="0"/>
        <pt x="77" y="312" on="0"/>
        <pt x="77" y="321" on="1"/>
        <pt x="77" y="332" on="0"/>
        <pt x="85" y="338" on="0"/>
        <pt x="94" y="338" on="1"/>
        <pt x="106" y="338" on="0"/>
        <pt x="110" y="329" on="0"/>
        <pt x="111" y="320" on="1"/>
        <pt x="113" y="304" on="0"/>
        <pt x="125" y="271" on="0"/>
        <pt x="142" y="271" on="1"/>
        <pt x="166" y="271" on="0"/>
        <pt x="190" y="328" on="0"/>
        <pt x="190" y="389" on="1"/>
        <pt x="190" y="403" on="0"/>
        <pt x="187" y="423" on="0"/>
        <pt x="174" y="445" on="0"/>
        <pt x="150" y="472" on="0"/>
        <pt x="129" y="491" on="1"/>
        <pt x="107" y="511" on="0"/>
        <pt x="77" y="554" on="0"/>
        <pt x="77" y="582" on="1"/>
        <pt x="77" y="605" on="0"/>
        <pt x="95" y="649" on="0"/>
        <pt x="128" y="683" on="0"/>
        <pt x="173" y="704" on="0"/>
        <pt x="201" y="704" on="1"/>
        <pt x="239" y="704" on="0"/>
        <pt x="324" y="657" on="0"/>
        <pt x="356" y="603" on="1"/>
        <pt x="379" y="640" on="0"/>
        <pt x="456" y="684" on="0"/>
        <pt x="536" y="707" on="0"/>
        <pt x="606" y="714" on="0"/>
        <pt x="622" y="714" on="1"/>
        <pt x="635" y="714" on="0"/>
        <pt x="643" y="709" on="0"/>
        <pt x="651" y="697" on="1"/>
      </contour>
      <contour>
        <pt x="557" y="672" on="1"/>
        <pt x="489" y="662" on="0"/>
        <pt x="392" y="608" on="0"/>
        <pt x="375" y="563" on="1"/>
        <pt x="387" y="532" on="0"/>
        <pt x="397" y="467" on="0"/>
        <pt x="397" y="426" on="1"/>
        <pt x="397" y="379" on="1"/>
        <pt x="563" y="379" on="1"/>
        <pt x="596" y="379" on="0"/>
        <pt x="651" y="392" on="0"/>
        <pt x="691" y="407" on="0"/>
        <pt x="713" y="422" on="0"/>
        <pt x="713" y="423" on="1"/>
        <pt x="713" y="425" on="0"/>
        <pt x="708" y="432" on="0"/>
        <pt x="707" y="434" on="1"/>
      </contour>
    </TTGlyph>
    <TTGlyph name="S" xMin="39" yMin="-20" xMax="715" yMax="703">
      <contour>
        <pt x="142" y="217" on="1"/>
        <pt x="132" y="198" on="0"/>
        <pt x="132" y="174" on="1"/>
        <pt x="132" y="147" on="0"/>
        <pt x="167" y="99" on="0"/>
        <pt x="225" y="62" on="0"/>
        <pt x="300" y="41" on="0"/>
        <pt x="340" y="41" on="1"/>
        <pt x="376" y="41" on="0"/>
        <pt x="453" y="53" on="0"/>
        <pt x="518" y="85" on="0"/>
        <pt x="559" y="141" on="0"/>
        <pt x="559" y="186" on="1"/>
        <pt x="559" y="220" on="0"/>
        <pt x="523" y="270" on="0"/>
        <pt x="469" y="307" on="0"/>
        <pt x="405" y="333" on="0"/>
        <pt x="377" y="342" on="1"/>
        <pt x="359" y="348" on="0"/>
        <pt x="305" y="368" on="0"/>
        <pt x="254" y="403" on="0"/>
        <pt x="218" y="453" on="0"/>
        <pt x="218" y="487" on="1"/>
        <pt x="218" y="530" on="0"/>
        <pt x="273" y="608" on="0"/>
        <pt x="363" y="668" on="0"/>
        <pt x="476" y="703" on="0"/>
        <pt x="534" y="703" on="1"/>
        <pt x="546" y="703" on="0"/>
        <pt x="610" y="698" on="0"/>
        <pt x="650" y="684" on="1"/>
        <pt x="660" y="680" on="0"/>
        <pt x="683" y="670" on="0"/>
        <pt x="702" y="652" on="0"/>
        <pt x="715" y="624" on="0"/>
        <pt x="715" y="603" on="1"/>
        <pt x="715" y="572" on="0"/>
        <pt x="698" y="549" on="0"/>
        <pt x="688" y="542" on="1"/>
        <pt x="671" y="528" on="0"/>
        <pt x="638" y="516" on="0"/>
        <pt x="631" y="516" on="1"/>
        <pt x="621" y="516" on="0"/>
        <pt x="618" y="523" on="0"/>
        <pt x="618" y="524" on="1"/>
        <pt x="618" y="528" on="0"/>
        <pt x="622" y="545" on="0"/>
        <pt x="622" y="558" on="1"/>
        <pt x="622" y="576" on="0"/>
        <pt x="612" y="599" on="0"/>
        <pt x="595" y="613" on="0"/>
        <pt x="575" y="622" on="0"/>
        <pt x="565" y="625" on="1"/>
        <pt x="527" y="638" on="0"/>
        <pt x="471" y="642" on="0"/>
        <pt x="463" y="642" on="1"/>
        <pt x="444" y="642" on="0"/>
        <pt x="380" y="632" on="0"/>
        <pt x="354" y="618" on="1"/>
        <pt x="340" y="610" on="0"/>
        <pt x="311" y="564" on="0"/>
        <pt x="311" y="532" on="1"/>
        <pt x="311" y="502" on="0"/>
        <pt x="344" y="458" on="0"/>
        <pt x="390" y="427" on="0"/>
        <pt x="438" y="408" on="0"/>
        <pt x="454" y="403" on="1"/>
        <pt x="486" y="393" on="0"/>
        <pt x="556" y="364" on="0"/>
        <pt x="614" y="323" on="0"/>
        <pt x="652" y="268" on="0"/>
        <pt x="652" y="231" on="1"/>
        <pt x="652" y="181" on="0"/>
        <pt x="588" y="90" on="0"/>
        <pt x="481" y="21" on="0"/>
        <pt x="343" y="-20" on="0"/>
        <pt x="269" y="-20" on="1"/>
        <pt x="222" y="-20" on="0"/>
        <pt x="138" y="5" on="0"/>
        <pt x="75" y="46" on="0"/>
        <pt x="39" y="100" on="0"/>
        <pt x="39" y="129" on="1"/>
        <pt x="39" y="161" on="0"/>
        <pt x="70" y="213" on="0"/>
        <pt x="113" y="250" on="0"/>
        <pt x="162" y="270" on="0"/>
        <pt x="180" y="270" on="1"/>
        <pt x="183" y="270" on="0"/>
        <pt x="193" y="268" on="0"/>
        <pt x="193" y="262" on="1"/>
        <pt x="193" y="252" on="0"/>
        <pt x="162" y="225" on="0"/>
      </contour>
    </TTGlyph>
    <TTGlyph name="T" xMin="54" yMin="-68" xMax="934" yMax="717">
      <contour>
        <pt x="438" y="179" on="1"/>
        <pt x="431" y="151" on="0"/>
        <pt x="408" y="84" on="0"/>
        <pt x="385" y="25" on="0"/>
        <pt x="364" y="-19" on="0"/>
        <pt x="359" y="-25" on="1"/>
        <pt x="353" y="-31" on="0"/>
        <pt x="333" y="-46" on="0"/>
        <pt x="309" y="-59" on="0"/>
        <pt x="286" y="-68" on="0"/>
        <pt x="277" y="-68" on="1"/>
        <pt x="274" y="-68" on="0"/>
        <pt x="265" y="-66" on="0"/>
        <pt x="265" y="-61" on="1"/>
        <pt x="265" y="-59" on="0"/>
        <pt x="267" y="-53" on="0"/>
        <pt x="273" y="-40" on="1"/>
        <pt x="302" y="23" on="0"/>
        <pt x="332" y="116" on="0"/>
        <pt x="337" y="136" on="1"/>
        <pt x="448" y="580" on="1"/>
        <pt x="451" y="591" on="0"/>
        <pt x="461" y="611" on="0"/>
        <pt x="470" y="617" on="1"/>
        <pt x="259" y="617" on="1"/>
        <pt x="245" y="617" on="0"/>
        <pt x="215" y="615" on="0"/>
        <pt x="187" y="601" on="0"/>
        <pt x="164" y="573" on="0"/>
        <pt x="158" y="546" on="1"/>
        <pt x="157" y="540" on="0"/>
        <pt x="153" y="530" on="0"/>
        <pt x="145" y="519" on="0"/>
        <pt x="130" y="507" on="0"/>
        <pt x="117" y="499" on="1"/>
        <pt x="97" y="487" on="0"/>
        <pt x="70" y="479" on="0"/>
        <pt x="65" y="479" on="1"/>
        <pt x="62" y="479" on="0"/>
        <pt x="54" y="482" on="0"/>
        <pt x="54" y="487" on="1"/>
        <pt x="54" y="490" on="0"/>
        <pt x="58" y="512" on="0"/>
        <pt x="74" y="545" on="0"/>
        <pt x="107" y="588" on="0"/>
        <pt x="136" y="610" on="1"/>
        <pt x="165" y="632" on="0"/>
        <pt x="221" y="660" on="0"/>
        <pt x="269" y="677" on="0"/>
        <pt x="308" y="683" on="0"/>
        <pt x="318" y="683" on="1"/>
        <pt x="381" y="684" on="0"/>
        <pt x="506" y="683" on="0"/>
        <pt x="569" y="683" on="1"/>
        <pt x="745" y="683" on="1"/>
        <pt x="758" y="683" on="0"/>
        <pt x="793" y="683" on="0"/>
        <pt x="824" y="683" on="0"/>
        <pt x="848" y="684" on="0"/>
        <pt x="851" y="684" on="1"/>
        <pt x="856" y="688" on="1"/>
        <pt x="888" y="710" on="0"/>
        <pt x="919" y="717" on="0"/>
        <pt x="922" y="717" on="1"/>
        <pt x="926" y="717" on="0"/>
        <pt x="934" y="715" on="0"/>
        <pt x="934" y="709" on="1"/>
        <pt x="934" y="702" on="0"/>
        <pt x="913" y="671" on="0"/>
        <pt x="868" y="640" on="0"/>
        <pt x="799" y="617" on="0"/>
        <pt x="751" y="617" on="1"/>
        <pt x="547" y="617" on="1"/>
      </contour>
    </TTGlyph>
    <TTGlyph name="U" xMin="1" yMin="-27" xMax="762" yMax="683">
      <contour>
        <pt x="560" y="309" on="1"/>
        <pt x="502" y="236" on="0"/>
        <pt x="423" y="154" on="0"/>
        <pt x="394" y="128" on="1"/>
        <pt x="365" y="102" on="0"/>
        <pt x="295" y="49" on="0"/>
        <pt x="221" y="7" on="0"/>
        <pt x="145" y="-20" on="0"/>
        <pt x="110" y="-20" on="1"/>
        <pt x="80" y="-20" on="0"/>
        <pt x="39" y="2" on="0"/>
        <pt x="13" y="39" on="0"/>
        <pt x="1" y="87" on="0"/>
        <pt x="1" y="113" on="1"/>
        <pt x="1" y="137" on="0"/>
        <pt x="11" y="190" on="0"/>
        <pt x="32" y="255" on="0"/>
        <pt x="65" y="334" on="0"/>
        <pt x="87" y="384" on="1"/>
        <pt x="119" y="458" on="0"/>
        <pt x="159" y="560" on="0"/>
        <pt x="159" y="590" on="1"/>
        <pt x="159" y="606" on="0"/>
        <pt x="147" y="622" on="0"/>
        <pt x="131" y="622" on="1"/>
        <pt x="119" y="622" on="0"/>
        <pt x="89" y="616" on="0"/>
        <pt x="72" y="606" on="1"/>
        <pt x="62" y="600" on="0"/>
        <pt x="36" y="588" on="0"/>
        <pt x="25" y="588" on="1"/>
        <pt x="23" y="588" on="0"/>
        <pt x="13" y="590" on="0"/>
        <pt x="13" y="596" on="1"/>
        <pt x="13" y="606" on="0"/>
        <pt x="49" y="635" on="0"/>
        <pt x="104" y="663" on="0"/>
        <pt x="171" y="683" on="0"/>
        <pt x="202" y="683" on="1"/>
        <pt x="209" y="683" on="0"/>
        <pt x="227" y="681" on="0"/>
        <pt x="242" y="671" on="0"/>
        <pt x="252" y="652" on="0"/>
        <pt x="252" y="635" on="1"/>
        <pt x="252" y="619" on="0"/>
        <pt x="241" y="575" on="0"/>
        <pt x="222" y="522" on="0"/>
        <pt x="197" y="465" on="0"/>
        <pt x="184" y="435" on="1"/>
        <pt x="159" y="379" on="0"/>
        <pt x="125" y="296" on="0"/>
        <pt x="104" y="232" on="0"/>
        <pt x="94" y="182" on="0"/>
        <pt x="94" y="158" on="1"/>
        <pt x="94" y="101" on="0"/>
        <pt x="143" y="41" on="0"/>
        <pt x="181" y="41" on="1"/>
        <pt x="213" y="41" on="0"/>
        <pt x="298" y="96" on="0"/>
        <pt x="392" y="184" on="0"/>
        <pt x="486" y="296" on="0"/>
        <pt x="567" y="410" on="0"/>
        <pt x="629" y="518" on="0"/>
        <pt x="643" y="557" on="1"/>
        <pt x="658" y="600" on="0"/>
        <pt x="672" y="636" on="0"/>
        <pt x="673" y="638" on="1"/>
        <pt x="678" y="646" on="0"/>
        <pt x="697" y="662" on="0"/>
        <pt x="719" y="675" on="0"/>
        <pt x="742" y="683" on="0"/>
        <pt x="750" y="683" on="1"/>
        <pt x="752" y="683" on="0"/>
        <pt x="762" y="681" on="0"/>
        <pt x="762" y="674" on="1"/>
        <pt x="762" y="671" on="0"/>
        <pt x="750" y="629" on="0"/>
        <pt x="738" y="600" on="1"/>
        <pt x="732" y="585" on="0"/>
        <pt x="705" y="512" on="0"/>
        <pt x="673" y="414" on="0"/>
        <pt x="639" y="302" on="0"/>
        <pt x="612" y="192" on="0"/>
        <pt x="594" y="96" on="0"/>
        <pt x="594" y="63" on="1"/>
        <pt x="594" y="61" on="0"/>
        <pt x="595" y="52" on="0"/>
        <pt x="599" y="43" on="0"/>
        <pt x="608" y="35" on="0"/>
        <pt x="617" y="34" on="1"/>
        <pt x="629" y="42" on="0"/>
        <pt x="653" y="50" on="0"/>
        <pt x="661" y="50" on="1"/>
        <pt x="668" y="50" on="0"/>
        <pt x="672" y="44" on="0"/>
        <pt x="672" y="42" on="1"/>
        <pt x="672" y="33" on="0"/>
        <pt x="645" y="9" on="0"/>
        <pt x="607" y="-12" on="0"/>
        <pt x="564" y="-27" on="0"/>
        <pt x="548" y="-27" on="1"/>
        <pt x="532" y="-27" on="0"/>
        <pt x="501" y="-8" on="0"/>
        <pt x="501" y="18" on="1"/>
        <pt x="501" y="44" on="0"/>
        <pt x="508" y="97" on="0"/>
        <pt x="523" y="164" on="0"/>
        <pt x="545" y="250" on="0"/>
        <pt x="561" y="309" on="1"/>
      </contour>
    </TTGlyph>
    <TTGlyph name="V" xMin="51" yMin="-49" xMax="748" yMax="683">
      <contour>
        <pt x="59" y="628" on="1"/>
        <pt x="57" y="628" on="0"/>
        <pt x="53" y="632" on="0"/>
        <pt x="51" y="633" on="1"/>
        <pt x="55" y="646" on="0"/>
        <pt x="73" y="665" on="0"/>
        <pt x="95" y="677" on="0"/>
        <pt x="118" y="683" on="0"/>
        <pt x="127" y="683" on="1"/>
        <pt x="179" y="683" on="0"/>
        <pt x="249" y="629" on="0"/>
        <pt x="295" y="544" on="0"/>
        <pt x="320" y="441" on="0"/>
        <pt x="331" y="343" on="0"/>
        <pt x="333" y="263" on="0"/>
        <pt x="333" y="244" on="1"/>
        <pt x="333" y="215" on="0"/>
        <pt x="331" y="133" on="0"/>
        <pt x="326" y="85" on="1"/>
        <pt x="403" y="139" on="0"/>
        <pt x="539" y="262" on="0"/>
        <pt x="640" y="376" on="0"/>
        <pt x="699" y="472" on="0"/>
        <pt x="699" y="499" on="1"/>
        <pt x="699" y="507" on="0"/>
        <pt x="692" y="533" on="0"/>
        <pt x="672" y="559" on="0"/>
        <pt x="637" y="581" on="0"/>
        <pt x="609" y="584" on="1"/>
        <pt x="599" y="585" on="0"/>
        <pt x="591" y="589" on="0"/>
        <pt x="591" y="603" on="1"/>
        <pt x="591" y="609" on="0"/>
        <pt x="595" y="630" on="0"/>
        <pt x="604" y="653" on="0"/>
        <pt x="618" y="676" on="0"/>
        <pt x="628" y="683" on="1"/>
        <pt x="660" y="683" on="0"/>
        <pt x="706" y="662" on="0"/>
        <pt x="735" y="628" on="0"/>
        <pt x="748" y="584" on="0"/>
        <pt x="748" y="561" on="1"/>
        <pt x="748" y="534" on="0"/>
        <pt x="729" y="458" on="0"/>
        <pt x="684" y="367" on="0"/>
        <pt x="610" y="261" on="0"/>
        <pt x="555" y="204" on="1"/>
        <pt x="500" y="147" on="0"/>
        <pt x="392" y="54" on="0"/>
        <pt x="306" y="-13" on="0"/>
        <pt x="250" y="-49" on="0"/>
        <pt x="246" y="-49" on="1"/>
        <pt x="236" y="-49" on="0"/>
        <pt x="236" y="-30" on="1"/>
        <pt x="236" y="-28" on="0"/>
        <pt x="236" y="-22" on="0"/>
        <pt x="238" y="-11" on="1"/>
        <pt x="243" y="26" on="0"/>
        <pt x="250" y="142" on="0"/>
        <pt x="250" y="201" on="1"/>
        <pt x="250" y="233" on="0"/>
        <pt x="247" y="318" on="0"/>
        <pt x="235" y="410" on="0"/>
        <pt x="212" y="501" on="0"/>
        <pt x="173" y="574" on="0"/>
        <pt x="114" y="623" on="0"/>
        <pt x="72" y="627" on="1"/>
      </contour>
    </TTGlyph>
    <TTGlyph name="W" xMin="51" yMin="-49" xMax="1164" yMax="683">
      <contour>
        <pt x="59" y="628" on="1"/>
        <pt x="57" y="628" on="0"/>
        <pt x="53" y="632" on="0"/>
        <pt x="51" y="633" on="1"/>
        <pt x="55" y="646" on="0"/>
        <pt x="73" y="665" on="0"/>
        <pt x="95" y="677" on="0"/>
        <pt x="118" y="683" on="0"/>
        <pt x="127" y="683" on="1"/>
        <pt x="172" y="683" on="0"/>
        <pt x="232" y="640" on="0"/>
        <pt x="272" y="573" on="0"/>
        <pt x="293" y="491" on="0"/>
        <pt x="303" y="413" on="0"/>
        <pt x="305" y="349" on="0"/>
        <pt x="305" y="333" on="1"/>
        <pt x="305" y="308" on="0"/>
        <pt x="303" y="252" on="0"/>
        <pt x="299" y="196" on="0"/>
        <pt x="294" y="144" on="0"/>
        <pt x="291" y="123" on="1"/>
        <pt x="391" y="238" on="0"/>
        <pt x="560" y="486" on="0"/>
        <pt x="633" y="619" on="1"/>
        <pt x="632" y="621" on="0"/>
        <pt x="627" y="632" on="0"/>
        <pt x="626" y="634" on="1"/>
        <pt x="631" y="648" on="0"/>
        <pt x="651" y="667" on="0"/>
        <pt x="673" y="678" on="0"/>
        <pt x="692" y="683" on="0"/>
        <pt x="695" y="683" on="1"/>
        <pt x="698" y="683" on="0"/>
        <pt x="705" y="682" on="0"/>
        <pt x="707" y="678" on="1"/>
        <pt x="708" y="677" on="0"/>
        <pt x="713" y="667" on="0"/>
        <pt x="718" y="656" on="0"/>
        <pt x="722" y="647" on="0"/>
        <pt x="723" y="645" on="1"/>
        <pt x="757" y="559" on="0"/>
        <pt x="801" y="409" on="0"/>
        <pt x="829" y="274" on="0"/>
        <pt x="845" y="153" on="0"/>
        <pt x="852" y="95" on="1"/>
        <pt x="923" y="176" on="0"/>
        <pt x="1023" y="310" on="0"/>
        <pt x="1086" y="415" on="0"/>
        <pt x="1115" y="488" on="0"/>
        <pt x="1115" y="507" on="1"/>
        <pt x="1115" y="512" on="0"/>
        <pt x="1112" y="534" on="0"/>
        <pt x="1100" y="559" on="0"/>
        <pt x="1074" y="580" on="0"/>
        <pt x="1051" y="583" on="1"/>
        <pt x="1040" y="585" on="0"/>
        <pt x="1034" y="590" on="0"/>
        <pt x="1034" y="603" on="1"/>
        <pt x="1034" y="611" on="0"/>
        <pt x="1040" y="638" on="0"/>
        <pt x="1052" y="664" on="0"/>
        <pt x="1069" y="683" on="0"/>
        <pt x="1079" y="683" on="1"/>
        <pt x="1092" y="683" on="0"/>
        <pt x="1122" y="672" on="0"/>
        <pt x="1147" y="646" on="0"/>
        <pt x="1164" y="602" on="0"/>
        <pt x="1164" y="569" on="1"/>
        <pt x="1164" y="521" on="0"/>
        <pt x="1119" y="396" on="0"/>
        <pt x="1039" y="255" on="0"/>
        <pt x="927" y="102" on="0"/>
        <pt x="859" y="26" on="1"/>
        <pt x="850" y="17" on="0"/>
        <pt x="827" y="-9" on="0"/>
        <pt x="805" y="-33" on="0"/>
        <pt x="786" y="-49" on="0"/>
        <pt x="783" y="-49" on="1"/>
        <pt x="781" y="-49" on="0"/>
        <pt x="777" y="-48" on="0"/>
        <pt x="775" y="-44" on="1"/>
        <pt x="773" y="-41" on="0"/>
        <pt x="773" y="-33" on="0"/>
        <pt x="773" y="-16" on="1"/>
        <pt x="773" y="-9" on="0"/>
        <pt x="769" y="48" on="0"/>
        <pt x="760" y="134" on="0"/>
        <pt x="743" y="246" on="0"/>
        <pt x="716" y="371" on="0"/>
        <pt x="678" y="505" on="0"/>
        <pt x="651" y="571" on="1"/>
        <pt x="630" y="532" on="0"/>
        <pt x="559" y="410" on="0"/>
        <pt x="455" y="254" on="0"/>
        <pt x="316" y="70" on="0"/>
        <pt x="226" y="-29" on="1"/>
        <pt x="212" y="-43" on="0"/>
        <pt x="206" y="-49" on="0"/>
        <pt x="202" y="-49" on="1"/>
        <pt x="192" y="-49" on="0"/>
        <pt x="192" y="-30" on="1"/>
        <pt x="192" y="-27" on="0"/>
        <pt x="193" y="-19" on="0"/>
        <pt x="196" y="-5" on="1"/>
        <pt x="209" y="69" on="0"/>
        <pt x="222" y="227" on="0"/>
        <pt x="222" y="290" on="1"/>
        <pt x="222" y="343" on="0"/>
        <pt x="211" y="459" on="0"/>
        <pt x="179" y="556" on="0"/>
        <pt x="120" y="623" on="0"/>
        <pt x="72" y="627" on="1"/>
      </contour>
    </TTGlyph>
    <TTGlyph name="X" xMin="70" yMin="0" xMax="895" yMax="683">
      <contour>
        <pt x="552" y="399" on="1"/>
        <pt x="600" y="425" on="0"/>
        <pt x="672" y="465" on="0"/>
        <pt x="706" y="486" on="1"/>
        <pt x="742" y="508" on="0"/>
        <pt x="781" y="536" on="0"/>
        <pt x="799" y="555" on="0"/>
        <pt x="802" y="570" on="0"/>
        <pt x="802" y="578" on="1"/>
        <pt x="802" y="593" on="0"/>
        <pt x="794" y="610" on="0"/>
        <pt x="782" y="619" on="0"/>
        <pt x="770" y="622" on="0"/>
        <pt x="766" y="622" on="1"/>
        <pt x="764" y="622" on="0"/>
        <pt x="757" y="625" on="0"/>
        <pt x="757" y="630" on="1"/>
        <pt x="757" y="637" on="0"/>
        <pt x="773" y="655" on="0"/>
        <pt x="798" y="672" on="0"/>
        <pt x="827" y="683" on="0"/>
        <pt x="840" y="683" on="1"/>
        <pt x="860" y="683" on="0"/>
        <pt x="895" y="654" on="0"/>
        <pt x="895" y="623" on="1"/>
        <pt x="895" y="608" on="0"/>
        <pt x="882" y="578" on="0"/>
        <pt x="851" y="542" on="0"/>
        <pt x="798" y="501" on="0"/>
        <pt x="758" y="475" on="1"/>
        <pt x="659" y="414" on="0"/>
        <pt x="557" y="361" on="1"/>
        <pt x="567" y="292" on="0"/>
        <pt x="578" y="216" on="0"/>
        <pt x="583" y="177" on="0"/>
        <pt x="585" y="162" on="0"/>
        <pt x="587" y="152" on="1"/>
        <pt x="594" y="118" on="0"/>
        <pt x="614" y="81" on="0"/>
        <pt x="637" y="64" on="0"/>
        <pt x="663" y="61" on="0"/>
        <pt x="676" y="61" on="1"/>
        <pt x="683" y="72" on="0"/>
        <pt x="704" y="89" on="0"/>
        <pt x="726" y="100" on="0"/>
        <pt x="746" y="106" on="0"/>
        <pt x="752" y="106" on="1"/>
        <pt x="755" y="106" on="0"/>
        <pt x="765" y="104" on="0"/>
        <pt x="765" y="98" on="1"/>
        <pt x="765" y="89" on="0"/>
        <pt x="744" y="56" on="0"/>
        <pt x="701" y="24" on="0"/>
        <pt x="637" y="0" on="0"/>
        <pt x="594" y="0" on="1"/>
        <pt x="556" y="0" on="0"/>
        <pt x="508" y="43" on="0"/>
        <pt x="496" y="99" on="1"/>
        <pt x="494" y="110" on="0"/>
        <pt x="485" y="168" on="0"/>
        <pt x="476" y="236" on="0"/>
        <pt x="467" y="298" on="0"/>
        <pt x="465" y="312" on="1"/>
        <pt x="420" y="288" on="0"/>
        <pt x="364" y="258" on="0"/>
        <pt x="328" y="238" on="0"/>
        <pt x="305" y="225" on="0"/>
        <pt x="293" y="218" on="1"/>
        <pt x="244" y="190" on="0"/>
        <pt x="191" y="154" on="0"/>
        <pt x="167" y="130" on="0"/>
        <pt x="163" y="114" on="0"/>
        <pt x="163" y="105" on="1"/>
        <pt x="163" y="90" on="0"/>
        <pt x="171" y="73" on="0"/>
        <pt x="183" y="64" on="0"/>
        <pt x="195" y="61" on="0"/>
        <pt x="199" y="61" on="1"/>
        <pt x="201" y="61" on="0"/>
        <pt x="208" y="58" on="0"/>
        <pt x="208" y="53" on="1"/>
        <pt x="208" y="46" on="0"/>
        <pt x="192" y="28" on="0"/>
        <pt x="167" y="12" on="0"/>
        <pt x="138" y="0" on="0"/>
        <pt x="125" y="0" on="1"/>
        <pt x="105" y="0" on="0"/>
        <pt x="70" y="29" on="0"/>
        <pt x="70" y="60" on="1"/>
        <pt x="70" y="76" on="0"/>
        <pt x="84" y="108" on="0"/>
        <pt x="121" y="147" on="0"/>
        <pt x="186" y="195" on="0"/>
        <pt x="238" y="227" on="1"/>
        <pt x="279" y="252" on="0"/>
        <pt x="384" y="309" on="0"/>
        <pt x="460" y="350" on="1"/>
        <pt x="448" y="436" on="1"/>
        <pt x="440" y="491" on="0"/>
        <pt x="427" y="563" on="0"/>
        <pt x="407" y="605" on="0"/>
        <pt x="374" y="622" on="0"/>
        <pt x="345" y="622" on="1"/>
        <pt x="338" y="612" on="0"/>
        <pt x="317" y="595" on="0"/>
        <pt x="295" y="583" on="0"/>
        <pt x="275" y="577" on="0"/>
        <pt x="269" y="577" on="1"/>
        <pt x="266" y="577" on="0"/>
        <pt x="256" y="579" on="0"/>
        <pt x="256" y="585" on="1"/>
        <pt x="256" y="594" on="0"/>
        <pt x="277" y="627" on="0"/>
        <pt x="320" y="659" on="0"/>
        <pt x="384" y="683" on="0"/>
        <pt x="427" y="683" on="1"/>
        <pt x="459" y="683" on="0"/>
        <pt x="497" y="659" on="0"/>
        <pt x="519" y="612" on="0"/>
        <pt x="532" y="542" on="0"/>
        <pt x="538" y="497" on="1"/>
      </contour>
    </TTGlyph>
    <TTGlyph name="Y" xMin="50" yMin="-139" xMax="793" yMax="683">
      <contour>
        <pt x="461" y="99" on="1"/>
        <pt x="538" y="165" on="0"/>
        <pt x="647" y="297" on="0"/>
        <pt x="716" y="411" on="0"/>
        <pt x="747" y="495" on="0"/>
        <pt x="747" y="513" on="1"/>
        <pt x="747" y="542" on="0"/>
        <pt x="707" y="593" on="0"/>
        <pt x="662" y="598" on="1"/>
        <pt x="653" y="599" on="0"/>
        <pt x="642" y="604" on="0"/>
        <pt x="642" y="617" on="1"/>
        <pt x="642" y="619" on="0"/>
        <pt x="646" y="640" on="0"/>
        <pt x="655" y="664" on="0"/>
        <pt x="672" y="683" on="0"/>
        <pt x="685" y="683" on="1"/>
        <pt x="707" y="683" on="0"/>
        <pt x="746" y="665" on="0"/>
        <pt x="776" y="634" on="0"/>
        <pt x="793" y="590" on="0"/>
        <pt x="793" y="564" on="1"/>
        <pt x="793" y="536" on="0"/>
        <pt x="768" y="442" on="0"/>
        <pt x="711" y="323" on="0"/>
        <pt x="617" y="185" on="0"/>
        <pt x="547" y="112" on="1"/>
        <pt x="496" y="59" on="0"/>
        <pt x="391" y="-33" on="0"/>
        <pt x="294" y="-101" on="0"/>
        <pt x="214" y="-139" on="0"/>
        <pt x="188" y="-139" on="1"/>
        <pt x="151" y="-139" on="0"/>
        <pt x="98" y="-110" on="0"/>
        <pt x="65" y="-71" on="0"/>
        <pt x="50" y="-34" on="0"/>
        <pt x="50" y="-25" on="1"/>
        <pt x="50" y="-14" on="0"/>
        <pt x="57" y="10" on="0"/>
        <pt x="67" y="29" on="0"/>
        <pt x="80" y="42" on="0"/>
        <pt x="86" y="42" on="1"/>
        <pt x="91" y="42" on="0"/>
        <pt x="94" y="34" on="0"/>
        <pt x="96" y="29" on="1"/>
        <pt x="107" y="-2" on="0"/>
        <pt x="145" y="-36" on="0"/>
        <pt x="184" y="-51" on="0"/>
        <pt x="214" y="-54" on="0"/>
        <pt x="217" y="-54" on="1"/>
        <pt x="235" y="-54" on="0"/>
        <pt x="289" y="-29" on="0"/>
        <pt x="339" y="2" on="0"/>
        <pt x="375" y="28" on="0"/>
        <pt x="376" y="29" on="1"/>
        <pt x="378" y="31" on="0"/>
        <pt x="378" y="44" on="0"/>
        <pt x="378" y="49" on="1"/>
        <pt x="378" y="85" on="1"/>
        <pt x="378" y="120" on="0"/>
        <pt x="374" y="227" on="0"/>
        <pt x="359" y="348" on="0"/>
        <pt x="330" y="469" on="0"/>
        <pt x="281" y="566" on="0"/>
        <pt x="209" y="627" on="0"/>
        <pt x="158" y="627" on="1"/>
        <pt x="152" y="627" on="0"/>
        <pt x="147" y="624" on="0"/>
        <pt x="141" y="619" on="1"/>
        <pt x="130" y="608" on="0"/>
        <pt x="98" y="593" on="0"/>
        <pt x="87" y="593" on="1"/>
        <pt x="84" y="593" on="0"/>
        <pt x="74" y="595" on="0"/>
        <pt x="74" y="602" on="1"/>
        <pt x="74" y="608" on="0"/>
        <pt x="97" y="635" on="0"/>
        <pt x="137" y="662" on="0"/>
        <pt x="189" y="683" on="0"/>
        <pt x="217" y="683" on="1"/>
        <pt x="272" y="683" on="0"/>
        <pt x="350" y="625" on="0"/>
        <pt x="405" y="533" on="0"/>
        <pt x="438" y="417" on="0"/>
        <pt x="455" y="299" on="0"/>
        <pt x="461" y="192" on="0"/>
        <pt x="461" y="155" on="1"/>
      </contour>
    </TTGlyph>
    <TTGlyph name="Z" xMin="56" yMin="0" xMax="847" yMax="683">
      <contour>
        <pt x="602" y="482" on="1"/>
        <pt x="632" y="513" on="0"/>
        <pt x="676" y="558" on="0"/>
        <pt x="692" y="575" on="1"/>
        <pt x="697" y="580" on="0"/>
        <pt x="706" y="590" on="0"/>
        <pt x="708" y="592" on="1"/>
        <pt x="708" y="593" on="1"/>
        <pt x="702" y="591" on="0"/>
        <pt x="684" y="591" on="0"/>
        <pt x="676" y="591" on="1"/>
        <pt x="646" y="591" on="0"/>
        <pt x="580" y="599" on="0"/>
        <pt x="551" y="604" on="1"/>
        <pt x="516" y="609" on="0"/>
        <pt x="451" y="617" on="0"/>
        <pt x="426" y="617" on="1"/>
        <pt x="422" y="617" on="0"/>
        <pt x="378" y="615" on="0"/>
        <pt x="355" y="607" on="1"/>
        <pt x="345" y="603" on="0"/>
        <pt x="326" y="589" on="0"/>
        <pt x="317" y="563" on="1"/>
        <pt x="313" y="553" on="0"/>
        <pt x="301" y="536" on="0"/>
        <pt x="279" y="522" on="1"/>
        <pt x="271" y="517" on="0"/>
        <pt x="238" y="500" on="0"/>
        <pt x="225" y="500" on="1"/>
        <pt x="222" y="500" on="0"/>
        <pt x="213" y="502" on="0"/>
        <pt x="213" y="508" on="1"/>
        <pt x="213" y="527" on="0"/>
        <pt x="257" y="586" on="0"/>
        <pt x="335" y="642" on="0"/>
        <pt x="443" y="683" on="0"/>
        <pt x="508" y="683" on="1"/>
        <pt x="538" y="683" on="0"/>
        <pt x="595" y="677" on="0"/>
        <pt x="634" y="671" on="1"/>
        <pt x="663" y="666" on="0"/>
        <pt x="732" y="657" on="0"/>
        <pt x="758" y="657" on="1"/>
        <pt x="769" y="657" on="0"/>
        <pt x="776" y="658" on="0"/>
        <pt x="783" y="663" on="1"/>
        <pt x="791" y="668" on="0"/>
        <pt x="823" y="683" on="0"/>
        <pt x="835" y="683" on="1"/>
        <pt x="837" y="683" on="0"/>
        <pt x="847" y="681" on="0"/>
        <pt x="847" y="676" on="1"/>
        <pt x="847" y="671" on="0"/>
        <pt x="840" y="662" on="0"/>
        <pt x="831" y="652" on="1"/>
        <pt x="825" y="646" on="0"/>
        <pt x="819" y="638" on="0"/>
        <pt x="811" y="630" on="0"/>
        <pt x="802" y="619" on="0"/>
        <pt x="793" y="610" on="1"/>
        <pt x="756" y="572" on="0"/>
        <pt x="678" y="491" on="0"/>
        <pt x="644" y="461" on="1"/>
        <pt x="641" y="459" on="0"/>
        <pt x="620" y="439" on="0"/>
        <pt x="597" y="417" on="0"/>
        <pt x="578" y="399" on="0"/>
        <pt x="578" y="398" on="1"/>
        <pt x="578" y="397" on="0"/>
        <pt x="598" y="396" on="0"/>
        <pt x="600" y="396" on="1"/>
        <pt x="603" y="396" on="0"/>
        <pt x="625" y="394" on="0"/>
        <pt x="649" y="388" on="0"/>
        <pt x="668" y="375" on="0"/>
        <pt x="668" y="364" on="1"/>
        <pt x="668" y="356" on="0"/>
        <pt x="656" y="341" on="0"/>
        <pt x="639" y="329" on="0"/>
        <pt x="620" y="322" on="0"/>
        <pt x="613" y="322" on="1"/>
        <pt x="608" y="322" on="0"/>
        <pt x="598" y="325" on="0"/>
        <pt x="598" y="336" on="1"/>
        <pt x="582" y="343" on="0"/>
        <pt x="547" y="346" on="0"/>
        <pt x="519" y="347" on="1"/>
        <pt x="499" y="329" on="0"/>
        <pt x="429" y="268" on="0"/>
        <pt x="344" y="197" on="0"/>
        <pt x="253" y="122" on="0"/>
        <pt x="211" y="89" on="1"/>
        <pt x="223" y="91" on="0"/>
        <pt x="250" y="92" on="0"/>
        <pt x="259" y="92" on="1"/>
        <pt x="305" y="92" on="0"/>
        <pt x="412" y="82" on="0"/>
        <pt x="460" y="77" on="1"/>
        <pt x="499" y="73" on="0"/>
        <pt x="577" y="66" on="0"/>
        <pt x="616" y="66" on="1"/>
        <pt x="625" y="66" on="0"/>
        <pt x="637" y="67" on="0"/>
        <pt x="645" y="70" on="0"/>
        <pt x="652" y="79" on="0"/>
        <pt x="657" y="86" on="1"/>
        <pt x="665" y="96" on="0"/>
        <pt x="681" y="124" on="0"/>
        <pt x="689" y="147" on="1"/>
        <pt x="692" y="157" on="0"/>
        <pt x="704" y="177" on="0"/>
        <pt x="726" y="191" on="1"/>
        <pt x="728" y="192" on="0"/>
        <pt x="740" y="199" on="0"/>
        <pt x="755" y="206" on="0"/>
        <pt x="773" y="212" on="0"/>
        <pt x="781" y="212" on="1"/>
        <pt x="784" y="212" on="0"/>
        <pt x="793" y="210" on="0"/>
        <pt x="793" y="205" on="1"/>
        <pt x="793" y="204" on="0"/>
        <pt x="787" y="178" on="0"/>
        <pt x="768" y="139" on="0"/>
        <pt x="733" y="92" on="0"/>
        <pt x="705" y="68" on="1"/>
        <pt x="694" y="59" on="0"/>
        <pt x="660" y="35" on="0"/>
        <pt x="617" y="14" on="0"/>
        <pt x="564" y="0" on="0"/>
        <pt x="534" y="0" on="1"/>
        <pt x="512" y="0" on="0"/>
        <pt x="462" y="3" on="0"/>
        <pt x="413" y="7" on="0"/>
        <pt x="369" y="12" on="0"/>
        <pt x="354" y="13" on="1"/>
        <pt x="333" y="15" on="0"/>
        <pt x="285" y="20" on="0"/>
        <pt x="238" y="24" on="0"/>
        <pt x="194" y="26" on="0"/>
        <pt x="177" y="26" on="1"/>
        <pt x="158" y="26" on="0"/>
        <pt x="123" y="21" on="0"/>
        <pt x="102" y="11" on="1"/>
        <pt x="87" y="3" on="0"/>
        <pt x="70" y="0" on="0"/>
        <pt x="68" y="0" on="1"/>
        <pt x="66" y="0" on="0"/>
        <pt x="56" y="2" on="0"/>
        <pt x="56" y="7" on="1"/>
        <pt x="56" y="13" on="0"/>
        <pt x="66" y="25" on="0"/>
        <pt x="71" y="30" on="1"/>
        <pt x="72" y="31" on="0"/>
        <pt x="87" y="42" on="0"/>
        <pt x="106" y="57" on="0"/>
        <pt x="123" y="70" on="0"/>
        <pt x="126" y="72" on="1"/>
        <pt x="158" y="97" on="0"/>
        <pt x="243" y="165" on="0"/>
        <pt x="333" y="240" on="0"/>
        <pt x="421" y="316" on="0"/>
        <pt x="455" y="347" on="1"/>
        <pt x="356" y="347" on="1"/>
        <pt x="344" y="347" on="0"/>
        <pt x="329" y="349" on="0"/>
        <pt x="329" y="357" on="1"/>
        <pt x="329" y="359" on="0"/>
        <pt x="335" y="372" on="0"/>
        <pt x="350" y="386" on="0"/>
        <pt x="377" y="397" on="0"/>
        <pt x="398" y="397" on="1"/>
        <pt x="512" y="397" on="1"/>
      </contour>
    </TTGlyph>
    <TTGlyph name="angbracketleft" xMin="138" yMin="-249" xMax="384" yMax="750">
      <contour>
        <pt x="189" y="250" on="1"/>
        <pt x="378" y="-205" on="1"/>
        <pt x="383" y="-216" on="0"/>
        <pt x="384" y="-222" on="0"/>
        <pt x="384" y="-224" on="1"/>
        <pt x="384" y="-236" on="0"/>
        <pt x="368" y="-249" on="0"/>
        <pt x="360" y="-249" on="1"/>
        <pt x="348" y="-249" on="0"/>
        <pt x="337" y="-234" on="0"/>
        <pt x="332" y="-223" on="1"/>
        <pt x="144" y="231" on="1"/>
        <pt x="139" y="242" on="0"/>
        <pt x="138" y="247" on="0"/>
        <pt x="138" y="251" on="1"/>
        <pt x="138" y="253" on="0"/>
        <pt x="139" y="259" on="0"/>
        <pt x="144" y="270" on="1"/>
        <pt x="333" y="725" on="1"/>
        <pt x="338" y="736" on="0"/>
        <pt x="347" y="750" on="0"/>
        <pt x="360" y="750" on="1"/>
        <pt x="368" y="750" on="0"/>
        <pt x="384" y="737" on="0"/>
        <pt x="384" y="725" on="1"/>
        <pt x="384" y="723" on="0"/>
        <pt x="383" y="717" on="0"/>
        <pt x="378" y="706" on="1"/>
      </contour>
    </TTGlyph>
    <TTGlyph name="angbracketright" xMin="77" yMin="-249" xMax="323" yMax="750">
      <contour>
        <pt x="128" y="-224" on="1"/>
        <pt x="123" y="-235" on="0"/>
        <pt x="114" y="-249" on="0"/>
        <pt x="101" y="-249" on="1"/>
        <pt x="93" y="-249" on="0"/>
        <pt x="77" y="-236" on="0"/>
        <pt x="77" y="-224" on="1"/>
        <pt x="77" y="-222" on="0"/>
        <pt x="78" y="-216" on="0"/>
        <pt x="83" y="-205" on="1"/>
        <pt x="272" y="251" on="1"/>
        <pt x="83" y="706" on="1"/>
        <pt x="78" y="717" on="0"/>
        <pt x="77" y="723" on="0"/>
        <pt x="77" y="725" on="1"/>
        <pt x="77" y="737" on="0"/>
        <pt x="93" y="750" on="0"/>
        <pt x="101" y="750" on="1"/>
        <pt x="113" y="750" on="0"/>
        <pt x="124" y="735" on="0"/>
        <pt x="129" y="724" on="1"/>
        <pt x="317" y="270" on="1"/>
        <pt x="322" y="259" on="0"/>
        <pt x="323" y="254" on="0"/>
        <pt x="323" y="250" on="1"/>
        <pt x="323" y="248" on="0"/>
        <pt x="322" y="242" on="0"/>
        <pt x="317" y="231" on="1"/>
      </contour>
    </TTGlyph>
    <TTGlyph name="approxequal" xMin="77" yMin="32" xMax="815" yMax="516">
      <contour>
        <pt x="815" y="478" on="1"/>
        <pt x="815" y="438" on="0"/>
        <pt x="785" y="371" on="0"/>
        <pt x="735" y="323" on="0"/>
        <pt x="668" y="296" on="0"/>
        <pt x="630" y="296" on="1"/>
        <pt x="577" y="296" on="0"/>
        <pt x="483" y="346" on="0"/>
        <pt x="430" y="381" on="1"/>
        <pt x="385" y="410" on="0"/>
        <pt x="307" y="447" on="0"/>
        <pt x="262" y="447" on="1"/>
        <pt x="235" y="447" on="0"/>
        <pt x="182" y="431" on="0"/>
        <pt x="140" y="399" on="0"/>
        <pt x="113" y="354" on="0"/>
        <pt x="111" y="324" on="1"/>
        <pt x="110" y="317" on="0"/>
        <pt x="102" y="297" on="0"/>
        <pt x="94" y="297" on="1"/>
        <pt x="93" y="297" on="0"/>
        <pt x="87" y="299" on="0"/>
        <pt x="81" y="306" on="0"/>
        <pt x="77" y="321" on="0"/>
        <pt x="77" y="334" on="1"/>
        <pt x="77" y="374" on="0"/>
        <pt x="107" y="441" on="0"/>
        <pt x="157" y="489" on="0"/>
        <pt x="225" y="516" on="0"/>
        <pt x="262" y="516" on="1"/>
        <pt x="315" y="516" on="0"/>
        <pt x="409" y="466" on="0"/>
        <pt x="462" y="431" on="1"/>
        <pt x="507" y="402" on="0"/>
        <pt x="585" y="365" on="0"/>
        <pt x="630" y="365" on="1"/>
        <pt x="657" y="365" on="0"/>
        <pt x="710" y="381" on="0"/>
        <pt x="752" y="413" on="0"/>
        <pt x="780" y="458" on="0"/>
        <pt x="781" y="488" on="1"/>
        <pt x="782" y="496" on="0"/>
        <pt x="790" y="515" on="0"/>
        <pt x="798" y="515" on="1"/>
        <pt x="799" y="515" on="0"/>
        <pt x="805" y="513" on="0"/>
        <pt x="811" y="506" on="0"/>
        <pt x="815" y="491" on="0"/>
      </contour>
      <contour>
        <pt x="815" y="214" on="1"/>
        <pt x="815" y="174" on="0"/>
        <pt x="785" y="107" on="0"/>
        <pt x="735" y="59" on="0"/>
        <pt x="668" y="32" on="0"/>
        <pt x="630" y="32" on="1"/>
        <pt x="577" y="32" on="0"/>
        <pt x="483" y="82" on="0"/>
        <pt x="430" y="117" on="1"/>
        <pt x="385" y="146" on="0"/>
        <pt x="307" y="183" on="0"/>
        <pt x="262" y="183" on="1"/>
        <pt x="235" y="183" on="0"/>
        <pt x="182" y="167" on="0"/>
        <pt x="140" y="135" on="0"/>
        <pt x="113" y="90" on="0"/>
        <pt x="111" y="60" on="1"/>
        <pt x="110" y="53" on="0"/>
        <pt x="102" y="33" on="0"/>
        <pt x="94" y="33" on="1"/>
        <pt x="93" y="33" on="0"/>
        <pt x="87" y="35" on="0"/>
        <pt x="81" y="42" on="0"/>
        <pt x="77" y="57" on="0"/>
        <pt x="77" y="70" on="1"/>
        <pt x="77" y="110" on="0"/>
        <pt x="107" y="177" on="0"/>
        <pt x="157" y="225" on="0"/>
        <pt x="225" y="252" on="0"/>
        <pt x="262" y="252" on="1"/>
        <pt x="315" y="252" on="0"/>
        <pt x="409" y="202" on="0"/>
        <pt x="462" y="167" on="1"/>
        <pt x="507" y="138" on="0"/>
        <pt x="585" y="101" on="0"/>
        <pt x="630" y="101" on="1"/>
        <pt x="657" y="101" on="0"/>
        <pt x="710" y="117" on="0"/>
        <pt x="752" y="149" on="0"/>
        <pt x="780" y="194" on="0"/>
        <pt x="781" y="224" on="1"/>
        <pt x="782" y="232" on="0"/>
        <pt x="790" y="251" on="0"/>
        <pt x="798" y="251" on="1"/>
        <pt x="801" y="251" on="0"/>
        <pt x="815" y="239" on="0"/>
      </contour>
    </TTGlyph>
    <TTGlyph name="arrowboth" xMin="77" yMin="-13" xMax="1061" yMax="514">
      <contour>
        <pt x="920" y="275" on="1"/>
        <pt x="869" y="312" on="0"/>
        <pt x="836" y="361" on="1"/>
        <pt x="818" y="387" on="0"/>
        <pt x="795" y="436" on="0"/>
        <pt x="782" y="474" on="0"/>
        <pt x="777" y="498" on="0"/>
        <pt x="777" y="499" on="1"/>
        <pt x="777" y="510" on="0"/>
        <pt x="790" y="514" on="0"/>
        <pt x="801" y="514" on="1"/>
        <pt x="812" y="514" on="0"/>
        <pt x="823" y="511" on="0"/>
        <pt x="826" y="502" on="1"/>
        <pt x="834" y="469" on="0"/>
        <pt x="863" y="400" on="0"/>
        <pt x="913" y="337" on="0"/>
        <pt x="988" y="283" on="0"/>
        <pt x="1042" y="266" on="1"/>
        <pt x="1052" y="263" on="0"/>
        <pt x="1061" y="258" on="0"/>
        <pt x="1061" y="250" on="1"/>
        <pt x="1061" y="240" on="0"/>
        <pt x="1051" y="237" on="1"/>
        <pt x="1035" y="232" on="0"/>
        <pt x="1001" y="220" on="0"/>
        <pt x="963" y="201" on="0"/>
        <pt x="923" y="171" on="0"/>
        <pt x="901" y="148" on="1"/>
        <pt x="882" y="127" on="0"/>
        <pt x="855" y="84" on="0"/>
        <pt x="838" y="45" on="0"/>
        <pt x="829" y="13" on="0"/>
        <pt x="827" y="4" on="1"/>
        <pt x="823" y="-9" on="0"/>
        <pt x="815" y="-13" on="0"/>
        <pt x="801" y="-13" on="1"/>
        <pt x="790" y="-13" on="0"/>
        <pt x="777" y="-9" on="0"/>
        <pt x="777" y="2" on="1"/>
        <pt x="777" y="2" on="0"/>
        <pt x="786" y="47" on="0"/>
        <pt x="816" y="113" on="0"/>
        <pt x="873" y="192" on="0"/>
        <pt x="920" y="226" on="1"/>
        <pt x="218" y="226" on="1"/>
        <pt x="269" y="189" on="0"/>
        <pt x="302" y="140" on="1"/>
        <pt x="320" y="114" on="0"/>
        <pt x="343" y="65" on="0"/>
        <pt x="356" y="27" on="0"/>
        <pt x="361" y="3" on="0"/>
        <pt x="361" y="2" on="1"/>
        <pt x="361" y="-9" on="0"/>
        <pt x="348" y="-13" on="0"/>
        <pt x="337" y="-13" on="1"/>
        <pt x="326" y="-13" on="0"/>
        <pt x="315" y="-10" on="0"/>
        <pt x="312" y="-1" on="1"/>
        <pt x="303" y="36" on="0"/>
        <pt x="271" y="107" on="0"/>
        <pt x="219" y="170" on="0"/>
        <pt x="143" y="220" on="0"/>
        <pt x="89" y="236" on="1"/>
        <pt x="88" y="237" on="0"/>
        <pt x="77" y="243" on="0"/>
        <pt x="77" y="251" on="1"/>
        <pt x="77" y="256" on="0"/>
        <pt x="84" y="262" on="0"/>
        <pt x="87" y="264" on="1"/>
        <pt x="116" y="273" on="0"/>
        <pt x="183" y="304" on="0"/>
        <pt x="245" y="357" on="0"/>
        <pt x="296" y="438" on="0"/>
        <pt x="311" y="497" on="1"/>
        <pt x="315" y="510" on="0"/>
        <pt x="323" y="514" on="0"/>
        <pt x="337" y="514" on="1"/>
        <pt x="348" y="514" on="0"/>
        <pt x="361" y="510" on="0"/>
        <pt x="361" y="499" on="1"/>
        <pt x="361" y="499" on="0"/>
        <pt x="352" y="454" on="0"/>
        <pt x="322" y="388" on="0"/>
        <pt x="265" y="310" on="0"/>
        <pt x="218" y="275" on="1"/>
      </contour>
    </TTGlyph>
    <TTGlyph name="arrowbothv" xMin="33" yMin="-270" xMax="552" yMax="770">
      <contour>
        <pt x="317" y="-124" on="1"/>
        <pt x="350" y="-78" on="0"/>
        <pt x="425" y="-22" on="0"/>
        <pt x="490" y="8" on="0"/>
        <pt x="535" y="18" on="0"/>
        <pt x="537" y="18" on="1"/>
        <pt x="548" y="18" on="0"/>
        <pt x="552" y="2" on="0"/>
        <pt x="552" y="-6" on="1"/>
        <pt x="552" y="-22" on="0"/>
        <pt x="544" y="-29" on="0"/>
        <pt x="529" y="-33" on="1"/>
        <pt x="465" y="-50" on="0"/>
        <pt x="383" y="-112" on="0"/>
        <pt x="333" y="-181" on="0"/>
        <pt x="311" y="-243" on="0"/>
        <pt x="306" y="-260" on="1"/>
        <pt x="303" y="-270" on="0"/>
        <pt x="292" y="-270" on="1"/>
        <pt x="284" y="-270" on="0"/>
        <pt x="280" y="-260" on="0"/>
        <pt x="276" y="-249" on="1"/>
        <pt x="258" y="-185" on="0"/>
        <pt x="193" y="-103" on="0"/>
        <pt x="123" y="-55" on="0"/>
        <pt x="61" y="-34" on="0"/>
        <pt x="46" y="-30" on="1"/>
        <pt x="36" y="-28" on="0"/>
        <pt x="33" y="-14" on="0"/>
        <pt x="33" y="-6" on="1"/>
        <pt x="33" y="2" on="0"/>
        <pt x="37" y="18" on="0"/>
        <pt x="48" y="18" on="1"/>
        <pt x="50" y="18" on="0"/>
        <pt x="95" y="8" on="0"/>
        <pt x="160" y="-22" on="0"/>
        <pt x="235" y="-78" on="0"/>
        <pt x="268" y="-124" on="1"/>
        <pt x="268" y="624" on="1"/>
        <pt x="235" y="578" on="0"/>
        <pt x="160" y="522" on="0"/>
        <pt x="95" y="492" on="0"/>
        <pt x="50" y="482" on="0"/>
        <pt x="48" y="482" on="1"/>
        <pt x="37" y="482" on="0"/>
        <pt x="33" y="498" on="0"/>
        <pt x="33" y="506" on="1"/>
        <pt x="33" y="522" on="0"/>
        <pt x="41" y="529" on="0"/>
        <pt x="56" y="533" on="1"/>
        <pt x="120" y="550" on="0"/>
        <pt x="202" y="612" on="0"/>
        <pt x="252" y="681" on="0"/>
        <pt x="275" y="743" on="0"/>
        <pt x="279" y="760" on="1"/>
        <pt x="282" y="770" on="0"/>
        <pt x="293" y="770" on="1"/>
        <pt x="301" y="770" on="0"/>
        <pt x="305" y="760" on="0"/>
        <pt x="309" y="749" on="1"/>
        <pt x="327" y="685" on="0"/>
        <pt x="392" y="603" on="0"/>
        <pt x="462" y="555" on="0"/>
        <pt x="524" y="534" on="0"/>
        <pt x="539" y="530" on="1"/>
        <pt x="549" y="528" on="0"/>
        <pt x="552" y="514" on="0"/>
        <pt x="552" y="506" on="1"/>
        <pt x="552" y="498" on="0"/>
        <pt x="548" y="482" on="0"/>
        <pt x="537" y="482" on="1"/>
        <pt x="535" y="482" on="0"/>
        <pt x="490" y="492" on="0"/>
        <pt x="425" y="522" on="0"/>
        <pt x="350" y="578" on="0"/>
        <pt x="317" y="624" on="1"/>
      </contour>
    </TTGlyph>
    <TTGlyph name="arrowdblboth" xMin="57" yMin="-40" xMax="1081" yMax="541">
      <contour>
        <pt x="820" y="385" on="1"/>
        <pt x="798" y="412" on="0"/>
        <pt x="766" y="462" on="0"/>
        <pt x="746" y="501" on="0"/>
        <pt x="736" y="525" on="0"/>
        <pt x="736" y="527" on="1"/>
        <pt x="736" y="538" on="0"/>
        <pt x="752" y="541" on="0"/>
        <pt x="760" y="541" on="1"/>
        <pt x="774" y="541" on="0"/>
        <pt x="781" y="536" on="0"/>
        <pt x="787" y="523" on="1"/>
        <pt x="833" y="426" on="0"/>
        <pt x="972" y="301" on="0"/>
        <pt x="1067" y="266" on="1"/>
        <pt x="1071" y="264" on="0"/>
        <pt x="1081" y="259" on="0"/>
        <pt x="1081" y="251" on="1"/>
        <pt x="1081" y="243" on="0"/>
        <pt x="1071" y="238" on="0"/>
        <pt x="1068" y="236" on="1"/>
        <pt x="1026" y="221" on="0"/>
        <pt x="947" y="176" on="0"/>
        <pt x="875" y="114" on="0"/>
        <pt x="812" y="32" on="0"/>
        <pt x="787" y="-22" on="1"/>
        <pt x="781" y="-35" on="0"/>
        <pt x="774" y="-40" on="0"/>
        <pt x="760" y="-40" on="1"/>
        <pt x="752" y="-40" on="0"/>
        <pt x="736" y="-37" on="0"/>
        <pt x="736" y="-26" on="1"/>
        <pt x="736" y="-23" on="0"/>
        <pt x="747" y="4" on="0"/>
        <pt x="769" y="44" on="0"/>
        <pt x="800" y="92" on="0"/>
        <pt x="819" y="116" on="1"/>
        <pt x="319" y="116" on="1"/>
        <pt x="339" y="92" on="0"/>
        <pt x="369" y="44" on="0"/>
        <pt x="391" y="4" on="0"/>
        <pt x="402" y="-23" on="0"/>
        <pt x="402" y="-26" on="1"/>
        <pt x="402" y="-37" on="0"/>
        <pt x="386" y="-40" on="0"/>
        <pt x="378" y="-40" on="1"/>
        <pt x="364" y="-40" on="0"/>
        <pt x="357" y="-35" on="0"/>
        <pt x="352" y="-25" on="1"/>
        <pt x="309" y="69" on="0"/>
        <pt x="171" y="198" on="0"/>
        <pt x="71" y="236" on="1"/>
        <pt x="67" y="238" on="0"/>
        <pt x="57" y="243" on="0"/>
        <pt x="57" y="251" on="1"/>
        <pt x="57" y="256" on="0"/>
        <pt x="64" y="263" on="0"/>
        <pt x="67" y="265" on="1"/>
        <pt x="88" y="273" on="0"/>
        <pt x="158" y="303" on="0"/>
        <pt x="237" y="362" on="0"/>
        <pt x="318" y="454" on="0"/>
        <pt x="351" y="523" on="1"/>
        <pt x="357" y="536" on="0"/>
        <pt x="364" y="541" on="0"/>
        <pt x="378" y="541" on="1"/>
        <pt x="386" y="541" on="0"/>
        <pt x="402" y="538" on="0"/>
        <pt x="402" y="527" on="1"/>
        <pt x="402" y="525" on="0"/>
        <pt x="392" y="500" on="0"/>
        <pt x="372" y="461" on="0"/>
        <pt x="340" y="412" on="0"/>
        <pt x="318" y="385" on="1"/>
      </contour>
      <contour>
        <pt x="846" y="165" on="1"/>
        <pt x="860" y="165" on="0"/>
        <pt x="867" y="167" on="0"/>
        <pt x="871" y="170" on="1"/>
        <pt x="929" y="222" on="0"/>
        <pt x="986" y="251" on="1"/>
        <pt x="958" y="266" on="0"/>
        <pt x="898" y="306" on="0"/>
        <pt x="867" y="336" on="1"/>
        <pt x="271" y="336" on="1"/>
        <pt x="238" y="304" on="0"/>
        <pt x="177" y="264" on="0"/>
        <pt x="152" y="251" on="1"/>
        <pt x="214" y="219" on="0"/>
        <pt x="265" y="172" on="1"/>
        <pt x="270" y="167" on="0"/>
        <pt x="278" y="165" on="0"/>
        <pt x="292" y="165" on="1"/>
      </contour>
    </TTGlyph>
    <TTGlyph name="arrowdblbothv" xMin="46" yMin="-270" xMax="662" yMax="770">
      <contour>
        <pt x="489" y="-39" on="1"/>
        <pt x="520" y="-16" on="0"/>
        <pt x="576" y="17" on="0"/>
        <pt x="619" y="37" on="0"/>
        <pt x="646" y="46" on="0"/>
        <pt x="648" y="46" on="1"/>
        <pt x="659" y="46" on="0"/>
        <pt x="662" y="29" on="0"/>
        <pt x="662" y="21" on="1"/>
        <pt x="662" y="12" on="0"/>
        <pt x="660" y="1" on="0"/>
        <pt x="652" y="-2" on="1"/>
        <pt x="634" y="-9" on="0"/>
        <pt x="567" y="-40" on="0"/>
        <pt x="488" y="-97" on="0"/>
        <pt x="407" y="-183" on="0"/>
        <pt x="375" y="-245" on="1"/>
        <pt x="367" y="-259" on="0"/>
        <pt x="363" y="-265" on="0"/>
        <pt x="361" y="-267" on="1"/>
        <pt x="358" y="-270" on="0"/>
        <pt x="354" y="-270" on="1"/>
        <pt x="347" y="-270" on="0"/>
        <pt x="342" y="-262" on="0"/>
        <pt x="340" y="-259" on="1"/>
        <pt x="323" y="-225" on="0"/>
        <pt x="276" y="-155" on="0"/>
        <pt x="211" y="-89" on="0"/>
        <pt x="124" y="-30" on="0"/>
        <pt x="67" y="-7" on="1"/>
        <pt x="52" y="0" on="0"/>
        <pt x="46" y="7" on="0"/>
        <pt x="46" y="21" on="1"/>
        <pt x="46" y="29" on="0"/>
        <pt x="49" y="46" on="0"/>
        <pt x="60" y="46" on="1"/>
        <pt x="62" y="46" on="0"/>
        <pt x="89" y="37" on="0"/>
        <pt x="132" y="16" on="0"/>
        <pt x="188" y="-16" on="0"/>
        <pt x="219" y="-39" on="1"/>
        <pt x="219" y="539" on="1"/>
        <pt x="188" y="516" on="0"/>
        <pt x="132" y="483" on="0"/>
        <pt x="89" y="463" on="0"/>
        <pt x="62" y="454" on="0"/>
        <pt x="60" y="454" on="1"/>
        <pt x="49" y="454" on="0"/>
        <pt x="46" y="471" on="0"/>
        <pt x="46" y="479" on="1"/>
        <pt x="46" y="488" on="0"/>
        <pt x="48" y="499" on="0"/>
        <pt x="56" y="502" on="1"/>
        <pt x="74" y="509" on="0"/>
        <pt x="141" y="540" on="0"/>
        <pt x="220" y="597" on="0"/>
        <pt x="301" y="683" on="0"/>
        <pt x="333" y="745" on="1"/>
        <pt x="341" y="759" on="0"/>
        <pt x="345" y="765" on="0"/>
        <pt x="347" y="767" on="1"/>
        <pt x="350" y="770" on="0"/>
        <pt x="354" y="770" on="1"/>
        <pt x="361" y="770" on="0"/>
        <pt x="366" y="762" on="0"/>
        <pt x="368" y="759" on="1"/>
        <pt x="385" y="725" on="0"/>
        <pt x="432" y="655" on="0"/>
        <pt x="497" y="589" on="0"/>
        <pt x="584" y="530" on="0"/>
        <pt x="641" y="507" on="1"/>
        <pt x="656" y="500" on="0"/>
        <pt x="662" y="493" on="0"/>
        <pt x="662" y="479" on="1"/>
        <pt x="662" y="471" on="0"/>
        <pt x="659" y="454" on="0"/>
        <pt x="648" y="454" on="1"/>
        <pt x="646" y="454" on="0"/>
        <pt x="619" y="463" on="0"/>
        <pt x="576" y="484" on="0"/>
        <pt x="520" y="516" on="0"/>
        <pt x="489" y="539" on="1"/>
      </contour>
      <contour>
        <pt x="268" y="-82" on="1"/>
        <pt x="282" y="-95" on="0"/>
        <pt x="326" y="-143" on="0"/>
        <pt x="354" y="-186" on="1"/>
        <pt x="382" y="-143" on="0"/>
        <pt x="426" y="-95" on="0"/>
        <pt x="440" y="-82" on="1"/>
        <pt x="440" y="582" on="1"/>
        <pt x="426" y="595" on="0"/>
        <pt x="382" y="643" on="0"/>
        <pt x="354" y="686" on="1"/>
        <pt x="326" y="643" on="0"/>
        <pt x="282" y="595" on="0"/>
        <pt x="268" y="582" on="1"/>
      </contour>
    </TTGlyph>
    <TTGlyph name="arrowdbldown" xMin="46" yMin="-194" xMax="662" yMax="694">
      <contour>
        <pt x="489" y="79" on="1"/>
        <pt x="518" y="104" on="0"/>
        <pt x="573" y="141" on="0"/>
        <pt x="617" y="165" on="0"/>
        <pt x="646" y="177" on="0"/>
        <pt x="648" y="177" on="1"/>
        <pt x="659" y="177" on="0"/>
        <pt x="662" y="161" on="0"/>
        <pt x="662" y="153" on="1"/>
        <pt x="662" y="145" on="0"/>
        <pt x="660" y="133" on="0"/>
        <pt x="653" y="129" on="1"/>
        <pt x="552" y="83" on="0"/>
        <pt x="410" y="-65" on="0"/>
        <pt x="368" y="-180" on="1"/>
        <pt x="367" y="-184" on="0"/>
        <pt x="362" y="-194" on="0"/>
        <pt x="354" y="-194" on="1"/>
        <pt x="346" y="-194" on="0"/>
        <pt x="341" y="-184" on="0"/>
        <pt x="336" y="-171" on="1"/>
        <pt x="299" y="-71" on="0"/>
        <pt x="162" y="80" on="0"/>
        <pt x="58" y="128" on="1"/>
        <pt x="49" y="133" on="0"/>
        <pt x="46" y="142" on="0"/>
        <pt x="46" y="153" on="1"/>
        <pt x="46" y="161" on="0"/>
        <pt x="49" y="177" on="0"/>
        <pt x="60" y="177" on="1"/>
        <pt x="62" y="177" on="0"/>
        <pt x="91" y="165" on="0"/>
        <pt x="135" y="141" on="0"/>
        <pt x="190" y="104" on="0"/>
        <pt x="219" y="79" on="1"/>
        <pt x="219" y="651" on="1"/>
        <pt x="219" y="658" on="0"/>
        <pt x="220" y="673" on="0"/>
        <pt x="224" y="686" on="0"/>
        <pt x="235" y="694" on="0"/>
        <pt x="244" y="694" on="1"/>
        <pt x="262" y="694" on="0"/>
        <pt x="268" y="668" on="0"/>
        <pt x="268" y="656" on="1"/>
        <pt x="268" y="50" on="1"/>
        <pt x="268" y="36" on="0"/>
        <pt x="270" y="27" on="0"/>
        <pt x="276" y="22" on="1"/>
        <pt x="307" y="-15" on="0"/>
        <pt x="347" y="-82" on="0"/>
        <pt x="354" y="-96" on="1"/>
        <pt x="355" y="-93" on="0"/>
        <pt x="366" y="-72" on="0"/>
        <pt x="386" y="-39" on="0"/>
        <pt x="415" y="1" on="0"/>
        <pt x="433" y="23" on="1"/>
        <pt x="438" y="28" on="0"/>
        <pt x="440" y="36" on="0"/>
        <pt x="440" y="50" on="1"/>
        <pt x="440" y="656" on="1"/>
        <pt x="440" y="668" on="0"/>
        <pt x="446" y="694" on="0"/>
        <pt x="464" y="694" on="1"/>
        <pt x="473" y="694" on="0"/>
        <pt x="484" y="686" on="0"/>
        <pt x="488" y="673" on="0"/>
        <pt x="489" y="658" on="0"/>
        <pt x="489" y="651" on="1"/>
      </contour>
    </TTGlyph>
    <TTGlyph name="arrowdblleft" xMin="77" yMin="-40" xMax="1061" yMax="541">
      <contour>
        <pt x="387" y="116" on="1"/>
        <pt x="419" y="80" on="0"/>
        <pt x="457" y="27" on="0"/>
        <pt x="478" y="-8" on="0"/>
        <pt x="484" y="-25" on="0"/>
        <pt x="484" y="-26" on="1"/>
        <pt x="484" y="-37" on="0"/>
        <pt x="467" y="-40" on="0"/>
        <pt x="459" y="-40" on="1"/>
        <pt x="450" y="-40" on="0"/>
        <pt x="440" y="-38" on="0"/>
        <pt x="437" y="-32" on="1"/>
        <pt x="407" y="22" on="0"/>
        <pt x="337" y="108" on="0"/>
        <pt x="251" y="174" on="0"/>
        <pt x="150" y="222" on="0"/>
        <pt x="89" y="237" on="1"/>
        <pt x="84" y="239" on="0"/>
        <pt x="77" y="246" on="0"/>
        <pt x="77" y="251" on="1"/>
        <pt x="77" y="259" on="0"/>
        <pt x="89" y="264" on="0"/>
        <pt x="100" y="267" on="1"/>
        <pt x="215" y="296" on="0"/>
        <pt x="381" y="430" on="0"/>
        <pt x="436" y="532" on="1"/>
        <pt x="440" y="539" on="0"/>
        <pt x="449" y="541" on="0"/>
        <pt x="459" y="541" on="1"/>
        <pt x="467" y="541" on="0"/>
        <pt x="484" y="538" on="0"/>
        <pt x="484" y="527" on="1"/>
        <pt x="484" y="524" on="0"/>
        <pt x="471" y="498" on="0"/>
        <pt x="446" y="459" on="0"/>
        <pt x="410" y="411" on="0"/>
        <pt x="387" y="385" on="1"/>
        <pt x="1021" y="385" on="1"/>
        <pt x="1034" y="385" on="0"/>
        <pt x="1061" y="379" on="0"/>
        <pt x="1061" y="360" on="1"/>
        <pt x="1061" y="342" on="0"/>
        <pt x="1033" y="336" on="0"/>
        <pt x="1021" y="336" on="1"/>
        <pt x="353" y="336" on="1"/>
        <pt x="339" y="336" on="0"/>
        <pt x="330" y="334" on="0"/>
        <pt x="322" y="328" on="1"/>
        <pt x="308" y="317" on="0"/>
        <pt x="247" y="276" on="0"/>
        <pt x="191" y="250" on="1"/>
        <pt x="229" y="235" on="0"/>
        <pt x="297" y="194" on="0"/>
        <pt x="333" y="165" on="1"/>
        <pt x="1021" y="165" on="1"/>
        <pt x="1034" y="165" on="0"/>
        <pt x="1061" y="159" on="0"/>
        <pt x="1061" y="140" on="1"/>
        <pt x="1061" y="122" on="0"/>
        <pt x="1033" y="116" on="0"/>
        <pt x="1021" y="116" on="1"/>
      </contour>
    </TTGlyph>
    <TTGlyph name="arrowdblright" xMin="77" yMin="-40" xMax="1061" yMax="541">
      <contour>
        <pt x="117" y="336" on="1"/>
        <pt x="105" y="336" on="0"/>
        <pt x="77" y="342" on="0"/>
        <pt x="77" y="360" on="1"/>
        <pt x="77" y="379" on="0"/>
        <pt x="104" y="385" on="0"/>
        <pt x="117" y="385" on="1"/>
        <pt x="751" y="385" on="1"/>
        <pt x="727" y="411" on="0"/>
        <pt x="691" y="459" on="0"/>
        <pt x="667" y="498" on="0"/>
        <pt x="654" y="524" on="0"/>
        <pt x="654" y="527" on="1"/>
        <pt x="654" y="538" on="0"/>
        <pt x="671" y="541" on="0"/>
        <pt x="679" y="541" on="1"/>
        <pt x="693" y="541" on="0"/>
        <pt x="699" y="537" on="0"/>
        <pt x="704" y="527" on="1"/>
        <pt x="737" y="466" on="0"/>
        <pt x="818" y="377" on="0"/>
        <pt x="908" y="316" on="0"/>
        <pt x="1002" y="277" on="0"/>
        <pt x="1049" y="265" on="1"/>
        <pt x="1054" y="263" on="0"/>
        <pt x="1061" y="256" on="0"/>
        <pt x="1061" y="251" on="1"/>
        <pt x="1061" y="243" on="0"/>
        <pt x="1049" y="238" on="0"/>
        <pt x="1032" y="233" on="1"/>
        <pt x="920" y="204" on="0"/>
        <pt x="756" y="68" on="0"/>
        <pt x="708" y="-20" on="1"/>
        <pt x="700" y="-34" on="0"/>
        <pt x="692" y="-40" on="0"/>
        <pt x="679" y="-40" on="1"/>
        <pt x="671" y="-40" on="0"/>
        <pt x="654" y="-37" on="0"/>
        <pt x="654" y="-26" on="1"/>
        <pt x="654" y="-25" on="0"/>
        <pt x="661" y="-7" on="0"/>
        <pt x="682" y="28" on="0"/>
        <pt x="720" y="81" on="0"/>
        <pt x="751" y="116" on="1"/>
        <pt x="117" y="116" on="1"/>
        <pt x="105" y="116" on="0"/>
        <pt x="77" y="122" on="0"/>
        <pt x="77" y="140" on="1"/>
        <pt x="77" y="159" on="0"/>
        <pt x="104" y="165" on="0"/>
        <pt x="117" y="165" on="1"/>
        <pt x="805" y="165" on="1"/>
        <pt x="842" y="195" on="0"/>
        <pt x="909" y="235" on="0"/>
        <pt x="947" y="250" on="1"/>
        <pt x="889" y="276" on="0"/>
        <pt x="826" y="320" on="0"/>
        <pt x="818" y="326" on="1"/>
        <pt x="809" y="334" on="0"/>
        <pt x="799" y="336" on="0"/>
        <pt x="785" y="336" on="1"/>
      </contour>
    </TTGlyph>
    <TTGlyph name="arrowdblup" xMin="46" yMin="-194" xMax="662" yMax="694">
      <contour>
        <pt x="489" y="-151" on="1"/>
        <pt x="489" y="-158" on="0"/>
        <pt x="488" y="-173" on="0"/>
        <pt x="484" y="-186" on="0"/>
        <pt x="473" y="-194" on="0"/>
        <pt x="464" y="-194" on="1"/>
        <pt x="446" y="-194" on="0"/>
        <pt x="440" y="-168" on="0"/>
        <pt x="440" y="-156" on="1"/>
        <pt x="440" y="450" on="1"/>
        <pt x="440" y="464" on="0"/>
        <pt x="438" y="473" on="0"/>
        <pt x="432" y="478" on="1"/>
        <pt x="401" y="515" on="0"/>
        <pt x="361" y="582" on="0"/>
        <pt x="354" y="596" on="1"/>
        <pt x="353" y="593" on="0"/>
        <pt x="342" y="572" on="0"/>
        <pt x="322" y="539" on="0"/>
        <pt x="293" y="499" on="0"/>
        <pt x="275" y="477" on="1"/>
        <pt x="270" y="472" on="0"/>
        <pt x="268" y="464" on="0"/>
        <pt x="268" y="450" on="1"/>
        <pt x="268" y="-156" on="1"/>
        <pt x="268" y="-168" on="0"/>
        <pt x="262" y="-194" on="0"/>
        <pt x="244" y="-194" on="1"/>
        <pt x="235" y="-194" on="0"/>
        <pt x="224" y="-186" on="0"/>
        <pt x="220" y="-173" on="0"/>
        <pt x="219" y="-158" on="0"/>
        <pt x="219" y="-151" on="1"/>
        <pt x="219" y="421" on="1"/>
        <pt x="190" y="396" on="0"/>
        <pt x="135" y="359" on="0"/>
        <pt x="91" y="335" on="0"/>
        <pt x="62" y="323" on="0"/>
        <pt x="60" y="323" on="1"/>
        <pt x="49" y="323" on="0"/>
        <pt x="46" y="339" on="0"/>
        <pt x="46" y="347" on="1"/>
        <pt x="46" y="355" on="0"/>
        <pt x="48" y="367" on="0"/>
        <pt x="55" y="371" on="1"/>
        <pt x="156" y="417" on="0"/>
        <pt x="298" y="565" on="0"/>
        <pt x="340" y="680" on="1"/>
        <pt x="341" y="684" on="0"/>
        <pt x="346" y="694" on="0"/>
        <pt x="354" y="694" on="1"/>
        <pt x="362" y="694" on="0"/>
        <pt x="367" y="684" on="0"/>
        <pt x="372" y="671" on="1"/>
        <pt x="409" y="571" on="0"/>
        <pt x="546" y="420" on="0"/>
        <pt x="650" y="372" on="1"/>
        <pt x="659" y="367" on="0"/>
        <pt x="662" y="358" on="0"/>
        <pt x="662" y="347" on="1"/>
        <pt x="662" y="339" on="0"/>
        <pt x="659" y="323" on="0"/>
        <pt x="648" y="323" on="1"/>
        <pt x="646" y="323" on="0"/>
        <pt x="617" y="335" on="0"/>
        <pt x="573" y="359" on="0"/>
        <pt x="518" y="396" on="0"/>
        <pt x="489" y="421" on="1"/>
      </contour>
    </TTGlyph>
    <TTGlyph name="arrowdown" xMin="33" yMin="-194" xMax="552" yMax="694">
      <contour>
        <pt x="317" y="-48" on="1"/>
        <pt x="350" y="-2" on="0"/>
        <pt x="425" y="54" on="0"/>
        <pt x="490" y="84" on="0"/>
        <pt x="535" y="94" on="0"/>
        <pt x="537" y="94" on="1"/>
        <pt x="548" y="94" on="0"/>
        <pt x="552" y="78" on="0"/>
        <pt x="552" y="70" on="1"/>
        <pt x="552" y="54" on="0"/>
        <pt x="544" y="47" on="0"/>
        <pt x="529" y="43" on="1"/>
        <pt x="482" y="31" on="0"/>
        <pt x="409" y="-13" on="0"/>
        <pt x="355" y="-70" on="0"/>
        <pt x="320" y="-135" on="0"/>
        <pt x="310" y="-168" on="1"/>
        <pt x="305" y="-183" on="0"/>
        <pt x="301" y="-194" on="0"/>
        <pt x="293" y="-194" on="1"/>
        <pt x="285" y="-194" on="0"/>
        <pt x="279" y="-183" on="0"/>
        <pt x="277" y="-173" on="1"/>
        <pt x="248" y="-82" on="0"/>
        <pt x="138" y="20" on="0"/>
        <pt x="46" y="46" on="1"/>
        <pt x="36" y="48" on="0"/>
        <pt x="33" y="62" on="0"/>
        <pt x="33" y="70" on="1"/>
        <pt x="33" y="78" on="0"/>
        <pt x="37" y="94" on="0"/>
        <pt x="48" y="94" on="1"/>
        <pt x="50" y="94" on="0"/>
        <pt x="95" y="84" on="0"/>
        <pt x="160" y="54" on="0"/>
        <pt x="235" y="-2" on="0"/>
        <pt x="268" y="-48" on="1"/>
        <pt x="268" y="654" on="1"/>
        <pt x="268" y="667" on="0"/>
        <pt x="274" y="694" on="0"/>
        <pt x="293" y="694" on="1"/>
        <pt x="311" y="694" on="0"/>
        <pt x="317" y="666" on="0"/>
        <pt x="317" y="654" on="1"/>
      </contour>
    </TTGlyph>
    <TTGlyph name="arrowleft" xMin="77" yMin="-13" xMax="1061" yMax="514">
      <contour>
        <pt x="218" y="226" on="1"/>
        <pt x="269" y="189" on="0"/>
        <pt x="302" y="140" on="1"/>
        <pt x="320" y="114" on="0"/>
        <pt x="343" y="65" on="0"/>
        <pt x="356" y="27" on="0"/>
        <pt x="361" y="3" on="0"/>
        <pt x="361" y="2" on="1"/>
        <pt x="361" y="-9" on="0"/>
        <pt x="348" y="-13" on="0"/>
        <pt x="337" y="-13" on="1"/>
        <pt x="326" y="-13" on="0"/>
        <pt x="315" y="-10" on="0"/>
        <pt x="312" y="-1" on="1"/>
        <pt x="303" y="36" on="0"/>
        <pt x="271" y="107" on="0"/>
        <pt x="219" y="170" on="0"/>
        <pt x="143" y="220" on="0"/>
        <pt x="89" y="236" on="1"/>
        <pt x="88" y="237" on="0"/>
        <pt x="77" y="243" on="0"/>
        <pt x="77" y="251" on="1"/>
        <pt x="77" y="256" on="0"/>
        <pt x="84" y="262" on="0"/>
        <pt x="87" y="264" on="1"/>
        <pt x="116" y="273" on="0"/>
        <pt x="183" y="304" on="0"/>
        <pt x="245" y="357" on="0"/>
        <pt x="296" y="438" on="0"/>
        <pt x="311" y="497" on="1"/>
        <pt x="315" y="510" on="0"/>
        <pt x="323" y="514" on="0"/>
        <pt x="337" y="514" on="1"/>
        <pt x="348" y="514" on="0"/>
        <pt x="361" y="510" on="0"/>
        <pt x="361" y="499" on="1"/>
        <pt x="361" y="499" on="0"/>
        <pt x="352" y="454" on="0"/>
        <pt x="322" y="388" on="0"/>
        <pt x="265" y="310" on="0"/>
        <pt x="218" y="275" on="1"/>
        <pt x="1021" y="275" on="1"/>
        <pt x="1034" y="275" on="0"/>
        <pt x="1061" y="269" on="0"/>
        <pt x="1061" y="250" on="1"/>
        <pt x="1061" y="232" on="0"/>
        <pt x="1033" y="226" on="0"/>
        <pt x="1021" y="226" on="1"/>
      </contour>
    </TTGlyph>
    <TTGlyph name="arrowright" xMin="77" yMin="-13" xMax="1061" yMax="514">
      <contour>
        <pt x="117" y="226" on="1"/>
        <pt x="104" y="226" on="0"/>
        <pt x="77" y="232" on="0"/>
        <pt x="77" y="251" on="1"/>
        <pt x="77" y="269" on="0"/>
        <pt x="105" y="275" on="0"/>
        <pt x="117" y="275" on="1"/>
        <pt x="920" y="275" on="1"/>
        <pt x="869" y="312" on="0"/>
        <pt x="836" y="361" on="1"/>
        <pt x="818" y="387" on="0"/>
        <pt x="795" y="436" on="0"/>
        <pt x="782" y="474" on="0"/>
        <pt x="777" y="498" on="0"/>
        <pt x="777" y="499" on="1"/>
        <pt x="777" y="510" on="0"/>
        <pt x="790" y="514" on="0"/>
        <pt x="801" y="514" on="1"/>
        <pt x="812" y="514" on="0"/>
        <pt x="823" y="511" on="0"/>
        <pt x="826" y="502" on="1"/>
        <pt x="834" y="469" on="0"/>
        <pt x="863" y="400" on="0"/>
        <pt x="913" y="337" on="0"/>
        <pt x="988" y="283" on="0"/>
        <pt x="1042" y="266" on="1"/>
        <pt x="1052" y="263" on="0"/>
        <pt x="1061" y="258" on="0"/>
        <pt x="1061" y="250" on="1"/>
        <pt x="1061" y="240" on="0"/>
        <pt x="1051" y="237" on="1"/>
        <pt x="1035" y="232" on="0"/>
        <pt x="1001" y="220" on="0"/>
        <pt x="963" y="201" on="0"/>
        <pt x="923" y="171" on="0"/>
        <pt x="901" y="148" on="1"/>
        <pt x="882" y="127" on="0"/>
        <pt x="855" y="84" on="0"/>
        <pt x="838" y="45" on="0"/>
        <pt x="829" y="13" on="0"/>
        <pt x="827" y="4" on="1"/>
        <pt x="823" y="-9" on="0"/>
        <pt x="815" y="-13" on="0"/>
        <pt x="801" y="-13" on="1"/>
        <pt x="790" y="-13" on="0"/>
        <pt x="777" y="-9" on="0"/>
        <pt x="777" y="2" on="1"/>
        <pt x="777" y="2" on="0"/>
        <pt x="786" y="47" on="0"/>
        <pt x="816" y="113" on="0"/>
        <pt x="873" y="192" on="0"/>
        <pt x="920" y="226" on="1"/>
      </contour>
    </TTGlyph>
    <TTGlyph name="arrowup" xMin="33" yMin="-194" xMax="552" yMax="694">
      <contour>
        <pt x="317" y="-154" on="1"/>
        <pt x="317" y="-167" on="0"/>
        <pt x="311" y="-194" on="0"/>
        <pt x="292" y="-194" on="1"/>
        <pt x="274" y="-194" on="0"/>
        <pt x="268" y="-166" on="0"/>
        <pt x="268" y="-154" on="1"/>
        <pt x="268" y="548" on="1"/>
        <pt x="235" y="502" on="0"/>
        <pt x="160" y="446" on="0"/>
        <pt x="95" y="416" on="0"/>
        <pt x="50" y="406" on="0"/>
        <pt x="48" y="406" on="1"/>
        <pt x="37" y="406" on="0"/>
        <pt x="33" y="422" on="0"/>
        <pt x="33" y="430" on="1"/>
        <pt x="33" y="446" on="0"/>
        <pt x="41" y="453" on="0"/>
        <pt x="56" y="457" on="1"/>
        <pt x="121" y="474" on="0"/>
        <pt x="203" y="537" on="0"/>
        <pt x="252" y="605" on="0"/>
        <pt x="275" y="666" on="0"/>
        <pt x="279" y="682" on="1"/>
        <pt x="281" y="687" on="0"/>
        <pt x="287" y="694" on="0"/>
        <pt x="293" y="694" on="1"/>
        <pt x="301" y="694" on="0"/>
        <pt x="305" y="684" on="0"/>
        <pt x="309" y="673" on="1"/>
        <pt x="327" y="609" on="0"/>
        <pt x="392" y="527" on="0"/>
        <pt x="462" y="479" on="0"/>
        <pt x="524" y="458" on="0"/>
        <pt x="539" y="454" on="1"/>
        <pt x="549" y="452" on="0"/>
        <pt x="552" y="438" on="0"/>
        <pt x="552" y="430" on="1"/>
        <pt x="552" y="422" on="0"/>
        <pt x="548" y="406" on="0"/>
        <pt x="537" y="406" on="1"/>
        <pt x="535" y="406" on="0"/>
        <pt x="490" y="416" on="0"/>
        <pt x="425" y="446" on="0"/>
        <pt x="350" y="502" on="0"/>
        <pt x="317" y="548" on="1"/>
      </contour>
    </TTGlyph>
    <TTGlyph name="asteriskmath" xMin="89" yMin="34" xMax="495" yMax="465">
      <contour>
        <pt x="474" y="186" on="1"/>
        <pt x="481" y="183" on="0"/>
        <pt x="495" y="172" on="0"/>
        <pt x="495" y="157" on="1"/>
        <pt x="495" y="144" on="0"/>
        <pt x="478" y="125" on="0"/>
        <pt x="464" y="125" on="1"/>
        <pt x="461" y="125" on="0"/>
        <pt x="456" y="126" on="0"/>
        <pt x="448" y="129" on="0"/>
        <pt x="437" y="138" on="0"/>
        <pt x="427" y="145" on="1"/>
        <pt x="307" y="225" on="1"/>
        <pt x="308" y="216" on="0"/>
        <pt x="311" y="184" on="0"/>
        <pt x="314" y="150" on="0"/>
        <pt x="317" y="119" on="0"/>
        <pt x="318" y="113" on="1"/>
        <pt x="319" y="105" on="0"/>
        <pt x="323" y="71" on="0"/>
        <pt x="323" y="64" on="1"/>
        <pt x="323" y="47" on="0"/>
        <pt x="301" y="34" on="0"/>
        <pt x="292" y="34" on="1"/>
        <pt x="283" y="34" on="0"/>
        <pt x="261" y="47" on="0"/>
        <pt x="261" y="64" on="1"/>
        <pt x="277" y="225" on="1"/>
        <pt x="141" y="134" on="1"/>
        <pt x="132" y="127" on="0"/>
        <pt x="125" y="125" on="0"/>
        <pt x="120" y="125" on="1"/>
        <pt x="106" y="125" on="0"/>
        <pt x="89" y="144" on="0"/>
        <pt x="89" y="157" on="1"/>
        <pt x="89" y="171" on="0"/>
        <pt x="103" y="182" on="0"/>
        <pt x="117" y="188" on="1"/>
        <pt x="126" y="193" on="0"/>
        <pt x="151" y="203" on="0"/>
        <pt x="185" y="217" on="0"/>
        <pt x="230" y="237" on="0"/>
        <pt x="261" y="250" on="1"/>
        <pt x="110" y="313" on="1"/>
        <pt x="103" y="316" on="0"/>
        <pt x="89" y="327" on="0"/>
        <pt x="89" y="342" on="1"/>
        <pt x="89" y="355" on="0"/>
        <pt x="106" y="374" on="0"/>
        <pt x="120" y="374" on="1"/>
        <pt x="127" y="374" on="0"/>
        <pt x="134" y="370" on="0"/>
        <pt x="142" y="365" on="1"/>
        <pt x="277" y="274" on="1"/>
        <pt x="276" y="283" on="0"/>
        <pt x="273" y="315" on="0"/>
        <pt x="270" y="350" on="0"/>
        <pt x="267" y="380" on="0"/>
        <pt x="266" y="386" on="1"/>
        <pt x="265" y="394" on="0"/>
        <pt x="261" y="428" on="0"/>
        <pt x="261" y="435" on="1"/>
        <pt x="261" y="452" on="0"/>
        <pt x="283" y="465" on="0"/>
        <pt x="292" y="465" on="1"/>
        <pt x="303" y="465" on="0"/>
        <pt x="316" y="457" on="0"/>
        <pt x="322" y="444" on="0"/>
        <pt x="323" y="429" on="0"/>
        <pt x="322" y="422" on="1"/>
        <pt x="307" y="274" on="1"/>
        <pt x="443" y="365" on="1"/>
        <pt x="452" y="372" on="0"/>
        <pt x="459" y="374" on="0"/>
        <pt x="464" y="374" on="1"/>
        <pt x="478" y="374" on="0"/>
        <pt x="495" y="355" on="0"/>
        <pt x="495" y="342" on="1"/>
        <pt x="495" y="328" on="0"/>
        <pt x="481" y="317" on="0"/>
        <pt x="467" y="311" on="1"/>
        <pt x="458" y="307" on="0"/>
        <pt x="433" y="296" on="0"/>
        <pt x="399" y="282" on="0"/>
        <pt x="354" y="263" on="0"/>
        <pt x="323" y="249" on="1"/>
      </contour>
    </TTGlyph>
    <TTGlyph name="backslash" xMin="77" yMin="-250" xMax="507" yMax="750">
      <contour>
        <pt x="83" y="706" on="1"/>
        <pt x="78" y="716" on="0"/>
        <pt x="77" y="722" on="0"/>
        <pt x="77" y="725" on="1"/>
        <pt x="77" y="737" on="0"/>
        <pt x="93" y="750" on="0"/>
        <pt x="101" y="750" on="1"/>
        <pt x="112" y="750" on="0"/>
        <pt x="124" y="738" on="0"/>
        <pt x="129" y="724" on="1"/>
        <pt x="501" y="-206" on="1"/>
        <pt x="506" y="-216" on="0"/>
        <pt x="507" y="-222" on="0"/>
        <pt x="507" y="-225" on="1"/>
        <pt x="507" y="-237" on="0"/>
        <pt x="491" y="-250" on="0"/>
        <pt x="483" y="-250" on="1"/>
        <pt x="472" y="-250" on="0"/>
        <pt x="460" y="-238" on="0"/>
        <pt x="455" y="-224" on="1"/>
      </contour>
    </TTGlyph>
    <TTGlyph name="bar" xMin="145" yMin="-250" xMax="194" yMax="750">
      <contour>
        <pt x="194" y="-211" on="1"/>
        <pt x="194" y="-223" on="0"/>
        <pt x="188" y="-250" on="0"/>
        <pt x="169" y="-250" on="1"/>
        <pt x="160" y="-250" on="0"/>
        <pt x="150" y="-242" on="0"/>
        <pt x="146" y="-230" on="0"/>
        <pt x="145" y="-217" on="0"/>
        <pt x="145" y="-211" on="1"/>
        <pt x="145" y="711" on="1"/>
        <pt x="145" y="723" on="0"/>
        <pt x="151" y="750" on="0"/>
        <pt x="170" y="750" on="1"/>
        <pt x="179" y="750" on="0"/>
        <pt x="189" y="742" on="0"/>
        <pt x="193" y="730" on="0"/>
        <pt x="194" y="717" on="0"/>
        <pt x="194" y="711" on="1"/>
      </contour>
    </TTGlyph>
    <TTGlyph name="bardbl" xMin="157" yMin="-249" xMax="427" yMax="750">
      <contour>
        <pt x="206" y="-211" on="1"/>
        <pt x="206" y="-222" on="0"/>
        <pt x="200" y="-249" on="0"/>
        <pt x="182" y="-249" on="1"/>
        <pt x="173" y="-249" on="0"/>
        <pt x="162" y="-241" on="0"/>
        <pt x="158" y="-228" on="0"/>
        <pt x="157" y="-213" on="0"/>
        <pt x="157" y="-206" on="1"/>
        <pt x="157" y="707" on="1"/>
        <pt x="157" y="714" on="0"/>
        <pt x="158" y="729" on="0"/>
        <pt x="162" y="742" on="0"/>
        <pt x="173" y="750" on="0"/>
        <pt x="182" y="750" on="1"/>
        <pt x="200" y="750" on="0"/>
        <pt x="206" y="723" on="0"/>
        <pt x="206" y="712" on="1"/>
      </contour>
      <contour>
        <pt x="427" y="-206" on="1"/>
        <pt x="427" y="-213" on="0"/>
        <pt x="426" y="-228" on="0"/>
        <pt x="422" y="-241" on="0"/>
        <pt x="411" y="-249" on="0"/>
        <pt x="402" y="-249" on="1"/>
        <pt x="384" y="-249" on="0"/>
        <pt x="378" y="-222" on="0"/>
        <pt x="378" y="-211" on="1"/>
        <pt x="378" y="712" on="1"/>
        <pt x="378" y="723" on="0"/>
        <pt x="384" y="750" on="0"/>
        <pt x="402" y="750" on="1"/>
        <pt x="411" y="750" on="0"/>
        <pt x="422" y="742" on="0"/>
        <pt x="426" y="729" on="0"/>
        <pt x="427" y="714" on="0"/>
        <pt x="427" y="707" on="1"/>
      </contour>
    </TTGlyph>
    <TTGlyph name="braceleft" xMin="94" yMin="-250" xMax="490" yMax="750">
      <contour>
        <pt x="331" y="396" on="1"/>
        <pt x="331" y="384" on="0"/>
        <pt x="331" y="370" on="0"/>
        <pt x="331" y="362" on="0"/>
        <pt x="330" y="358" on="0"/>
        <pt x="330" y="356" on="1"/>
        <pt x="326" y="331" on="0"/>
        <pt x="299" y="294" on="0"/>
        <pt x="265" y="269" on="0"/>
        <pt x="227" y="254" on="0"/>
        <pt x="212" y="250" on="1"/>
        <pt x="254" y="239" on="0"/>
        <pt x="294" y="208" on="0"/>
        <pt x="305" y="198" on="1"/>
        <pt x="325" y="178" on="0"/>
        <pt x="331" y="128" on="0"/>
        <pt x="331" y="106" on="1"/>
        <pt x="331" y="-104" on="1"/>
        <pt x="331" y="-115" on="0"/>
        <pt x="331" y="-127" on="0"/>
        <pt x="333" y="-135" on="1"/>
        <pt x="336" y="-149" on="0"/>
        <pt x="354" y="-178" on="0"/>
        <pt x="387" y="-203" on="0"/>
        <pt x="438" y="-220" on="0"/>
        <pt x="473" y="-222" on="1"/>
        <pt x="479" y="-222" on="0"/>
        <pt x="490" y="-226" on="0"/>
        <pt x="490" y="-236" on="1"/>
        <pt x="490" y="-247" on="0"/>
        <pt x="476" y="-250" on="0"/>
        <pt x="465" y="-250" on="1"/>
        <pt x="456" y="-250" on="0"/>
        <pt x="419" y="-248" on="0"/>
        <pt x="375" y="-239" on="0"/>
        <pt x="327" y="-224" on="0"/>
        <pt x="306" y="-210" on="1"/>
        <pt x="286" y="-197" on="0"/>
        <pt x="265" y="-169" on="0"/>
        <pt x="255" y="-140" on="0"/>
        <pt x="253" y="-114" on="0"/>
        <pt x="253" y="-104" on="1"/>
        <pt x="253" y="131" on="1"/>
        <pt x="253" y="142" on="0"/>
        <pt x="242" y="175" on="0"/>
        <pt x="211" y="207" on="0"/>
        <pt x="156" y="233" on="0"/>
        <pt x="111" y="236" on="1"/>
        <pt x="105" y="237" on="0"/>
        <pt x="94" y="240" on="0"/>
        <pt x="94" y="250" on="1"/>
        <pt x="94" y="260" on="0"/>
        <pt x="105" y="263" on="0"/>
        <pt x="114" y="264" on="1"/>
        <pt x="152" y="266" on="0"/>
        <pt x="202" y="288" on="0"/>
        <pt x="220" y="302" on="1"/>
        <pt x="245" y="324" on="0"/>
        <pt x="253" y="369" on="0"/>
        <pt x="253" y="389" on="1"/>
        <pt x="253" y="624" on="1"/>
        <pt x="253" y="654" on="0"/>
        <pt x="290" y="701" on="0"/>
        <pt x="349" y="733" on="0"/>
        <pt x="425" y="750" on="0"/>
        <pt x="465" y="750" on="1"/>
        <pt x="476" y="750" on="0"/>
        <pt x="490" y="747" on="0"/>
        <pt x="490" y="736" on="1"/>
        <pt x="490" y="726" on="0"/>
        <pt x="480" y="723" on="0"/>
        <pt x="469" y="722" on="1"/>
        <pt x="442" y="720" on="0"/>
        <pt x="392" y="706" on="0"/>
        <pt x="354" y="679" on="0"/>
        <pt x="331" y="637" on="0"/>
        <pt x="331" y="606" on="1"/>
      </contour>
    </TTGlyph>
    <TTGlyph name="braceright" xMin="94" yMin="-250" xMax="490" yMax="750">
      <contour>
        <pt x="331" y="-124" on="1"/>
        <pt x="331" y="-154" on="0"/>
        <pt x="294" y="-201" on="0"/>
        <pt x="235" y="-233" on="0"/>
        <pt x="159" y="-250" on="0"/>
        <pt x="119" y="-250" on="1"/>
        <pt x="108" y="-250" on="0"/>
        <pt x="94" y="-247" on="0"/>
        <pt x="94" y="-236" on="1"/>
        <pt x="94" y="-226" on="0"/>
        <pt x="104" y="-223" on="0"/>
        <pt x="115" y="-222" on="1"/>
        <pt x="142" y="-220" on="0"/>
        <pt x="192" y="-206" on="0"/>
        <pt x="230" y="-179" on="0"/>
        <pt x="253" y="-137" on="0"/>
        <pt x="253" y="-106" on="1"/>
        <pt x="253" y="104" on="1"/>
        <pt x="253" y="128" on="0"/>
        <pt x="253" y="140" on="0"/>
        <pt x="254" y="144" on="1"/>
        <pt x="258" y="170" on="0"/>
        <pt x="285" y="206" on="0"/>
        <pt x="319" y="231" on="0"/>
        <pt x="357" y="246" on="0"/>
        <pt x="372" y="250" on="1"/>
        <pt x="330" y="261" on="0"/>
        <pt x="290" y="292" on="0"/>
        <pt x="279" y="302" on="1"/>
        <pt x="259" y="322" on="0"/>
        <pt x="253" y="372" on="0"/>
        <pt x="253" y="394" on="1"/>
        <pt x="253" y="604" on="1"/>
        <pt x="253" y="615" on="0"/>
        <pt x="253" y="627" on="0"/>
        <pt x="251" y="635" on="1"/>
        <pt x="248" y="649" on="0"/>
        <pt x="230" y="678" on="0"/>
        <pt x="197" y="703" on="0"/>
        <pt x="146" y="720" on="0"/>
        <pt x="111" y="722" on="1"/>
        <pt x="105" y="722" on="0"/>
        <pt x="94" y="726" on="0"/>
        <pt x="94" y="736" on="1"/>
        <pt x="94" y="747" on="0"/>
        <pt x="108" y="750" on="0"/>
        <pt x="119" y="750" on="1"/>
        <pt x="128" y="750" on="0"/>
        <pt x="165" y="748" on="0"/>
        <pt x="209" y="739" on="0"/>
        <pt x="257" y="724" on="0"/>
        <pt x="278" y="710" on="1"/>
        <pt x="298" y="697" on="0"/>
        <pt x="319" y="669" on="0"/>
        <pt x="329" y="640" on="0"/>
        <pt x="331" y="614" on="0"/>
        <pt x="331" y="604" on="1"/>
        <pt x="331" y="369" on="1"/>
        <pt x="331" y="359" on="0"/>
        <pt x="342" y="325" on="0"/>
        <pt x="373" y="293" on="0"/>
        <pt x="428" y="267" on="0"/>
        <pt x="473" y="264" on="1"/>
        <pt x="479" y="263" on="0"/>
        <pt x="490" y="260" on="0"/>
        <pt x="490" y="250" on="1"/>
        <pt x="490" y="240" on="0"/>
        <pt x="479" y="237" on="0"/>
        <pt x="470" y="236" on="1"/>
        <pt x="432" y="234" on="0"/>
        <pt x="382" y="212" on="0"/>
        <pt x="364" y="198" on="1"/>
        <pt x="339" y="176" on="0"/>
        <pt x="331" y="131" on="0"/>
        <pt x="331" y="111" on="1"/>
      </contour>
    </TTGlyph>
    <TTGlyph name="bullet" xMin="77" yMin="36" xMax="507" yMax="465">
      <contour>
        <pt x="507" y="250" on="1"/>
        <pt x="507" y="206" on="0"/>
        <pt x="474" y="128" on="0"/>
        <pt x="415" y="70" on="0"/>
        <pt x="337" y="36" on="0"/>
        <pt x="292" y="36" on="1"/>
        <pt x="248" y="36" on="0"/>
        <pt x="170" y="69" on="0"/>
        <pt x="111" y="127" on="0"/>
        <pt x="77" y="206" on="0"/>
        <pt x="77" y="251" on="1"/>
        <pt x="77" y="295" on="0"/>
        <pt x="110" y="373" on="0"/>
        <pt x="169" y="431" on="0"/>
        <pt x="247" y="465" on="0"/>
        <pt x="292" y="465" on="1"/>
        <pt x="336" y="465" on="0"/>
        <pt x="415" y="432" on="0"/>
        <pt x="473" y="374" on="0"/>
        <pt x="507" y="295" on="0"/>
      </contour>
    </TTGlyph>
    <TTGlyph name="circlecopyrt" xMin="77" yMin="-214" xMax="1061" yMax="714">
      <contour>
        <pt x="1061" y="250" on="1"/>
        <pt x="1061" y="155" on="0"/>
        <pt x="984" y="-14" on="0"/>
        <pt x="851" y="-140" on="0"/>
        <pt x="672" y="-214" on="0"/>
        <pt x="569" y="-214" on="1"/>
        <pt x="466" y="-214" on="0"/>
        <pt x="286" y="-140" on="0"/>
        <pt x="153" y="-14" on="0"/>
        <pt x="77" y="155" on="0"/>
        <pt x="77" y="250" on="1"/>
        <pt x="77" y="345" on="0"/>
        <pt x="154" y="514" on="0"/>
        <pt x="287" y="640" on="0"/>
        <pt x="466" y="714" on="0"/>
        <pt x="569" y="714" on="1"/>
        <pt x="672" y="714" on="0"/>
        <pt x="852" y="640" on="0"/>
        <pt x="985" y="514" on="0"/>
        <pt x="1061" y="345" on="0"/>
      </contour>
      <contour>
        <pt x="569" y="-165" on="1"/>
        <pt x="662" y="-165" on="0"/>
        <pt x="824" y="-99" on="0"/>
        <pt x="943" y="14" on="0"/>
        <pt x="1012" y="165" on="0"/>
        <pt x="1012" y="250" on="1"/>
        <pt x="1012" y="335" on="0"/>
        <pt x="943" y="486" on="0"/>
        <pt x="824" y="599" on="0"/>
        <pt x="662" y="665" on="0"/>
        <pt x="569" y="665" on="1"/>
        <pt x="476" y="665" on="0"/>
        <pt x="314" y="599" on="0"/>
        <pt x="195" y="486" on="0"/>
        <pt x="126" y="335" on="0"/>
        <pt x="126" y="250" on="1"/>
        <pt x="126" y="165" on="0"/>
        <pt x="195" y="14" on="0"/>
        <pt x="314" y="-99" on="0"/>
        <pt x="476" y="-165" on="0"/>
      </contour>
    </TTGlyph>
    <TTGlyph name="circlemultiply" xMin="77" yMin="-118" xMax="815" yMax="619">
      <contour>
        <pt x="815" y="250" on="1"/>
        <pt x="815" y="175" on="0"/>
        <pt x="757" y="41" on="0"/>
        <pt x="657" y="-60" on="0"/>
        <pt x="523" y="-118" on="0"/>
        <pt x="446" y="-118" on="1"/>
        <pt x="370" y="-118" on="0"/>
        <pt x="236" y="-60" on="0"/>
        <pt x="136" y="40" on="0"/>
        <pt x="77" y="174" on="0"/>
        <pt x="77" y="251" on="1"/>
        <pt x="77" y="326" on="0"/>
        <pt x="135" y="460" on="0"/>
        <pt x="235" y="561" on="0"/>
        <pt x="370" y="619" on="0"/>
        <pt x="446" y="619" on="1"/>
        <pt x="522" y="619" on="0"/>
        <pt x="656" y="561" on="0"/>
        <pt x="757" y="461" on="0"/>
        <pt x="815" y="327" on="0"/>
      </contour>
      <contour>
        <pt x="446" y="275" on="1"/>
        <pt x="670" y="499" on="1"/>
        <pt x="655" y="513" on="0"/>
        <pt x="611" y="543" on="0"/>
        <pt x="554" y="569" on="0"/>
        <pt x="486" y="585" on="0"/>
        <pt x="446" y="585" on="1"/>
        <pt x="406" y="585" on="0"/>
        <pt x="338" y="569" on="0"/>
        <pt x="281" y="543" on="0"/>
        <pt x="237" y="513" on="0"/>
        <pt x="222" y="499" on="1"/>
      </contour>
      <contour>
        <pt x="422" y="251" on="1"/>
        <pt x="198" y="474" on="1"/>
        <pt x="159" y="433" on="0"/>
        <pt x="111" y="316" on="0"/>
        <pt x="111" y="250" on="1"/>
        <pt x="111" y="188" on="0"/>
        <pt x="156" y="70" on="0"/>
        <pt x="198" y="27" on="1"/>
      </contour>
      <contour>
        <pt x="470" y="250" on="1"/>
        <pt x="694" y="27" on="1"/>
        <pt x="733" y="68" on="0"/>
        <pt x="781" y="185" on="0"/>
        <pt x="781" y="251" on="1"/>
        <pt x="781" y="313" on="0"/>
        <pt x="736" y="431" on="0"/>
        <pt x="694" y="474" on="1"/>
      </contour>
      <contour>
        <pt x="446" y="226" on="1"/>
        <pt x="222" y="2" on="1"/>
        <pt x="237" y="-12" on="0"/>
        <pt x="281" y="-42" on="0"/>
        <pt x="338" y="-68" on="0"/>
        <pt x="406" y="-84" on="0"/>
        <pt x="446" y="-84" on="1"/>
        <pt x="486" y="-84" on="0"/>
        <pt x="554" y="-68" on="0"/>
        <pt x="611" y="-42" on="0"/>
        <pt x="655" y="-12" on="0"/>
        <pt x="670" y="2" on="1"/>
      </contour>
    </TTGlyph>
    <TTGlyph name="circleplus" xMin="77" yMin="-118" xMax="815" yMax="619">
      <contour>
        <pt x="815" y="250" on="1"/>
        <pt x="815" y="175" on="0"/>
        <pt x="757" y="41" on="0"/>
        <pt x="657" y="-60" on="0"/>
        <pt x="523" y="-118" on="0"/>
        <pt x="446" y="-118" on="1"/>
        <pt x="370" y="-118" on="0"/>
        <pt x="236" y="-60" on="0"/>
        <pt x="136" y="40" on="0"/>
        <pt x="77" y="174" on="0"/>
        <pt x="77" y="251" on="1"/>
        <pt x="77" y="326" on="0"/>
        <pt x="135" y="460" on="0"/>
        <pt x="235" y="561" on="0"/>
        <pt x="370" y="619" on="0"/>
        <pt x="446" y="619" on="1"/>
        <pt x="522" y="619" on="0"/>
        <pt x="656" y="561" on="0"/>
        <pt x="757" y="461" on="0"/>
        <pt x="815" y="327" on="0"/>
      </contour>
      <contour>
        <pt x="429" y="268" on="1"/>
        <pt x="429" y="585" on="1"/>
        <pt x="360" y="581" on="0"/>
        <pt x="245" y="525" on="0"/>
        <pt x="162" y="437" on="0"/>
        <pt x="114" y="327" on="0"/>
        <pt x="112" y="268" on="1"/>
      </contour>
      <contour>
        <pt x="463" y="268" on="1"/>
        <pt x="780" y="268" on="1"/>
        <pt x="778" y="327" on="0"/>
        <pt x="730" y="437" on="0"/>
        <pt x="646" y="525" on="0"/>
        <pt x="532" y="581" on="0"/>
        <pt x="463" y="585" on="1"/>
      </contour>
      <contour>
        <pt x="429" y="234" on="1"/>
        <pt x="111" y="234" on="1"/>
        <pt x="114" y="172" on="0"/>
        <pt x="164" y="60" on="0"/>
        <pt x="248" y="-26" on="0"/>
        <pt x="362" y="-80" on="0"/>
        <pt x="429" y="-84" on="1"/>
      </contour>
      <contour>
        <pt x="463" y="234" on="1"/>
        <pt x="463" y="-84" on="1"/>
        <pt x="530" y="-80" on="0"/>
        <pt x="644" y="-26" on="0"/>
        <pt x="728" y="60" on="0"/>
        <pt x="778" y="172" on="0"/>
        <pt x="781" y="234" on="1"/>
      </contour>
    </TTGlyph>
    <TTGlyph name="club" xMin="47" yMin="-130" xMax="846" yMax="724">
      <contour>
        <pt x="595" y="319" on="1"/>
        <pt x="615" y="347" on="0"/>
        <pt x="669" y="368" on="0"/>
        <pt x="694" y="368" on="1"/>
        <pt x="729" y="368" on="0"/>
        <pt x="785" y="336" on="0"/>
        <pt x="825" y="282" on="0"/>
        <pt x="846" y="213" on="0"/>
        <pt x="846" y="175" on="1"/>
        <pt x="846" y="136" on="0"/>
        <pt x="819" y="65" on="0"/>
        <pt x="771" y="11" on="0"/>
        <pt x="706" y="-20" on="0"/>
        <pt x="667" y="-20" on="1"/>
        <pt x="651" y="-20" on="0"/>
        <pt x="609" y="-13" on="0"/>
        <pt x="571" y="7" on="0"/>
        <pt x="543" y="42" on="0"/>
        <pt x="542" y="70" on="1"/>
        <pt x="471" y="70" on="1"/>
        <pt x="471" y="32" on="0"/>
        <pt x="484" y="-46" on="0"/>
        <pt x="498" y="-88" on="1"/>
        <pt x="501" y="-97" on="0"/>
        <pt x="502" y="-103" on="0"/>
        <pt x="502" y="-105" on="1"/>
        <pt x="502" y="-124" on="0"/>
        <pt x="475" y="-130" on="0"/>
        <pt x="462" y="-130" on="1"/>
        <pt x="431" y="-130" on="1"/>
        <pt x="418" y="-130" on="0"/>
        <pt x="391" y="-124" on="0"/>
        <pt x="391" y="-105" on="1"/>
        <pt x="391" y="-103" on="0"/>
        <pt x="392" y="-97" on="0"/>
        <pt x="395" y="-89" on="1"/>
        <pt x="413" y="-35" on="0"/>
        <pt x="422" y="44" on="0"/>
        <pt x="422" y="70" on="1"/>
        <pt x="351" y="70" on="1"/>
        <pt x="350" y="42" on="0"/>
        <pt x="322" y="7" on="0"/>
        <pt x="284" y="-13" on="0"/>
        <pt x="242" y="-20" on="0"/>
        <pt x="226" y="-20" on="1"/>
        <pt x="187" y="-20" on="0"/>
        <pt x="122" y="11" on="0"/>
        <pt x="74" y="64" on="0"/>
        <pt x="47" y="135" on="0"/>
        <pt x="47" y="175" on="1"/>
        <pt x="47" y="213" on="0"/>
        <pt x="68" y="282" on="0"/>
        <pt x="108" y="336" on="0"/>
        <pt x="164" y="368" on="0"/>
        <pt x="199" y="368" on="1"/>
        <pt x="220" y="368" on="0"/>
        <pt x="254" y="357" on="0"/>
        <pt x="279" y="342" on="0"/>
        <pt x="295" y="325" on="0"/>
        <pt x="299" y="319" on="1"/>
        <pt x="329" y="374" on="1"/>
        <pt x="316" y="383" on="0"/>
        <pt x="288" y="413" on="0"/>
        <pt x="265" y="452" on="0"/>
        <pt x="250" y="501" on="0"/>
        <pt x="250" y="530" on="1"/>
        <pt x="250" y="570" on="0"/>
        <pt x="281" y="641" on="0"/>
        <pt x="334" y="693" on="0"/>
        <pt x="406" y="724" on="0"/>
        <pt x="447" y="724" on="1"/>
        <pt x="486" y="724" on="0"/>
        <pt x="557" y="694" on="0"/>
        <pt x="611" y="642" on="0"/>
        <pt x="643" y="571" on="0"/>
        <pt x="643" y="530" on="1"/>
        <pt x="643" y="502" on="0"/>
        <pt x="628" y="453" on="0"/>
        <pt x="606" y="414" on="0"/>
        <pt x="578" y="384" on="0"/>
        <pt x="564" y="374" on="1"/>
      </contour>
    </TTGlyph>
    <TTGlyph name="dagger" xMin="77" yMin="-214" xMax="447" yMax="704">
      <contour>
        <pt x="274" y="418" on="1"/>
        <pt x="275" y="409" on="0"/>
        <pt x="278" y="386" on="0"/>
        <pt x="283" y="364" on="0"/>
        <pt x="286" y="346" on="0"/>
        <pt x="287" y="342" on="1"/>
        <pt x="292" y="318" on="0"/>
        <pt x="298" y="288" on="0"/>
        <pt x="301" y="264" on="0"/>
        <pt x="301" y="239" on="0"/>
        <pt x="301" y="219" on="1"/>
        <pt x="301" y="153" on="0"/>
        <pt x="296" y="21" on="0"/>
        <pt x="292" y="-45" on="1"/>
        <pt x="291" y="-68" on="0"/>
        <pt x="286" y="-120" on="0"/>
        <pt x="283" y="-164" on="0"/>
        <pt x="280" y="-194" on="0"/>
        <pt x="280" y="-194" on="1"/>
        <pt x="278" y="-205" on="0"/>
        <pt x="273" y="-214" on="0"/>
        <pt x="262" y="-214" on="1"/>
        <pt x="251" y="-214" on="0"/>
        <pt x="246" y="-206" on="0"/>
        <pt x="245" y="-199" on="1"/>
        <pt x="244" y="-192" on="0"/>
        <pt x="237" y="-113" on="0"/>
        <pt x="229" y="4" on="0"/>
        <pt x="223" y="147" on="0"/>
        <pt x="223" y="219" on="1"/>
        <pt x="223" y="239" on="0"/>
        <pt x="223" y="264" on="0"/>
        <pt x="226" y="288" on="0"/>
        <pt x="231" y="317" on="0"/>
        <pt x="236" y="340" on="1"/>
        <pt x="240" y="356" on="0"/>
        <pt x="248" y="399" on="0"/>
        <pt x="250" y="418" on="1"/>
        <pt x="239" y="416" on="0"/>
        <pt x="218" y="413" on="0"/>
        <pt x="195" y="407" on="1"/>
        <pt x="171" y="400" on="0"/>
        <pt x="134" y="392" on="0"/>
        <pt x="120" y="392" on="1"/>
        <pt x="105" y="392" on="0"/>
        <pt x="88" y="402" on="0"/>
        <pt x="79" y="415" on="0"/>
        <pt x="77" y="428" on="0"/>
        <pt x="77" y="431" on="1"/>
        <pt x="77" y="434" on="0"/>
        <pt x="79" y="447" on="0"/>
        <pt x="88" y="460" on="0"/>
        <pt x="105" y="470" on="0"/>
        <pt x="120" y="470" on="1"/>
        <pt x="134" y="470" on="0"/>
        <pt x="171" y="462" on="0"/>
        <pt x="195" y="455" on="1"/>
        <pt x="218" y="449" on="0"/>
        <pt x="239" y="446" on="0"/>
        <pt x="250" y="444" on="1"/>
        <pt x="249" y="458" on="0"/>
        <pt x="246" y="489" on="0"/>
        <pt x="241" y="516" on="0"/>
        <pt x="238" y="537" on="0"/>
        <pt x="237" y="541" on="1"/>
        <pt x="232" y="567" on="0"/>
        <pt x="223" y="633" on="0"/>
        <pt x="223" y="658" on="1"/>
        <pt x="223" y="684" on="0"/>
        <pt x="246" y="704" on="0"/>
        <pt x="262" y="704" on="1"/>
        <pt x="301" y="704" on="0"/>
        <pt x="301" y="658" on="1"/>
        <pt x="301" y="645" on="0"/>
        <pt x="298" y="614" on="0"/>
        <pt x="294" y="585" on="0"/>
        <pt x="290" y="560" on="0"/>
        <pt x="288" y="552" on="1"/>
        <pt x="284" y="529" on="0"/>
        <pt x="276" y="470" on="0"/>
        <pt x="274" y="444" on="1"/>
        <pt x="285" y="446" on="0"/>
        <pt x="306" y="449" on="0"/>
        <pt x="329" y="455" on="1"/>
        <pt x="353" y="462" on="0"/>
        <pt x="390" y="470" on="0"/>
        <pt x="404" y="470" on="1"/>
        <pt x="419" y="470" on="0"/>
        <pt x="436" y="460" on="0"/>
        <pt x="445" y="447" on="0"/>
        <pt x="447" y="434" on="0"/>
        <pt x="447" y="431" on="1"/>
        <pt x="447" y="428" on="0"/>
        <pt x="445" y="415" on="0"/>
        <pt x="436" y="402" on="0"/>
        <pt x="419" y="392" on="0"/>
        <pt x="404" y="392" on="1"/>
        <pt x="390" y="392" on="0"/>
        <pt x="353" y="400" on="0"/>
        <pt x="329" y="407" on="1"/>
        <pt x="306" y="413" on="0"/>
        <pt x="285" y="416" on="0"/>
      </contour>
    </TTGlyph>
    <TTGlyph name="daggerdbl" xMin="77" yMin="-204" xMax="447" yMax="704">
      <contour>
        <pt x="274" y="464" on="1"/>
        <pt x="275" y="454" on="0"/>
        <pt x="278" y="430" on="0"/>
        <pt x="283" y="408" on="0"/>
        <pt x="286" y="390" on="0"/>
        <pt x="287" y="385" on="1"/>
        <pt x="292" y="364" on="0"/>
        <pt x="301" y="314" on="0"/>
        <pt x="301" y="294" on="1"/>
        <pt x="301" y="278" on="0"/>
        <pt x="291" y="261" on="0"/>
        <pt x="277" y="252" on="0"/>
        <pt x="265" y="250" on="0"/>
        <pt x="262" y="250" on="1"/>
        <pt x="259" y="250" on="0"/>
        <pt x="247" y="252" on="0"/>
        <pt x="233" y="261" on="0"/>
        <pt x="223" y="278" on="0"/>
        <pt x="223" y="294" on="1"/>
        <pt x="223" y="310" on="0"/>
        <pt x="230" y="357" on="0"/>
        <pt x="238" y="394" on="1"/>
        <pt x="244" y="418" on="0"/>
        <pt x="250" y="459" on="0"/>
        <pt x="250" y="464" on="1"/>
        <pt x="244" y="463" on="0"/>
        <pt x="233" y="462" on="0"/>
        <pt x="220" y="459" on="0"/>
        <pt x="201" y="454" on="0"/>
        <pt x="186" y="450" on="1"/>
        <pt x="163" y="443" on="0"/>
        <pt x="131" y="438" on="0"/>
        <pt x="120" y="438" on="1"/>
        <pt x="105" y="438" on="0"/>
        <pt x="88" y="448" on="0"/>
        <pt x="79" y="461" on="0"/>
        <pt x="77" y="474" on="0"/>
        <pt x="77" y="477" on="1"/>
        <pt x="77" y="480" on="0"/>
        <pt x="79" y="493" on="0"/>
        <pt x="88" y="506" on="0"/>
        <pt x="105" y="516" on="0"/>
        <pt x="120" y="516" on="1"/>
        <pt x="134" y="516" on="0"/>
        <pt x="171" y="508" on="0"/>
        <pt x="195" y="501" on="1"/>
        <pt x="218" y="495" on="0"/>
        <pt x="239" y="492" on="0"/>
        <pt x="250" y="490" on="1"/>
        <pt x="249" y="500" on="0"/>
        <pt x="246" y="524" on="0"/>
        <pt x="241" y="546" on="0"/>
        <pt x="238" y="565" on="0"/>
        <pt x="237" y="569" on="1"/>
        <pt x="232" y="590" on="0"/>
        <pt x="223" y="640" on="0"/>
        <pt x="223" y="660" on="1"/>
        <pt x="223" y="676" on="0"/>
        <pt x="233" y="693" on="0"/>
        <pt x="247" y="702" on="0"/>
        <pt x="259" y="704" on="0"/>
        <pt x="262" y="704" on="1"/>
        <pt x="265" y="704" on="0"/>
        <pt x="277" y="702" on="0"/>
        <pt x="291" y="693" on="0"/>
        <pt x="301" y="676" on="0"/>
        <pt x="301" y="660" on="1"/>
        <pt x="301" y="644" on="0"/>
        <pt x="294" y="597" on="0"/>
        <pt x="286" y="560" on="1"/>
        <pt x="280" y="536" on="0"/>
        <pt x="274" y="495" on="0"/>
        <pt x="274" y="490" on="1"/>
        <pt x="285" y="492" on="0"/>
        <pt x="306" y="495" on="0"/>
        <pt x="329" y="501" on="1"/>
        <pt x="353" y="508" on="0"/>
        <pt x="390" y="516" on="0"/>
        <pt x="404" y="516" on="1"/>
        <pt x="419" y="516" on="0"/>
        <pt x="436" y="506" on="0"/>
        <pt x="445" y="493" on="0"/>
        <pt x="447" y="480" on="0"/>
        <pt x="447" y="477" on="1"/>
        <pt x="447" y="474" on="0"/>
        <pt x="445" y="461" on="0"/>
        <pt x="436" y="448" on="0"/>
        <pt x="419" y="438" on="0"/>
        <pt x="404" y="438" on="1"/>
        <pt x="393" y="438" on="0"/>
        <pt x="361" y="443" on="0"/>
        <pt x="338" y="450" on="1"/>
        <pt x="323" y="454" on="0"/>
        <pt x="305" y="459" on="0"/>
        <pt x="291" y="462" on="0"/>
        <pt x="280" y="463" on="0"/>
      </contour>
      <contour>
        <pt x="274" y="10" on="1"/>
        <pt x="275" y="-1" on="0"/>
        <pt x="279" y="-28" on="0"/>
        <pt x="284" y="-52" on="0"/>
        <pt x="287" y="-68" on="0"/>
        <pt x="287" y="-69" on="1"/>
        <pt x="289" y="-76" on="0"/>
        <pt x="293" y="-98" on="0"/>
        <pt x="298" y="-123" on="0"/>
        <pt x="301" y="-149" on="0"/>
        <pt x="301" y="-160" on="1"/>
        <pt x="301" y="-176" on="0"/>
        <pt x="291" y="-193" on="0"/>
        <pt x="277" y="-202" on="0"/>
        <pt x="265" y="-204" on="0"/>
        <pt x="262" y="-204" on="1"/>
        <pt x="259" y="-204" on="0"/>
        <pt x="247" y="-202" on="0"/>
        <pt x="233" y="-193" on="0"/>
        <pt x="223" y="-176" on="0"/>
        <pt x="223" y="-160" on="1"/>
        <pt x="223" y="-143" on="0"/>
        <pt x="230" y="-97" on="0"/>
        <pt x="237" y="-65" on="1"/>
        <pt x="237" y="-65" on="0"/>
        <pt x="241" y="-49" on="0"/>
        <pt x="245" y="-27" on="0"/>
        <pt x="249" y="-1" on="0"/>
        <pt x="250" y="10" on="1"/>
        <pt x="242" y="9" on="0"/>
        <pt x="217" y="5" on="0"/>
        <pt x="192" y="-3" on="1"/>
        <pt x="170" y="-9" on="0"/>
        <pt x="133" y="-17" on="0"/>
        <pt x="116" y="-17" on="1"/>
        <pt x="97" y="-17" on="0"/>
        <pt x="77" y="8" on="0"/>
        <pt x="77" y="22" on="1"/>
        <pt x="77" y="36" on="0"/>
        <pt x="97" y="61" on="0"/>
        <pt x="117" y="61" on="1"/>
        <pt x="131" y="61" on="0"/>
        <pt x="164" y="56" on="0"/>
        <pt x="186" y="49" on="1"/>
        <pt x="209" y="42" on="0"/>
        <pt x="237" y="37" on="0"/>
        <pt x="250" y="35" on="1"/>
        <pt x="249" y="46" on="0"/>
        <pt x="245" y="73" on="0"/>
        <pt x="241" y="97" on="0"/>
        <pt x="237" y="113" on="0"/>
        <pt x="237" y="114" on="1"/>
        <pt x="236" y="121" on="0"/>
        <pt x="231" y="143" on="0"/>
        <pt x="226" y="168" on="0"/>
        <pt x="223" y="194" on="0"/>
        <pt x="223" y="205" on="1"/>
        <pt x="223" y="221" on="0"/>
        <pt x="233" y="238" on="0"/>
        <pt x="247" y="247" on="0"/>
        <pt x="259" y="249" on="0"/>
        <pt x="262" y="249" on="1"/>
        <pt x="265" y="249" on="0"/>
        <pt x="277" y="247" on="0"/>
        <pt x="291" y="238" on="0"/>
        <pt x="301" y="221" on="0"/>
        <pt x="301" y="205" on="1"/>
        <pt x="301" y="188" on="0"/>
        <pt x="294" y="142" on="0"/>
        <pt x="287" y="110" on="1"/>
        <pt x="287" y="110" on="0"/>
        <pt x="283" y="94" on="0"/>
        <pt x="279" y="72" on="0"/>
        <pt x="275" y="46" on="0"/>
        <pt x="274" y="35" on="1"/>
        <pt x="282" y="36" on="0"/>
        <pt x="307" y="40" on="0"/>
        <pt x="332" y="48" on="1"/>
        <pt x="358" y="56" on="0"/>
        <pt x="392" y="61" on="0"/>
        <pt x="408" y="61" on="1"/>
        <pt x="428" y="61" on="0"/>
        <pt x="447" y="37" on="0"/>
        <pt x="447" y="23" on="1"/>
        <pt x="447" y="6" on="0"/>
        <pt x="425" y="-17" on="0"/>
        <pt x="408" y="-17" on="1"/>
        <pt x="392" y="-17" on="0"/>
        <pt x="358" y="-10" on="0"/>
        <pt x="338" y="-4" on="1"/>
        <pt x="315" y="3" on="0"/>
        <pt x="287" y="8" on="0"/>
      </contour>
    </TTGlyph>
    <TTGlyph name="diamond" xMin="77" yMin="-160" xMax="816" yMax="724">
      <contour>
        <pt x="816" y="282" on="1"/>
        <pt x="816" y="274" on="0"/>
        <pt x="808" y="264" on="0"/>
        <pt x="801" y="258" on="1"/>
        <pt x="737" y="205" on="0"/>
        <pt x="637" y="100" on="0"/>
        <pt x="558" y="0" on="0"/>
        <pt x="497" y="-95" on="0"/>
        <pt x="473" y="-138" on="1"/>
        <pt x="468" y="-148" on="0"/>
        <pt x="458" y="-160" on="0"/>
        <pt x="447" y="-160" on="1"/>
        <pt x="436" y="-160" on="0"/>
        <pt x="426" y="-149" on="0"/>
        <pt x="423" y="-144" on="1"/>
        <pt x="409" y="-119" on="0"/>
        <pt x="357" y="-33" on="0"/>
        <pt x="278" y="74" on="0"/>
        <pt x="170" y="194" on="0"/>
        <pt x="101" y="251" on="1"/>
        <pt x="87" y="262" on="0"/>
        <pt x="77" y="274" on="0"/>
        <pt x="77" y="282" on="1"/>
        <pt x="77" y="290" on="0"/>
        <pt x="87" y="301" on="0"/>
        <pt x="92" y="306" on="1"/>
        <pt x="159" y="362" on="0"/>
        <pt x="263" y="472" on="0"/>
        <pt x="342" y="575" on="0"/>
        <pt x="399" y="666" on="0"/>
        <pt x="420" y="702" on="1"/>
        <pt x="426" y="713" on="0"/>
        <pt x="436" y="724" on="0"/>
        <pt x="447" y="724" on="1"/>
        <pt x="458" y="724" on="0"/>
        <pt x="468" y="712" on="0"/>
        <pt x="470" y="708" on="1"/>
        <pt x="484" y="683" on="0"/>
        <pt x="536" y="596" on="0"/>
        <pt x="615" y="490" on="0"/>
        <pt x="723" y="371" on="0"/>
        <pt x="792" y="313" on="1"/>
        <pt x="807" y="300" on="0"/>
        <pt x="816" y="290" on="0"/>
      </contour>
      <contour>
        <pt x="447" y="-86" on="1"/>
        <pt x="521" y="41" on="0"/>
        <pt x="677" y="218" on="0"/>
        <pt x="753" y="282" on="1"/>
        <pt x="690" y="336" on="0"/>
        <pt x="595" y="438" on="0"/>
        <pt x="522" y="532" on="0"/>
        <pt x="467" y="616" on="0"/>
        <pt x="446" y="650" on="1"/>
        <pt x="372" y="523" on="0"/>
        <pt x="216" y="347" on="0"/>
        <pt x="140" y="282" on="1"/>
        <pt x="203" y="228" on="0"/>
        <pt x="298" y="126" on="0"/>
        <pt x="371" y="32" on="0"/>
        <pt x="426" y="-52" on="0"/>
      </contour>
    </TTGlyph>
    <TTGlyph name="divide" xMin="77" yMin="-61" xMax="816" yMax="562">
      <contour>
        <pt x="516" y="491" on="1"/>
        <pt x="516" y="462" on="0"/>
        <pt x="475" y="421" on="0"/>
        <pt x="446" y="421" on="1"/>
        <pt x="420" y="421" on="0"/>
        <pt x="377" y="460" on="0"/>
        <pt x="377" y="492" on="1"/>
        <pt x="377" y="521" on="0"/>
        <pt x="418" y="562" on="0"/>
        <pt x="447" y="562" on="1"/>
        <pt x="473" y="562" on="0"/>
        <pt x="516" y="523" on="0"/>
      </contour>
      <contour>
        <pt x="516" y="9" on="1"/>
        <pt x="516" y="-20" on="0"/>
        <pt x="474" y="-61" on="0"/>
        <pt x="447" y="-61" on="1"/>
        <pt x="419" y="-61" on="0"/>
        <pt x="377" y="-21" on="0"/>
        <pt x="377" y="10" on="1"/>
        <pt x="377" y="39" on="0"/>
        <pt x="418" y="80" on="0"/>
        <pt x="447" y="80" on="1"/>
        <pt x="473" y="80" on="0"/>
        <pt x="516" y="41" on="0"/>
      </contour>
      <contour>
        <pt x="776" y="275" on="1"/>
        <pt x="789" y="275" on="0"/>
        <pt x="816" y="269" on="0"/>
        <pt x="816" y="250" on="1"/>
        <pt x="816" y="232" on="0"/>
        <pt x="788" y="226" on="0"/>
        <pt x="776" y="226" on="1"/>
        <pt x="117" y="226" on="1"/>
        <pt x="105" y="226" on="0"/>
        <pt x="77" y="232" on="0"/>
        <pt x="77" y="250" on="1"/>
        <pt x="77" y="269" on="0"/>
        <pt x="104" y="275" on="0"/>
        <pt x="117" y="275" on="1"/>
      </contour>
    </TTGlyph>
    <TTGlyph name="element" xMin="108" yMin="-76" xMax="661" yMax="577">
      <contour>
        <pt x="158" y="226" on="1"/>
        <pt x="164" y="172" on="0"/>
        <pt x="212" y="79" on="0"/>
        <pt x="290" y="11" on="0"/>
        <pt x="392" y="-27" on="0"/>
        <pt x="450" y="-27" on="1"/>
        <pt x="621" y="-27" on="1"/>
        <pt x="634" y="-27" on="0"/>
        <pt x="661" y="-33" on="0"/>
        <pt x="661" y="-52" on="1"/>
        <pt x="661" y="-70" on="0"/>
        <pt x="633" y="-76" on="0"/>
        <pt x="621" y="-76" on="1"/>
        <pt x="446" y="-76" on="1"/>
        <pt x="377" y="-76" on="0"/>
        <pt x="254" y="-26" on="0"/>
        <pt x="162" y="63" on="0"/>
        <pt x="108" y="182" on="0"/>
        <pt x="108" y="251" on="1"/>
        <pt x="108" y="319" on="0"/>
        <pt x="161" y="437" on="0"/>
        <pt x="253" y="526" on="0"/>
        <pt x="376" y="577" on="0"/>
        <pt x="446" y="577" on="1"/>
        <pt x="621" y="577" on="1"/>
        <pt x="634" y="577" on="0"/>
        <pt x="661" y="571" on="0"/>
        <pt x="661" y="552" on="1"/>
        <pt x="661" y="534" on="0"/>
        <pt x="633" y="528" on="0"/>
        <pt x="621" y="528" on="1"/>
        <pt x="450" y="528" on="1"/>
        <pt x="392" y="528" on="0"/>
        <pt x="290" y="490" on="0"/>
        <pt x="212" y="422" on="0"/>
        <pt x="164" y="329" on="0"/>
        <pt x="158" y="275" on="1"/>
        <pt x="621" y="275" on="1"/>
        <pt x="634" y="275" on="0"/>
        <pt x="661" y="269" on="0"/>
        <pt x="661" y="250" on="1"/>
        <pt x="661" y="232" on="0"/>
        <pt x="633" y="226" on="0"/>
        <pt x="621" y="226" on="1"/>
      </contour>
    </TTGlyph>
    <TTGlyph name="emptyset" xMin="66" yMin="-76" xMax="518" yMax="770">
      <contour>
        <pt x="392" y="739" on="1"/>
        <pt x="397" y="753" on="0"/>
        <pt x="407" y="770" on="0"/>
        <pt x="421" y="770" on="1"/>
        <pt x="429" y="770" on="0"/>
        <pt x="445" y="757" on="0"/>
        <pt x="445" y="745" on="1"/>
        <pt x="445" y="741" on="0"/>
        <pt x="439" y="720" on="0"/>
        <pt x="431" y="696" on="0"/>
        <pt x="423" y="673" on="0"/>
        <pt x="421" y="668" on="1"/>
        <pt x="457" y="639" on="0"/>
        <pt x="497" y="546" on="0"/>
        <pt x="515" y="450" on="0"/>
        <pt x="518" y="365" on="0"/>
        <pt x="518" y="344" on="1"/>
        <pt x="518" y="272" on="0"/>
        <pt x="501" y="144" on="0"/>
        <pt x="470" y="87" on="1"/>
        <pt x="453" y="56" on="0"/>
        <pt x="409" y="15" on="0"/>
        <pt x="362" y="-10" on="0"/>
        <pt x="313" y="-20" on="0"/>
        <pt x="292" y="-20" on="1"/>
        <pt x="262" y="-20" on="0"/>
        <pt x="216" y="-6" on="0"/>
        <pt x="205" y="-1" on="1"/>
        <pt x="192" y="-45" on="1"/>
        <pt x="187" y="-59" on="0"/>
        <pt x="177" y="-76" on="0"/>
        <pt x="163" y="-76" on="1"/>
        <pt x="155" y="-76" on="0"/>
        <pt x="139" y="-63" on="0"/>
        <pt x="139" y="-51" on="1"/>
        <pt x="139" y="-47" on="0"/>
        <pt x="145" y="-26" on="0"/>
        <pt x="153" y="-2" on="0"/>
        <pt x="161" y="21" on="0"/>
        <pt x="163" y="26" on="1"/>
        <pt x="127" y="53" on="0"/>
        <pt x="87" y="145" on="0"/>
        <pt x="69" y="240" on="0"/>
        <pt x="66" y="324" on="0"/>
        <pt x="66" y="344" on="1"/>
        <pt x="66" y="374" on="0"/>
        <pt x="69" y="442" on="0"/>
        <pt x="79" y="512" on="0"/>
        <pt x="100" y="581" on="0"/>
        <pt x="118" y="612" on="1"/>
        <pt x="136" y="642" on="0"/>
        <pt x="180" y="682" on="0"/>
        <pt x="226" y="705" on="0"/>
        <pt x="272" y="714" on="0"/>
        <pt x="292" y="714" on="1"/>
        <pt x="306" y="714" on="0"/>
        <pt x="351" y="707" on="0"/>
        <pt x="379" y="695" on="1"/>
      </contour>
      <contour>
        <pt x="368" y="662" on="1"/>
        <pt x="358" y="669" on="0"/>
        <pt x="318" y="686" on="0"/>
        <pt x="292" y="686" on="1"/>
        <pt x="280" y="686" on="0"/>
        <pt x="243" y="679" on="0"/>
        <pt x="204" y="655" on="0"/>
        <pt x="170" y="611" on="0"/>
        <pt x="160" y="574" on="1"/>
        <pt x="148" y="528" on="0"/>
        <pt x="144" y="416" on="0"/>
        <pt x="144" y="357" on="1"/>
        <pt x="144" y="270" on="0"/>
        <pt x="154" y="124" on="0"/>
        <pt x="179" y="78" on="1"/>
      </contour>
      <contour>
        <pt x="222" y="49" on="1"/>
        <pt x="221" y="45" on="0"/>
        <pt x="218" y="36" on="0"/>
        <pt x="217" y="33" on="1"/>
        <pt x="232" y="22" on="0"/>
        <pt x="271" y="8" on="0"/>
        <pt x="292" y="8" on="1"/>
        <pt x="312" y="8" on="0"/>
        <pt x="343" y="19" on="0"/>
        <pt x="367" y="32" on="0"/>
        <pt x="381" y="45" on="0"/>
        <pt x="382" y="47" on="1"/>
        <pt x="400" y="67" on="0"/>
        <pt x="423" y="118" on="0"/>
        <pt x="436" y="190" on="0"/>
        <pt x="440" y="290" on="0"/>
        <pt x="440" y="357" on="1"/>
        <pt x="440" y="393" on="0"/>
        <pt x="439" y="467" on="0"/>
        <pt x="433" y="536" on="0"/>
        <pt x="419" y="597" on="0"/>
        <pt x="406" y="619" on="1"/>
      </contour>
    </TTGlyph>
    <TTGlyph name="equivalence" xMin="77" yMin="6" xMax="815" yMax="495">
      <contour>
        <pt x="117" y="446" on="1"/>
        <pt x="104" y="446" on="0"/>
        <pt x="77" y="452" on="0"/>
        <pt x="77" y="471" on="1"/>
        <pt x="77" y="489" on="0"/>
        <pt x="105" y="495" on="0"/>
        <pt x="117" y="495" on="1"/>
        <pt x="775" y="495" on="1"/>
        <pt x="787" y="495" on="0"/>
        <pt x="815" y="489" on="0"/>
        <pt x="815" y="471" on="1"/>
        <pt x="815" y="452" on="0"/>
        <pt x="788" y="446" on="0"/>
        <pt x="775" y="446" on="1"/>
      </contour>
      <contour>
        <pt x="117" y="6" on="1"/>
        <pt x="105" y="6" on="0"/>
        <pt x="77" y="12" on="0"/>
        <pt x="77" y="30" on="1"/>
        <pt x="77" y="49" on="0"/>
        <pt x="104" y="55" on="0"/>
        <pt x="117" y="55" on="1"/>
        <pt x="775" y="55" on="1"/>
        <pt x="788" y="55" on="0"/>
        <pt x="815" y="49" on="0"/>
        <pt x="815" y="30" on="1"/>
        <pt x="815" y="12" on="0"/>
        <pt x="787" y="6" on="0"/>
        <pt x="775" y="6" on="1"/>
      </contour>
      <contour>
        <pt x="117" y="226" on="1"/>
        <pt x="105" y="226" on="0"/>
        <pt x="77" y="232" on="0"/>
        <pt x="77" y="250" on="1"/>
        <pt x="77" y="269" on="0"/>
        <pt x="104" y="275" on="0"/>
        <pt x="117" y="275" on="1"/>
        <pt x="775" y="275" on="1"/>
        <pt x="788" y="275" on="0"/>
        <pt x="815" y="269" on="0"/>
        <pt x="815" y="250" on="1"/>
        <pt x="815" y="232" on="0"/>
        <pt x="787" y="226" on="0"/>
        <pt x="775" y="226" on="1"/>
      </contour>
    </TTGlyph>
    <TTGlyph name="existential" xMin="77" yMin="0" xMax="569" yMax="694">
      <contour>
        <pt x="569" y="39" on="1"/>
        <pt x="569" y="13" on="0"/>
        <pt x="555" y="0" on="0"/>
        <pt x="529" y="0" on="1"/>
        <pt x="117" y="0" on="1"/>
        <pt x="105" y="0" on="0"/>
        <pt x="77" y="6" on="0"/>
        <pt x="77" y="24" on="1"/>
        <pt x="77" y="43" on="0"/>
        <pt x="104" y="49" on="0"/>
        <pt x="117" y="49" on="1"/>
        <pt x="520" y="49" on="1"/>
        <pt x="520" y="323" on="1"/>
        <pt x="130" y="323" on="1"/>
        <pt x="119" y="323" on="0"/>
        <pt x="93" y="329" on="0"/>
        <pt x="93" y="347" on="1"/>
        <pt x="93" y="356" on="0"/>
        <pt x="101" y="367" on="0"/>
        <pt x="114" y="371" on="0"/>
        <pt x="129" y="372" on="0"/>
        <pt x="135" y="372" on="1"/>
        <pt x="520" y="372" on="1"/>
        <pt x="520" y="645" on="1"/>
        <pt x="117" y="645" on="1"/>
        <pt x="105" y="645" on="0"/>
        <pt x="77" y="651" on="0"/>
        <pt x="77" y="669" on="1"/>
        <pt x="77" y="688" on="0"/>
        <pt x="104" y="694" on="0"/>
        <pt x="117" y="694" on="1"/>
        <pt x="529" y="694" on="1"/>
        <pt x="555" y="694" on="0"/>
        <pt x="569" y="681" on="0"/>
        <pt x="569" y="655" on="1"/>
      </contour>
    </TTGlyph>
    <TTGlyph name="followsequal" xMin="108" yMin="-187" xMax="784" yMax="685">
      <contour>
        <pt x="460" y="359" on="1"/>
        <pt x="426" y="365" on="0"/>
        <pt x="337" y="390" on="0"/>
        <pt x="248" y="433" on="0"/>
        <pt x="168" y="498" on="0"/>
        <pt x="143" y="543" on="1"/>
        <pt x="119" y="588" on="0"/>
        <pt x="108" y="655" on="0"/>
        <pt x="108" y="660" on="1"/>
        <pt x="108" y="672" on="0"/>
        <pt x="124" y="685" on="0"/>
        <pt x="132" y="685" on="1"/>
        <pt x="137" y="685" on="0"/>
        <pt x="155" y="677" on="0"/>
        <pt x="157" y="661" on="1"/>
        <pt x="160" y="644" on="0"/>
        <pt x="174" y="585" on="0"/>
        <pt x="218" y="518" on="0"/>
        <pt x="303" y="453" on="0"/>
        <pt x="376" y="430" on="1"/>
        <pt x="454" y="406" on="0"/>
        <pt x="633" y="384" on="0"/>
        <pt x="747" y="383" on="1"/>
        <pt x="752" y="383" on="0"/>
        <pt x="765" y="382" on="0"/>
        <pt x="776" y="378" on="0"/>
        <pt x="784" y="367" on="0"/>
        <pt x="784" y="358" on="1"/>
        <pt x="784" y="345" on="0"/>
        <pt x="766" y="334" on="0"/>
        <pt x="755" y="334" on="1"/>
        <pt x="650" y="333" on="0"/>
        <pt x="447" y="312" on="0"/>
        <pt x="282" y="254" on="0"/>
        <pt x="171" y="151" on="0"/>
        <pt x="158" y="68" on="1"/>
        <pt x="156" y="54" on="0"/>
        <pt x="148" y="33" on="0"/>
        <pt x="132" y="33" on="1"/>
        <pt x="124" y="33" on="0"/>
        <pt x="108" y="46" on="0"/>
        <pt x="108" y="58" on="1"/>
        <pt x="108" y="63" on="0"/>
        <pt x="111" y="88" on="0"/>
        <pt x="120" y="122" on="0"/>
        <pt x="135" y="161" on="0"/>
        <pt x="147" y="180" on="1"/>
        <pt x="189" y="249" on="0"/>
        <pt x="343" y="336" on="0"/>
      </contour>
      <contour>
        <pt x="744" y="-138" on="1"/>
        <pt x="757" y="-138" on="0"/>
        <pt x="784" y="-144" on="0"/>
        <pt x="784" y="-163" on="1"/>
        <pt x="784" y="-181" on="0"/>
        <pt x="756" y="-187" on="0"/>
        <pt x="744" y="-187" on="1"/>
        <pt x="148" y="-187" on="1"/>
        <pt x="135" y="-187" on="0"/>
        <pt x="108" y="-181" on="0"/>
        <pt x="108" y="-162" on="1"/>
        <pt x="108" y="-144" on="0"/>
        <pt x="136" y="-138" on="0"/>
        <pt x="148" y="-138" on="1"/>
      </contour>
    </TTGlyph>
    <TTGlyph name="gradient" xMin="69" yMin="-30" xMax="884" yMax="683">
      <contour>
        <pt x="508" y="-9" on="1"/>
        <pt x="502" y="-20" on="0"/>
        <pt x="491" y="-30" on="0"/>
        <pt x="476" y="-30" on="1"/>
        <pt x="461" y="-30" on="0"/>
        <pt x="450" y="-19" on="0"/>
        <pt x="443" y="-6" on="1"/>
        <pt x="76" y="657" on="1"/>
        <pt x="75" y="659" on="0"/>
        <pt x="69" y="670" on="0"/>
        <pt x="69" y="674" on="1"/>
        <pt x="69" y="681" on="0"/>
        <pt x="81" y="683" on="0"/>
        <pt x="95" y="683" on="1"/>
        <pt x="858" y="683" on="1"/>
        <pt x="872" y="683" on="0"/>
        <pt x="884" y="681" on="0"/>
        <pt x="884" y="674" on="1"/>
        <pt x="884" y="670" on="0"/>
        <pt x="878" y="659" on="0"/>
        <pt x="877" y="657" on="1"/>
      </contour>
      <contour>
        <pt x="509" y="67" on="1"/>
        <pt x="510" y="67" on="1"/>
        <pt x="806" y="603" on="1"/>
        <pt x="212" y="603" on="1"/>
      </contour>
    </TTGlyph>
    <TTGlyph name="greaterequal" xMin="108" yMin="-187" xMax="784" yMax="685">
      <contour>
        <pt x="151" y="39" on="1"/>
        <pt x="142" y="34" on="0"/>
        <pt x="134" y="33" on="0"/>
        <pt x="133" y="33" on="1"/>
        <pt x="121" y="33" on="0"/>
        <pt x="108" y="49" on="0"/>
        <pt x="108" y="57" on="1"/>
        <pt x="108" y="69" on="0"/>
        <pt x="120" y="79" on="0"/>
        <pt x="134" y="85" on="1"/>
        <pt x="703" y="359" on="1"/>
        <pt x="129" y="635" on="1"/>
        <pt x="122" y="638" on="0"/>
        <pt x="108" y="649" on="0"/>
        <pt x="108" y="660" on="1"/>
        <pt x="108" y="671" on="0"/>
        <pt x="122" y="685" on="0"/>
        <pt x="133" y="685" on="1"/>
        <pt x="135" y="685" on="0"/>
        <pt x="142" y="683" on="0"/>
        <pt x="153" y="678" on="1"/>
        <pt x="761" y="386" on="1"/>
        <pt x="784" y="375" on="0"/>
        <pt x="784" y="359" on="1"/>
        <pt x="784" y="343" on="0"/>
        <pt x="761" y="332" on="1"/>
      </contour>
      <contour>
        <pt x="148" y="-187" on="1"/>
        <pt x="136" y="-187" on="0"/>
        <pt x="108" y="-181" on="0"/>
        <pt x="108" y="-163" on="1"/>
        <pt x="108" y="-144" on="0"/>
        <pt x="135" y="-138" on="0"/>
        <pt x="148" y="-138" on="1"/>
        <pt x="744" y="-138" on="1"/>
        <pt x="757" y="-138" on="0"/>
        <pt x="784" y="-144" on="0"/>
        <pt x="784" y="-163" on="1"/>
        <pt x="784" y="-181" on="0"/>
        <pt x="756" y="-187" on="0"/>
        <pt x="744" y="-187" on="1"/>
      </contour>
    </TTGlyph>
</ttFont>
